<svg width="300" height="285" viewBox="0 0 300 285" fill="none" xmlns="http://www.w3.org/2000/svg">
<path d="M300 284.177C300 284.279 232.837 284.353 150.007 284.353C67.1762 284.353 0 284.279 0 284.177C0 284.075 67.1491 284 150.007 284C232.865 284 300 284.082 300 284.177Z" fill="#263238"/>
<path d="M64.5506 228.329L63.019 230.907L84.2577 242.665L85.7893 240.087L85.3555 239.313L147.586 240.093C143.393 244.051 139.288 249.393 135.199 256.275L130.569 253.524L129.035 256.106L137.678 273.368L156.963 272.714L158.497 270.132L153.896 267.398C168.537 245.042 186.738 247.409 201.1 247.589C205.03 247.634 226.225 247.903 244.674 248.143L246.21 245.557C244.575 241.346 242.639 237.258 240.416 233.325C236.845 227.029 232.729 221.058 228.114 215.481L185.782 214.949C170.908 214.769 154.467 216.864 111.01 191.048L112.608 188.359L92.3002 187.203L90.7686 189.781L101.499 207.058L103.094 204.373C115.019 211.457 125.22 216.99 133.944 221.114L74.6966 220.365L72.7989 216.975L64.5506 228.329Z" fill="#FFB47D"/>
<path opacity="0.15" d="M64.5506 228.329L63.019 230.907L84.2577 242.665L85.7893 240.087L85.3555 239.313L147.586 240.093C143.393 244.051 139.288 249.393 135.199 256.275L130.569 253.524L129.035 256.106L137.678 273.368L156.963 272.714L158.497 270.132L153.896 267.398C168.537 245.042 186.738 247.409 201.1 247.589L244.674 248.143L246.21 245.557C244.575 241.346 242.639 237.258 240.416 233.325C236.845 227.029 232.729 221.058 228.114 215.481L227.971 215.479L185.782 214.949C170.908 214.769 154.467 216.864 111.01 191.048L112.608 188.359L92.3002 187.203L90.7686 189.781L101.499 207.058L103.094 204.373C115.019 211.457 125.22 216.99 133.944 221.114L74.6966 220.365L72.7989 216.975L64.5506 228.329Z" fill="black"/>
<path opacity="0.15" d="M153.843 267.357L153.9 267.391C168.545 245.036 186.746 247.403 201.108 247.584L244.671 248.148L246.207 245.562L202.652 245.013C187.757 244.815 168.74 242.28 153.843 267.357Z" fill="black"/>
<path opacity="0.15" d="M104.622 201.771L103.093 204.345C115.018 211.429 125.219 216.962 133.943 221.086L141.396 221.194C136.427 219.052 130.933 216.392 124.809 213.159C118.685 209.926 111.987 206.146 104.622 201.771Z" fill="black"/>
<path d="M85.7862 240.085L83.882 236.697L150.553 237.531C145.308 241.624 140.261 247.786 135.213 256.283L130.566 253.523L139.214 270.777L158.502 270.118L153.847 267.353C168.742 242.281 187.77 244.806 202.636 244.998L246.171 245.551C244.536 241.34 242.6 237.253 240.377 233.32C236.806 227.024 232.69 221.053 228.075 215.475L227.932 215.473L185.743 214.943C170.869 214.763 154.428 216.858 110.971 191.042L112.569 188.353L92.2611 187.197L102.992 204.474L104.587 201.789C111.968 206.174 118.654 209.946 124.762 213.17C130.87 216.393 136.378 219.067 141.345 221.202L74.6575 220.359L72.7598 216.969L64.5116 228.351L85.7862 240.085Z" fill="#FFB47D"/>
<path opacity="0.15" d="M83.8774 236.693L85.3453 239.312L147.576 240.092C148.651 239.067 149.619 238.25 150.546 237.531L83.8774 236.693Z" fill="black"/>
<path opacity="0.15" d="M139.213 270.782L137.681 273.361L156.969 272.702L158.501 270.124L139.213 270.782Z" fill="black"/>
<path d="M161.072 223.99C160.93 224.42 160.88 224.876 160.924 225.327C160.969 225.778 161.108 226.214 161.332 226.609C162.5 227.607 163.86 228.355 165.329 228.808C166.798 229.26 168.344 229.406 169.872 229.237C173.177 228.915 176.356 227.805 179.142 225.999C181.277 224.685 183.77 224.07 186.272 224.24C188.862 224.24 190.782 223.74 191.002 223.07C191.392 221.881 191.422 221.131 190.852 221.141L161.072 223.99Z" fill="#263238"/>
<path d="M188.962 212.905C187.694 213.862 186.175 214.43 184.59 214.542C183.006 214.653 181.422 214.304 180.032 213.535L179.492 196.593H190.662L188.962 212.905Z" fill="#FFBE9D"/>
<path d="M163.392 220.611C167.427 219.215 171.289 217.361 174.901 215.084C175.661 214.544 176.252 214.084 176.752 213.665C177.882 212.525 178.571 210.056 179.061 209.777C179.551 209.497 180.371 210.396 180.761 210.606C181.576 211.057 182.468 211.352 183.392 211.476C186.122 211.826 186.231 211.276 186.311 212.165C186.337 212.498 186.337 212.832 186.311 213.165C187.761 212.975 188.912 212.555 189.002 212.006L189.242 210.266C190.682 210.186 190.681 212.765 191.041 215.674C191.341 218.023 191.842 219.742 191.132 221.441C188.882 223.26 185.062 222.65 182.862 222.93C179.752 223.33 178.222 225.559 173.862 226.928C166.862 229.067 162.571 226.139 161.321 224.879C160.491 223.27 160.962 221.521 163.392 220.611Z" fill="#263238"/>
<path d="M203.271 239.022C203.391 240.082 203.551 243.02 208.941 243.78C214.331 244.54 217.721 242.7 219.151 240.102C220.581 237.503 220.241 235.394 220.461 232.995C220.681 230.596 222.661 229.307 223.231 228.068C224.061 226.249 222.821 223.42 222.821 223.42L203.271 239.022Z" fill="#263238"/>
<path d="M221.552 219.252C220.902 224.17 211.362 223.81 212.132 219.882L210.392 207.958L221.182 208.257L221.552 219.252Z" fill="#FFBE9D"/>
<path d="M203.652 236.574C204.415 235.526 205.24 234.525 206.122 233.575C209.335 229.451 211.265 224.474 211.672 219.262C211.672 218.972 211.732 218.413 212.012 218.263C212.292 218.113 212.602 218.333 212.902 218.463C213.436 218.692 214.003 218.837 214.582 218.892C216.081 218.935 217.581 218.872 219.072 218.702C219.442 218.752 219.562 219.892 219.542 221.141C220.212 220.701 220.432 219.852 221.042 219.352C221.372 219.082 221.522 219.072 221.512 218.632C221.502 218.193 221.512 218.093 221.512 217.803C222.002 217.653 222.422 219.532 222.822 220.961C223.302 222.62 223.882 224.49 223.242 226.179C222.832 227.1 222.326 227.974 221.732 228.787C220.706 230.199 220.041 231.839 219.792 233.565C219.722 234.315 219.792 235.084 219.672 235.834C219.503 237.103 218.972 238.297 218.142 239.272C217.312 240.247 216.218 240.962 214.992 241.331C211.712 242.331 206.772 242.221 203.872 239.932C202.842 239.152 203.182 237.463 203.652 236.574Z" fill="#263238"/>
<path d="M216.292 108.677C218.432 128.347 218.782 163.32 218.782 163.32C218.782 163.32 222.022 172.475 222.012 179.312C222.012 193.645 221.642 213.295 221.642 213.295C218.216 214.543 214.485 214.689 210.972 213.715C210.972 213.715 205.512 181.731 203.082 170.156C200.952 160.091 197.532 137.123 197.532 137.123L192.822 165.259C193.84 170.469 194.289 175.774 194.162 181.081C193.942 186.498 189.922 207.308 189.922 207.308C188.162 208.967 181.752 207.578 179.492 206.139C179.492 206.139 177.912 171.066 177.432 165.379C176.802 157.882 175.652 104.169 175.652 104.169L216.292 108.677Z" fill="#263238"/>
<path d="M197.531 137.103L194.901 125.009C191.273 124.114 187.856 122.518 184.841 120.311C184.841 120.311 186.381 124.169 192.841 127.128L195.521 138.452L193.221 163.32L197.531 137.103Z" fill="#263238"/>
<path d="M101.061 54.9834C101.631 53.2642 104.771 54.7435 108.061 56.3327C111.061 57.792 116.921 60.5906 117.341 59.9909C117.761 59.3912 117.421 56.8724 118.151 55.2333C118.881 53.5941 120.821 53.0843 120.811 54.5436C120.811 55.3832 121.321 58.1718 121.491 59.4512C121.661 60.7305 121.981 62.4497 123.241 63.2093C124.501 63.9689 149.061 67.7571 149.061 67.7571C149.061 67.7571 168.161 56.4327 172.061 53.8539C175.961 51.2752 179.061 48.7864 184.861 49.0763C192.461 51.8049 189.861 58.8015 186.631 63.2793C184.841 65.7381 184.181 65.6781 177.551 68.4767C169.551 71.865 156.911 79.1015 150.101 80.121C142.451 79.3413 122.291 73.7041 120.311 73.3843C117.951 72.9945 116.451 73.4543 114.541 73.1344C112.251 72.7346 110.291 72.5047 108.221 71.2753C107.91 71.1287 107.634 70.916 107.413 70.6519C107.191 70.3878 107.031 70.0786 106.941 69.7461C106.881 69.4062 106.941 69.0564 106.941 68.7466C106.757 68.1973 106.61 67.6363 106.501 67.0674C106.501 66.3178 107.331 65.6081 107.291 64.8585C107.291 64.5287 106.791 63.6491 106.881 63.3293C107.086 62.8508 107.352 62.4007 107.671 61.9899C107.821 61.7101 108.271 61.2303 107.971 60.9304C107.671 60.6306 106.581 60.1508 104.381 58.6316C102.181 57.1123 100.671 56.1228 101.061 54.9834Z" fill="#FFBE9D"/>
<path d="M185.172 48.5865C181.772 48.5865 179.662 48.0467 170.232 53.9938C160.802 59.9409 148.972 67.4571 148.972 67.4571L136.572 65.738C136.572 65.738 138.192 70.3457 134.952 77.0124C134.952 77.0124 146.482 80.1309 149.182 80.6106C151.882 81.0904 151.562 80.9005 155.752 79.3113C159.942 77.7221 181.242 67.777 181.242 67.777L185.172 48.5865Z" fill="#FF774C"/>
<path d="M111.492 61.8198C113.312 63.0092 115.622 63.8188 115.742 65.0682C115.751 65.316 115.706 65.5628 115.611 65.7916C115.515 66.0204 115.371 66.2259 115.189 66.394C115.007 66.562 114.79 66.6887 114.554 66.7652C114.318 66.8417 114.068 66.8663 113.822 66.8373C114.045 67.0353 114.211 67.288 114.306 67.5702C114.401 67.8525 114.42 68.1545 114.362 68.4466C114.291 68.7273 114.143 68.9826 113.934 69.1839C113.726 69.3851 113.465 69.5244 113.182 69.586C113.289 69.7814 113.355 69.9966 113.376 70.2184C113.396 70.4402 113.371 70.6639 113.302 70.8756C113.232 71.0873 113.12 71.2826 112.972 71.4493C112.825 71.616 112.644 71.7506 112.442 71.8449C113.132 71.8449 114.442 71.4551 114.022 70.1657C114.022 70.1657 115.692 69.1662 115.022 67.7169C115.022 67.7169 115.712 69.4061 118.452 69.8159C117.214 69.218 116.216 68.217 115.622 66.9773C115.958 66.6822 116.208 66.3011 116.344 65.8749C116.479 65.4487 116.496 64.9935 116.392 64.5585C115.962 63.1492 111.492 61.8198 111.492 61.8198Z" fill="#F28F8F"/>
<path d="M199.291 48.9862C204.791 49.8158 211.081 50.2556 214.931 50.7853C219.141 51.355 220.651 54.7833 220.651 61.9998C220.651 72.5945 215.221 90.2658 215.221 90.2658L216.291 108.717C211.361 113.994 188.141 115.903 175.541 108.177C175.541 108.177 175.211 72.2447 175.541 66.1977C176.141 55.543 182.311 48.7163 186.241 48.4165C186.241 48.3565 189.841 47.5069 199.291 48.9862Z" fill="#FCE1A6"/>
<path d="M204.612 16.0024C204.612 16.0024 207.612 16.4222 208.732 18.6911C209.732 20.6901 209.352 25.4278 208.062 30.6252C207.338 33.9879 206.252 37.2621 204.822 40.3904C204.322 41.2776 203.497 41.9367 202.522 42.2295L202.672 36.0625L202.902 31.7746C202.902 31.7746 200.142 28.0065 199.832 24.918C199.442 20.92 200.282 19.3208 200.282 19.3208L204.612 16.0024Z" fill="#263238"/>
<path d="M205.321 16.7621L209.571 14.823C209.315 14.2344 208.841 13.768 208.248 13.5219C207.655 13.2758 206.989 13.2693 206.391 13.5037C206.105 13.6447 205.849 13.8416 205.639 14.0827C205.43 14.3239 205.27 14.6044 205.171 14.908C205.071 15.2115 205.033 15.5318 205.059 15.8502C205.085 16.1686 205.174 16.4786 205.321 16.7621Z" fill="#263238"/>
<path d="M199.752 21.9994C199.746 24.2772 199.064 26.502 197.793 28.3924C196.522 30.2828 194.718 31.7539 192.61 32.6196C190.503 33.4853 188.185 33.7067 185.951 33.2558C183.718 32.8049 181.668 31.7019 180.061 30.0864C178.455 28.471 177.364 26.4155 176.926 24.1802C176.489 21.9448 176.724 19.63 177.603 17.5285C178.482 15.4269 179.965 13.6332 181.864 12.3741C183.763 11.1151 185.993 10.4472 188.272 10.4551C191.325 10.4657 194.25 11.6876 196.403 13.8523C198.555 16.017 199.76 18.9474 199.752 21.9994Z" fill="#263238"/>
<path d="M202.732 31.0949C203.732 31.9944 204.612 29.6656 205.492 28.756C206.372 27.8465 209.202 26.6171 210.612 29.6056C212.022 32.5941 209.302 36.7821 207.182 37.7716C204.072 39.2109 202.672 36.0724 202.672 36.0724L202.342 49.066C199.062 54.9631 192.612 54.8431 191.592 57.5418C190.982 55.143 187.592 52.1545 189.812 49.5458V45.3278C188.096 45.592 186.356 45.6758 184.622 45.5777C181.792 45.1279 180.312 42.989 179.462 39.9305C178.102 35.003 177.552 26.727 179.462 17.1618C182.632 14.713 193.632 15.1628 200.282 19.3307C199.792 27.8165 201.702 30.1953 202.732 31.0949Z" fill="#FFBE9D"/>
<path d="M177.882 10.3853C177.918 10.3013 177.976 10.2283 178.05 10.1739C178.124 10.1195 178.21 10.0856 178.302 10.0755C178.443 10.0839 178.577 10.1403 178.682 10.2354C179.473 10.8708 180.316 11.4392 181.202 11.9346C180.986 10.7986 180.986 9.6323 181.202 8.49628C181.332 7.79663 181.522 6.18742 182.392 6.0175C182.902 5.90756 183.392 6.33735 183.732 6.69717C187.192 9.93557 191.732 8.43631 195.882 8.56625C199.372 8.68619 203.582 10.0955 205.152 13.4938C205.872 15.043 206.002 16.6722 204.572 17.7417C203.299 18.5978 201.843 19.1423 200.322 19.3309C193.322 20.5403 183.422 23.3989 178.322 16.9221C177.57 15.9536 177.19 14.748 177.252 13.5238C177.243 12.452 177.479 11.3923 177.942 10.4253C177.94 10.4187 177.938 10.4124 177.934 10.4068C177.93 10.4011 177.926 10.3963 177.92 10.3926C177.914 10.3888 177.908 10.3863 177.902 10.385C177.895 10.3838 177.888 10.3839 177.882 10.3853Z" fill="#263238"/>
<path d="M189.831 45.328C189.831 45.328 196.161 44.0686 198.371 42.9092C199.669 42.2358 200.738 41.1921 201.441 39.9106C201.104 41.2027 200.509 42.4131 199.691 43.4689C198.071 45.5279 189.831 47.0271 189.831 47.0271V45.328Z" fill="#F28F8F"/>
<path d="M191.322 29.1759C191.317 29.3456 191.345 29.5146 191.406 29.6732C191.466 29.8317 191.558 29.9766 191.675 30.0994C191.793 30.2222 191.933 30.3204 192.089 30.3884C192.244 30.4564 192.412 30.4927 192.582 30.4952C192.845 30.5072 193.106 30.4401 193.331 30.3026C193.556 30.1651 193.734 29.9635 193.843 29.7237C193.953 29.4839 193.987 29.217 193.943 28.9572C193.899 28.6975 193.779 28.4568 193.597 28.2663C193.415 28.0757 193.18 27.944 192.922 27.888C192.665 27.8321 192.396 27.8545 192.152 27.9523C191.907 28.0502 191.697 28.219 191.549 28.4371C191.401 28.6551 191.322 28.9125 191.322 29.1759Z" fill="#263238"/>
<path d="M191.802 24.4584L194.632 25.7177C194.792 25.3323 194.797 24.8999 194.646 24.5106C194.495 24.1214 194.2 23.8055 193.822 23.6288C193.635 23.5459 193.434 23.5016 193.23 23.4987C193.025 23.4958 192.823 23.5342 192.634 23.6118C192.445 23.6893 192.274 23.8043 192.131 23.9498C191.988 24.0953 191.876 24.2683 191.802 24.4584Z" fill="#263238"/>
<path d="M190.852 37.6221L186.852 39.1313C186.939 39.402 187.081 39.6523 187.267 39.8672C187.454 40.0821 187.682 40.2573 187.937 40.3823C188.193 40.5073 188.471 40.5795 188.755 40.5947C189.04 40.6099 189.324 40.5677 189.592 40.4707C190.127 40.2482 190.557 39.8284 190.791 39.2981C191.026 38.7679 191.048 38.1678 190.852 37.6221Z" fill="#B16668"/>
<path d="M189.551 40.4703C189.194 40.6034 188.806 40.6346 188.431 40.5602C188.462 40.0511 188.686 39.573 189.058 39.2236C189.43 38.8743 189.921 38.6803 190.431 38.6812C190.619 38.6802 190.804 38.7106 190.981 38.7711C190.915 39.1557 190.748 39.5158 190.497 39.8144C190.245 40.113 189.919 40.3394 189.551 40.4703Z" fill="#F28F8F"/>
<path d="M179.761 25.268L182.691 24.1886C182.637 23.9842 182.54 23.7936 182.407 23.6296C182.273 23.4656 182.106 23.3319 181.917 23.2373C181.728 23.1428 181.521 23.0895 181.31 23.0812C181.098 23.0729 180.887 23.1097 180.691 23.1891C180.297 23.3476 179.98 23.653 179.806 24.0408C179.633 24.4286 179.617 24.8686 179.761 25.268Z" fill="#263238"/>
<path d="M180.861 28.7564C180.871 29.0051 180.954 29.2454 181.099 29.4474C181.245 29.6495 181.446 29.8044 181.679 29.8929C181.912 29.9813 182.165 29.9995 182.408 29.945C182.651 29.8905 182.873 29.7658 183.046 29.5865C183.218 29.4071 183.334 29.181 183.379 28.9362C183.424 28.6914 183.397 28.4388 183.299 28.2098C183.202 27.9807 183.039 27.7853 182.831 27.648C182.624 27.5106 182.38 27.4372 182.131 27.437C181.961 27.4396 181.793 27.4759 181.637 27.5437C181.481 27.6115 181.339 27.7096 181.221 27.8323C181.103 27.9549 181.011 28.0997 180.949 28.2583C180.887 28.4169 180.857 28.5862 180.861 28.7564Z" fill="#263238"/>
<path d="M187.132 28.4465L186.712 35.673L182.712 34.3036L186.712 28.3666C186.856 28.3627 186.999 28.3899 187.132 28.4465Z" fill="#F28F8F"/>
<path d="M202.392 45.4082C203.202 45.4682 203.552 45.5881 204.212 46.8975C204.952 48.3867 205.592 49.7461 205.592 49.7461C205.42 51.931 204.457 53.9782 202.882 55.5032C201.308 57.1152 199.517 58.5011 197.562 59.6212C196.864 58.6749 196.085 57.7919 195.232 56.9825C194.818 56.5469 194.25 56.2913 193.649 56.2707C193.049 56.2502 192.464 56.4663 192.022 56.8725C192.391 56.0575 192.876 55.3 193.462 54.6236C193.952 54.1039 195.942 53.5042 198.662 51.795C200.379 50.6233 201.684 48.9414 202.392 46.9874V45.4082Z" fill="#FF774C"/>
<path d="M191.321 56.7925C191.224 55.704 190.822 54.665 190.161 53.7939C189.461 52.4346 189.841 51.3652 189.831 50.2157C189.821 49.0663 189.831 46.4976 189.831 46.4976C189.328 46.5008 188.841 46.6716 188.446 46.983C188.051 47.2944 187.771 47.7286 187.651 48.2167C187.071 49.646 185.861 51.4151 185.861 54.6435C185.861 57.5421 186.131 58.0818 186.131 58.0818C186.981 57.2942 187.905 56.5913 188.891 55.9829C189.097 55.8474 189.331 55.7603 189.576 55.7283C189.82 55.6963 190.069 55.7202 190.303 55.7982C190.537 55.8761 190.75 56.0061 190.926 56.1783C191.103 56.3505 191.238 56.5605 191.321 56.7925Z" fill="#FF774C"/>
<path d="M214.931 50.7456C220.541 50.7456 224.371 54.4938 228.131 60.7407C231.051 65.5683 241.951 84.0292 244.131 89.2366C246.131 93.9742 246.251 95.9333 242.751 99.2316C239.961 101.91 223.211 116.223 220.211 118.992C218.053 121.174 215.157 122.472 212.091 122.63C207.521 122.91 205.341 121.231 204.561 120.221C199.891 114.164 208.801 113.045 212.021 111.156C213.59 110.228 215.015 109.077 216.251 107.737L216.101 105.269C216.101 105.269 219.621 105.359 220.721 104.509C221.821 103.659 230.791 92.5949 230.791 92.5949L215.991 71.3354C212.971 67.8272 211.001 55.6832 214.931 50.7456Z" fill="#FFBE9D"/>
<path d="M213.992 50.7453C218.472 50.0656 222.732 51.1551 227.222 58.2516C231.712 65.3481 243.092 85.5781 244.392 88.7465C245.692 91.9149 247.572 95.2433 243.852 98.6816C240.132 102.12 236.392 105.338 236.392 105.338C235.452 102.56 231.302 97.742 227.882 96.1928L230.042 92.8645C230.042 92.8645 217.042 73.544 214.662 70.1557C212.282 66.7674 210.392 58.9812 213.992 50.7453Z" fill="#FF774C"/>
<path d="M264.64 284H255.614C255.614 284 254.234 256.64 255.614 242.637C257.554 222.947 270.274 199.259 285.444 204.826C300.614 210.393 278.494 230.433 273.564 247.135C268.634 263.837 264.64 284 264.64 284Z" fill="#FF5925"/>
<path d="M260.174 278.6C260.241 278.597 260.307 278.582 260.368 278.554C260.429 278.526 260.483 278.486 260.529 278.437C260.574 278.387 260.61 278.33 260.633 278.267C260.656 278.204 260.667 278.137 260.664 278.07C259.184 234.322 280.974 212.323 281.194 212.103C281.291 212.007 281.346 211.877 281.347 211.742C281.348 211.606 281.294 211.475 281.199 211.378C281.104 211.281 280.974 211.227 280.838 211.226C280.702 211.225 280.571 211.278 280.474 211.373C280.244 211.593 258.144 233.922 259.644 278.11C259.652 278.245 259.711 278.371 259.81 278.462C259.909 278.553 260.039 278.603 260.174 278.6Z" fill="white"/>
<path d="M270.061 284.028H264C264 284.028 263.061 268.136 269.121 253.064C274.411 239.9 287.571 229.056 294.171 231.294C300.771 233.533 300.621 238.291 297.401 243.199C294.181 248.106 274.561 259.84 270.061 284.028Z" fill="#FCE1A6"/>
<path d="M266.764 282.378C266.832 282.378 266.899 282.364 266.962 282.338C267.024 282.312 267.081 282.273 267.128 282.225C267.176 282.177 267.213 282.119 267.238 282.056C267.263 281.993 267.275 281.926 267.274 281.858C267.154 254.202 293.134 235.511 293.404 235.321C293.459 235.282 293.505 235.232 293.54 235.175C293.575 235.118 293.599 235.054 293.61 234.988C293.62 234.921 293.618 234.853 293.602 234.788C293.587 234.723 293.559 234.661 293.519 234.607C293.48 234.552 293.43 234.506 293.373 234.471C293.315 234.435 293.252 234.412 293.185 234.401C293.119 234.39 293.051 234.393 292.986 234.408C292.92 234.424 292.859 234.452 292.804 234.492C292.544 234.681 266.124 253.682 266.254 281.868C266.254 282.003 266.308 282.133 266.404 282.229C266.499 282.324 266.629 282.378 266.764 282.378Z" fill="white"/>
<path d="M34.9065 283.149L42.1965 278.931C42.1965 278.931 46.5365 260.94 44.8065 244.688C42.3765 221.88 27.3565 213.304 21.6465 215.273C15.9365 217.242 14.2765 223.869 23.7265 237.452C29.3065 245.468 36.1565 262.16 34.9065 283.149Z" fill="#FCE1A6"/>
<g opacity="0.15">
<path d="M34.9075 284.149L42.1975 279.931C42.1975 279.931 46.5375 261.94 44.8075 245.688C42.3775 222.88 27.3575 214.304 21.6475 216.273C15.9375 218.242 14.2775 224.869 23.7275 238.452C29.3075 246.468 36.1575 263.16 34.9075 284.149Z" fill="black"/>
</g>
<path d="M44.7381 264.293H44.6681C44.5357 264.269 44.4184 264.193 44.3416 264.083C44.2648 263.973 44.2348 263.836 44.2581 263.704C48.2581 242.664 40.9081 219.036 31.8081 209.191C31.7179 209.093 31.6704 208.963 31.676 208.83C31.6817 208.697 31.74 208.571 31.8381 208.481C31.9362 208.391 32.0662 208.343 32.1993 208.349C32.3325 208.355 32.4579 208.413 32.5481 208.511C41.8181 218.556 49.3081 242.544 45.2581 263.884C45.2344 264.003 45.169 264.109 45.0737 264.184C44.9784 264.26 44.8594 264.298 44.7381 264.293Z" fill="white"/>
<path d="M22.6078 284.174C21.4578 284.763 18.3978 282.175 17.5378 281.505C16.0803 280.39 14.928 278.926 14.1878 277.247C13.3694 275.337 13.1667 273.22 13.6078 271.19C13.8396 270.117 14.147 269.061 14.5278 268.032L15.5778 264.973C15.9865 263.988 16.1939 262.931 16.1878 261.865C16.0278 259.736 14.1878 258.146 12.5678 256.777C10.7478 255.268 8.86783 253.299 9.00783 250.78C9.24189 248.806 10.1288 246.966 11.5278 245.553C12.8278 244.063 14.3478 242.764 15.5278 241.195C16.4583 240.101 16.9844 238.722 17.0178 237.287C16.9472 236.405 16.6952 235.548 16.2778 234.768C15.3199 233.132 14.4972 231.42 13.8178 229.651C13.2778 227.831 13.4878 225.652 14.9478 224.413C15.5929 223.976 16.3192 223.673 17.0836 223.522C17.848 223.371 18.6349 223.375 19.3978 223.534C20.834 223.79 22.1981 224.353 23.3978 225.183C27.3378 227.641 29.3978 232.559 33.6278 234.518C35.3109 235.135 37.0309 235.645 38.7778 236.047C39.6512 236.257 40.4714 236.645 41.186 237.189C41.9005 237.733 42.4937 238.42 42.9278 239.206C44.3478 242.444 41.2178 246.202 42.1578 249.591C42.9878 252.589 45.8178 253.879 47.2978 256.637C47.9024 257.849 48.0988 259.223 47.8578 260.555C47.5907 262.815 46.9129 265.006 45.8578 267.022C44.6803 269.098 47.2779 282.255 45.8578 284.174C45.8578 284.174 22.8178 284.084 22.6078 284.174Z" fill="#FCE1A6"/>
<path d="M33.7683 278.356C33.7016 278.351 33.6366 278.333 33.5772 278.302C33.5177 278.272 33.465 278.23 33.4221 278.179C33.3792 278.127 33.3471 278.068 33.3275 278.004C33.308 277.94 33.3014 277.873 33.3083 277.807C35.1483 257.816 26.8183 235.188 20.3083 228.411C20.2349 228.311 20.2003 228.188 20.211 228.065C20.2216 227.942 20.2767 227.827 20.3661 227.741C20.4554 227.655 20.5729 227.605 20.6966 227.6C20.8203 227.594 20.9417 227.634 21.0383 227.711C27.7183 234.628 36.2283 257.607 34.3483 277.897C34.3422 277.965 34.3221 278.032 34.2892 278.093C34.2564 278.154 34.2115 278.208 34.1572 278.251C34.1029 278.294 34.0404 278.326 33.9736 278.344C33.9067 278.362 33.8369 278.366 33.7683 278.356Z" fill="white"/>
<path d="M31.8177 253.689H31.6677C26.9734 252.116 22.1213 251.06 17.1977 250.54C17.064 250.527 16.9408 250.463 16.8547 250.36C16.7686 250.257 16.7265 250.124 16.7377 249.99C16.7413 249.923 16.7587 249.858 16.7888 249.797C16.8189 249.737 16.861 249.684 16.9126 249.641C16.9642 249.598 17.0241 249.566 17.0887 249.547C17.1532 249.528 17.2209 249.522 17.2877 249.531C22.2835 250.043 27.209 251.095 31.9777 252.669C32.0433 252.682 32.1059 252.707 32.1618 252.743C32.2177 252.78 32.2658 252.827 32.3034 252.883C32.341 252.938 32.3673 253 32.3809 253.065C32.3946 253.131 32.3951 253.198 32.3827 253.264C32.3702 253.329 32.3449 253.392 32.3082 253.448C32.2716 253.504 32.2243 253.552 32.169 253.589C32.1138 253.627 32.0517 253.653 31.9862 253.667C31.9208 253.68 31.8533 253.681 31.7877 253.669L31.8177 253.689Z" fill="white"/>
<path d="M110.074 89.103L100.909 89.0694C101.111 88.8032 101.299 88.5265 101.472 88.2406L102.627 86.2532C104.682 82.7192 103.035 79.8422 98.9495 79.8256C97.1613 79.8675 95.4037 80.2973 93.7983 81.0853C95.8792 76.3524 93.3512 72.6628 87.6934 72.6451C81.5743 72.6252 74.1278 76.8976 71.0532 82.1857L69.3651 85.089C68.6385 86.2594 68.1905 87.5812 68.0558 88.9524L60.4497 88.9234C59.216 88.9886 58.0148 89.3423 56.9428 89.9559C55.8709 90.5695 54.9579 91.4261 54.2773 92.4567C53.1369 94.4181 54.0579 96.0173 56.3201 96.0261L105.963 96.1934C107.196 96.1294 108.397 95.7757 109.468 95.1609C110.539 94.5462 111.45 93.6877 112.126 92.655C113.248 90.7059 112.336 89.1117 110.074 89.103Z" fill="#FFE9DC"/>
<path d="M289.074 32.103L279.909 32.0694C280.111 31.8032 280.299 31.5265 280.472 31.2406L281.627 29.2532C283.682 25.7192 282.035 22.8422 277.949 22.8256C276.161 22.8675 274.404 23.2973 272.798 24.0853C274.879 19.3524 272.351 15.6628 266.693 15.6451C260.574 15.6252 253.128 19.8976 250.053 25.1857L248.365 28.089C247.639 29.2594 247.191 30.5812 247.056 31.9524L239.45 31.9234C238.216 31.9886 237.015 32.3423 235.943 32.9559C234.871 33.5695 233.958 34.4261 233.277 35.4567C232.137 37.4181 233.058 39.0173 235.32 39.0261L284.963 39.1934C286.196 39.1294 287.397 38.7757 288.468 38.1609C289.539 37.5462 290.45 36.6877 291.126 35.655C292.248 33.7059 291.336 32.1117 289.074 32.103Z" fill="#FFE9DC"/>
<path d="M53.7648 22.0137L59.2181 21.1237L63.7849 12.6395C67.4043 5.91554 76.9689 0.995542 84.6077 0.771262C92.2466 0.546981 95.52 5.81648 91.8959 12.5493L91.2327 13.7814C93.5227 12.4519 96.0892 11.6696 98.732 11.4956C104.235 11.3362 106.577 15.1283 103.962 19.9865L103.659 20.5498L110.703 20.3343C114.316 20.2248 115.865 22.7272 114.15 25.9132C113.121 27.5962 111.71 29.0134 110.032 30.0502C108.353 31.087 106.454 31.7142 104.487 31.8812L47.527 33.5599C43.9134 33.6694 42.3597 31.1758 44.0794 27.981C45.1096 26.2941 46.5238 24.8744 48.2068 23.8375C49.8898 22.8005 51.7942 22.1756 53.7648 22.0137Z" fill="#FFE9DC"/>
</svg>
