<svg width="143" height="142" viewBox="0 0 143 142" fill="none" xmlns="http://www.w3.org/2000/svg">
<path d="M104.981 104.211C104.692 103.483 104.22 102.843 103.609 102.356C102.927 101.696 102.267 101.008 101.591 100.342C101.016 99.7012 100.398 99.1018 99.7391 98.5479C99.1661 98.1244 98.9186 98.435 98.4001 98.854C96.9226 100.037 95.3169 101.108 93.8974 102.347C92.5236 103.627 90.9983 104.734 89.3562 105.641C88.6229 105.983 87.8711 106.284 87.1046 106.541C86.357 106.869 85.6328 107.249 84.9372 107.678C84.198 108.05 83.4272 108.355 82.6343 108.588C82.2824 108.691 81.9382 108.819 81.6045 108.972C81.34 109.111 81.1159 109.354 80.7946 109.277C80.4733 109.199 80.4724 108.845 80.2619 108.677C80.0515 108.509 79.9281 108.563 79.6471 108.578C79.4068 108.571 79.1669 108.611 78.9409 108.695C78.5411 108.906 78.5966 109.283 78.3335 109.549C77.903 109.993 76.6181 109.999 76.0382 110.053C75.2167 110.131 74.3958 110.257 73.5896 110.362C72.2251 110.547 70.4055 110.867 69.0616 110.456C68.4882 110.278 68.787 109.676 68.2524 109.457C68.0065 109.362 67.6143 109.437 67.3478 109.4C66.8453 109.344 66.3485 109.258 65.849 109.199C65.4646 109.156 65.1826 109.086 64.8525 109.304C64.5223 109.523 64.3986 109.822 63.9484 109.846C63.313 109.842 62.7066 109.591 62.2566 109.147C61.7502 108.734 61.9514 109.156 61.3894 109.468C60.7523 109.819 59.9353 109.483 59.287 109.363C58.9355 109.292 58.5674 109.36 58.2311 109.298C57.8471 109.171 57.4709 109.023 57.1045 108.853C56.2943 108.582 55.4572 108.34 54.6295 108.136C53.8019 107.933 53.076 107.906 52.5571 107.182C52.3053 106.83 52.3069 106.706 51.8491 106.586C51.5041 106.544 51.1648 106.466 50.8367 106.353C50.5453 106.178 50.2726 105.974 50.0227 105.744C49.6144 105.48 49.1897 105.243 48.7511 105.033C48.012 104.628 47.2584 104.281 46.5104 103.897C46.2042 103.712 45.9267 103.484 45.6866 103.219C45.381 102.923 44.9229 102.784 44.6024 102.504C44.2819 102.223 44.1634 101.899 43.8914 101.636C43.5867 101.404 43.2429 101.229 42.8759 101.119C42.5257 100.961 42.2199 100.721 41.9854 100.417C41.846 100.274 41.7254 100.112 41.6263 99.9381C41.6 99.7451 41.8122 99.52 41.7883 99.2695C41.7137 98.8084 41.2793 98.6209 40.9498 98.3556C40.2725 97.8542 39.7449 97.1778 39.4226 96.3979C39.2011 95.7765 39.1241 95.0917 38.4734 94.7606C38.1542 94.6663 37.8825 94.4565 37.7111 94.1718C37.4409 93.7964 37.1858 93.4237 36.9516 93.0234C36.5019 92.2648 36.1006 91.5172 35.633 90.7831C35.1653 90.049 34.8052 89.1917 34.2956 88.4947C33.9304 88.0034 33.1024 87.7577 32.9956 87.1219C32.9086 86.6368 33.2221 86.2765 33.0233 85.7968C32.6346 85.0619 32.1944 84.3557 31.7061 83.6834C31.5156 83.4259 31.4022 83.119 31.3789 82.7982C31.2883 82.0101 31.0843 81.2404 30.7732 80.5127C30.5667 79.876 30.2391 79.2297 30.0808 78.5859C30.0079 78.2759 30.0742 77.9812 30.0161 77.6498C29.9268 77.2284 29.6414 77.1194 29.3961 76.8101C29.1508 76.5007 28.7447 75.5809 28.8372 75.1979C28.9851 74.6233 30.0982 74.9417 29.8361 74.2033C29.7362 73.9151 29.4816 73.86 29.4684 73.4883C29.4868 73.2322 29.5337 72.9787 29.6082 72.7324C29.7176 71.9591 28.8514 71.8199 28.7495 71.0752C28.5913 69.8871 30.0736 69.1394 30.003 67.9464C29.9815 67.6385 29.7856 67.4188 29.7431 67.1324C29.7633 66.7294 29.8404 66.3308 29.972 65.9483C30.1604 65.1472 30.2729 64.3308 30.308 63.5101C30.3424 62.7721 30.5499 62.051 30.9137 61.4049C31.0861 61.0712 31.226 60.7219 31.3315 60.362C31.4161 60.079 31.5294 59.112 31.7755 58.9496C32.3879 58.5437 32.1267 59.8101 32.1104 59.9859C32.0078 60.8196 32.1018 61.6703 31.9627 62.4988C31.8722 63.0631 31.3117 63.7824 31.5416 64.34C31.7715 64.8977 32.4667 64.8831 32.0647 65.4449C31.9158 65.6537 31.6081 65.7145 31.5111 65.9675C31.4141 66.2205 31.5039 66.6843 31.4853 66.9176C31.4189 67.7566 31.3708 68.6013 31.2924 69.4466C31.1922 70.5041 31.1645 71.5665 31.2095 72.6264C31.2533 73.5841 31.1502 74.6567 31.3599 75.5836C31.5095 76.2609 31.9359 76.8235 32.0522 77.4984C32.1685 78.1733 32.2722 78.8062 32.4488 79.4738C32.6255 80.1414 32.7749 81.0817 32.4705 81.714C32.0536 82.5725 32.4674 82.5366 33.1263 83.0611C34.1083 83.8328 34.2249 85.3635 34.7537 86.432C35.0876 87.1084 35.4457 87.7722 35.7794 88.4305C37.0335 90.8415 38.6299 93.0458 40.2082 95.2505C40.7272 95.9805 41.4225 96.5284 42.0015 97.2088C42.5068 97.8 42.889 98.4633 43.7457 98.5633C43.1532 97.6704 42.4627 96.8472 41.687 96.1086C41.0112 95.4121 39.9733 94.7837 39.6764 93.9039C39.4743 93.481 39.2351 93.0772 38.9617 92.6972C38.7547 92.2993 38.9132 91.8666 38.7398 91.4953C38.5664 91.1239 37.8689 90.6517 37.584 90.3159C37.2268 89.8544 36.9108 89.3622 36.6396 88.8449C36.1002 87.8169 35.6241 86.7564 35.2139 85.6694C35.0597 85.2239 34.8741 84.7903 34.6584 84.3716C34.3284 83.7828 34.2151 83.6491 34.3257 82.9846C34.3852 82.6235 34.268 82.6834 34.2101 82.3701C34.1522 82.0569 34.2779 81.9393 34.0782 81.6441C33.8784 81.3489 33.4796 81.1003 33.7858 80.6252C33.8886 80.4915 34.0172 80.3797 34.1639 80.2966C34.3105 80.2135 34.4722 80.1608 34.6391 80.1416C34.2539 80.3069 33.3748 79.8203 33.1687 79.5011C32.7136 78.803 32.8669 77.6295 32.7767 76.8482C32.6998 76.1755 32.3695 75.5625 32.3166 74.8772C32.2881 74.4787 32.4692 74.1755 32.4954 73.8121C32.5233 73.3307 32.2652 72.6799 32.2296 72.1847C32.1417 70.5425 32.1832 68.8946 32.3537 67.2562C32.3998 66.7745 32.4519 66.2865 32.5162 65.8105C32.535 65.5386 32.6028 65.2718 32.7161 65.0231C32.7755 64.919 33.0958 64.6311 33.1072 64.5704C33.1187 64.5097 32.8967 64.1212 32.8767 63.9523C32.7797 63.1046 33.2577 62.0362 33.4604 61.2216C33.7585 60.1089 34.1209 59.0139 34.546 57.9422C34.9074 56.9667 35.328 56.0137 35.8056 55.0885C36.0293 54.6981 36.3417 54.3652 36.717 54.1169C36.9924 53.8632 36.9203 53.9071 36.8466 53.5246C36.7622 53.0002 36.8346 52.9866 37.1227 52.5179C37.488 51.9206 37.6834 51.2664 38.0881 50.6773C39.2605 48.9655 40.3279 47.0563 41.8727 45.6632C42.7917 44.8306 43.6343 43.9179 44.5257 43.0526C45.4172 42.1873 46.3587 41.4781 47.2599 40.67C47.5054 40.4532 48.1371 40.1618 48.2396 39.8603C48.38 39.428 47.9614 39.3098 47.8579 38.9642C47.6416 38.2641 49.3175 37.5306 48.9569 38.8323C49.8036 38.8388 50.2847 38.3238 50.96 37.8712C51.5543 37.4778 52.5513 37.1394 52.9284 36.5116C51.9245 36.5084 50.9952 38.0549 49.9578 37.744C49.6393 37.6508 49.2172 37.2061 49.4188 36.8451C49.5462 36.6096 50.2062 36.4113 50.4363 36.1676C51.2503 35.4228 52.2058 34.8503 53.2447 34.4851C53.672 34.3007 54.1384 34.3757 53.9664 33.8561C53.8226 33.4297 53.4205 33.4291 53.8149 32.9975C54.1557 32.6456 54.8576 32.4163 55.2843 32.1775C55.8221 31.873 56.2681 31.4615 56.7846 31.1422C57.2575 30.919 57.7686 30.7902 58.2891 30.763C58.8413 30.6513 59.3757 30.462 59.8763 30.2007C60.7814 29.7554 61.9519 28.9689 62.983 28.9806C63.4006 29.0299 63.8207 29.0575 64.2416 29.0632C64.8126 29.018 65.3763 28.8701 65.9498 28.7855C66.5233 28.701 67.0409 28.7537 67.5875 28.6969C68.1342 28.6401 68.6905 28.3654 69.27 28.2746C70.2993 28.1632 71.3384 28.2253 72.3438 28.4583C72.7855 28.5643 73.2387 28.6178 73.694 28.6176C74.1624 28.5987 74.5975 28.2963 75.0645 28.4256C75.3919 28.5095 75.6279 28.7979 75.9906 28.7843C76.2505 28.7788 76.3393 28.6076 76.5624 28.5486C76.9934 28.4277 77.0567 28.6803 77.4188 28.8875C77.7808 29.0946 78.4216 29.0752 78.6738 29.469C78.9261 29.8629 78.5476 30.3637 78.6008 30.8041C78.6541 31.2445 78.8934 31.2909 79.322 31.5027C79.6167 31.6326 79.8865 31.6965 79.8023 32.0097C79.6892 32.4505 78.9922 32.577 79.1291 33.2001C79.2723 33.6204 79.5744 33.9667 79.9711 34.1652C80.3933 34.3409 80.8932 34.1611 81.3294 34.2366C81.7656 34.3122 82.1326 34.6916 82.5635 34.8337C82.7486 34.8934 82.9474 34.8227 83.1509 34.9122C83.3545 35.0017 83.448 35.2598 83.6636 35.3429C83.9946 35.4721 84.4706 35.3231 84.8375 35.4212C85.7202 35.6779 86.8915 36.8963 87.2557 35.3707C87.3195 35.1274 87.2873 34.3963 87.7698 34.5525C88.1551 34.6745 87.9073 35.2421 87.9256 35.523C87.9438 35.8038 88.1265 36.4713 88.5613 36.4199C88.9961 36.3685 89.3111 35.3217 89.1475 35.0197C88.9346 34.628 88.2219 34.4282 87.8478 34.2274C87.3642 33.9683 86.9254 33.657 86.4656 33.3551C86.0248 32.9963 85.4874 32.7752 84.9197 32.7192C84.6657 32.7184 84.3315 32.8494 84.0922 32.803C83.8454 32.911 83.7206 32.8319 83.7208 32.5749C83.6483 32.4334 83.5422 32.312 83.4116 32.2215C82.7443 31.7547 81.2707 32.1937 81.664 30.8459C81.7778 30.4716 82.0712 29.9363 82.5095 29.9241C82.6964 29.8778 82.944 30.1176 83.057 30.2271C83.2472 30.3604 83.4258 30.5094 83.591 30.6726C83.6268 30.7723 83.6312 30.8809 83.6035 30.9838C83.7665 31.2313 83.4959 31.0949 83.7305 31.2563C83.8706 31.3501 84.0697 31.3097 84.2175 31.2794C84.6489 31.1887 84.9026 30.8961 85.3645 31.1042C85.7473 31.2776 85.8172 31.8598 86.1483 32.001C86.3428 32.0877 86.5317 31.9416 86.731 31.9193C86.9894 31.8904 87.2504 31.9255 87.491 32.0213C89.0657 32.5297 90.3877 33.4213 91.8262 34.1926C94.1617 35.5129 96.3486 37.0778 98.3507 38.8611C99.4157 39.7948 100.367 40.8506 101.185 42.0072C101.698 42.7011 102.476 43.1202 102.944 43.8604C103.252 44.3498 103.377 44.9853 103.808 45.4147C104.348 45.9387 104.868 46.1546 105.26 46.8631C105.414 47.1501 106.009 48.2172 105.166 47.9687C104.896 47.8867 104.519 47.187 104.314 46.9584C103.883 46.4806 103.478 45.9871 103.023 45.5279C102.069 44.556 101.157 43.547 100.182 42.5906C99.1008 41.5806 97.9692 40.6263 96.7912 39.7314C96.2817 39.3217 95.7723 38.912 95.245 38.5209C94.9005 38.265 94.3439 37.6839 93.8698 37.7392C93.6554 37.7649 93.5011 38.0281 93.2986 38.0354C93.0961 38.0426 92.8573 37.7694 92.6956 37.6367C92.1991 37.2348 91.6492 36.9034 91.0612 36.6519C91.1938 37.4444 91.7526 37.3934 92.1933 37.874C92.6339 38.3547 92.1399 38.7914 92.2848 39.3266C92.3638 39.4949 92.4787 39.6437 92.6215 39.7624C92.7643 39.8811 92.9316 39.9669 93.1117 40.0139C93.6922 40.289 93.9872 40.7183 94.4786 41.1344C95.0523 41.5625 95.6567 41.9481 96.2872 42.288C96.9155 42.7105 97.4895 43.2082 97.9966 43.7703C98.2306 43.9713 98.4023 44.235 98.4917 44.531C98.577 44.8649 98.5198 45.1564 98.7317 45.4573C99.1001 45.9637 99.7991 46.0186 100.354 46.1613C101.652 46.4849 102.359 48.1574 103.006 49.2204C103.18 49.5156 103.371 49.8003 103.578 50.0733C103.724 50.3013 103.857 50.5378 103.975 50.7816C104.162 51.0104 104.381 51.2106 104.626 51.3758C104.902 51.6411 105.117 51.9622 105.259 52.3182C106.638 54.9459 107.769 57.6979 108.639 60.539C110.799 68.0092 110.753 75.9653 108.507 83.4538C108.166 84.5586 107.736 85.5957 107.303 86.6661C107.179 87.1108 107.031 87.5489 106.861 87.9787C106.704 88.2632 106.403 88.3662 106.233 88.6268C106.064 88.8874 106.148 89.1426 106.102 89.3734C105.82 90.068 105.477 90.7369 105.078 91.3724C104.791 91.9137 104.335 92.8243 103.627 92.7242C103.898 93.7164 102.871 94.9837 102.186 95.6301C101.501 96.2764 99.2429 97.14 99.6679 98.3891C99.8708 98.9685 100.739 99.54 101.17 99.9634C101.741 100.517 102.31 101.067 102.881 101.621C103.144 101.876 103.672 102.584 104.123 102.387C104.574 102.19 104.778 101.228 105.146 100.836C105.402 100.649 105.645 100.444 105.871 100.222C106.023 99.992 105.998 99.6689 106.079 99.3951C106.382 98.7566 106.731 98.1408 107.123 97.5528C107.222 97.291 107.381 97.0554 107.587 96.8651C107.793 96.6748 108.04 96.5353 108.309 96.4576C108.962 96.1748 109.235 95.5008 109.519 94.8901C109.802 94.2794 110.265 93.7043 110.584 93.0807C110.937 92.387 111.162 91.6716 111.571 91.0039C111.914 90.4709 112.138 89.8709 112.226 89.2454C112.291 88.7753 112.104 87.7209 112.563 87.3938C112.701 87.2941 112.911 87.4077 113.069 87.2864C113.318 87.1089 113.433 86.2991 113.515 86.0313C113.695 85.2458 113.968 84.4838 114.328 83.7615C114.648 83.2407 115.432 83.0368 115.413 82.3599C115.404 82.0819 115.157 81.8845 115.253 81.6073C115.35 81.3301 115.757 81.2097 116.016 81.1015C116.221 82.1676 115.957 83.6942 115.73 84.7663C115.609 85.3253 115.19 85.9902 115.284 86.5658C115.404 87.3525 115.849 86.8201 116.004 86.3663C116.616 84.581 117.106 82.7573 117.471 80.9077C117.571 80.4369 117.648 79.9606 117.767 79.4954C117.886 79.0303 118.098 78.0219 118.753 78.2018C119.184 78.3137 119.062 78.7578 119.065 79.1024C119.069 79.4471 119.191 79.7741 119.037 80.122C118.884 80.47 118.688 80.4832 118.604 80.8145C118.568 81.0856 118.561 81.3594 118.582 81.6314C118.614 82.3085 118.572 82.9876 118.457 83.657C118.291 84.3227 118.007 84.8306 118.036 85.5467C118.371 85.3892 118.663 85.1527 118.887 84.8576C118.996 84.6164 118.843 84.42 118.886 84.1863C118.928 83.9526 119.168 83.7722 119.268 83.504C119.444 83.0286 119.09 82.3919 119.051 81.8938C119.006 81.1387 119.284 80.8154 119.765 80.2883C120.246 79.7611 119.822 79.7458 119.752 79.1395C119.695 78.6175 120.309 78.3265 120.436 77.8219C120.77 76.118 120.902 74.3827 120.83 72.6519C120.863 71.0902 120.781 69.5294 120.585 67.982C120.465 67.2195 120.323 66.4605 120.173 65.7046C119.934 64.8825 119.745 64.0463 119.607 63.2006C119.548 62.5456 119.648 61.9357 119.552 61.2634C119.473 60.6267 119.359 59.9951 119.211 59.3715C119.042 58.6896 118.871 58.0068 118.696 57.323C118.65 57.0655 118.585 56.8121 118.5 56.5651C118.23 55.9206 117.624 56.0935 117.828 55.3756C118.171 54.1589 117.113 52.8051 116.669 51.6805C115.713 49.22 114.423 46.9057 112.835 44.8027L112.194 43.9603C111.921 43.5212 111.69 43.0573 111.504 42.5747C111.177 42.0545 110.768 41.5913 110.292 41.203C109.748 40.6767 109.269 40.0867 108.867 39.4456C108.027 38.1841 106.736 37.31 105.914 36.0238C105.522 35.4605 105.034 34.9713 104.471 34.5784C103.843 34.0774 103.259 33.4758 102.589 33.0302C102.068 32.6873 101.282 32.7097 100.908 32.2095C100.681 31.9119 100.601 31.5174 100.365 31.2109C100.092 30.9044 99.7808 30.6336 99.4398 30.4047C98.6248 29.7425 97.7711 29.1293 96.883 28.5683L94.8014 27.3357C94.6462 27.2452 94.4939 27.1395 94.3327 27.0552C93.8523 26.8112 92.9559 26.954 93.0906 27.6466C93.2868 28.114 93.5536 28.5479 93.8817 28.9334C94.1037 29.0467 94.4217 28.8223 94.6178 28.7849C94.8849 28.7605 95.1509 28.8333 95.3668 28.99C95.9269 29.3291 96.2018 29.8586 96.8631 30.0564C97.1816 30.1496 97.4078 30.1055 97.6135 30.3885C97.8192 30.6715 97.7057 31.076 97.9527 31.2613C98.105 31.367 98.415 31.2366 98.5969 31.2872C98.8205 31.3505 99.0258 31.4653 99.1962 31.6224C99.4951 31.852 100.14 32.2075 100.256 32.577C100.286 32.7838 100.261 32.9953 100.185 33.1909C100.109 33.3864 99.9831 33.5594 99.8207 33.6928C99.3485 33.9234 98.6049 33.1135 98.1648 32.9563C97.4454 32.6962 97.2404 32.7489 96.8702 32.0793C96.6821 31.7774 96.4231 31.5265 96.1154 31.3481C95.5028 30.9043 94.8365 30.5282 94.1823 30.1457C93.5225 29.7677 92.8414 29.4276 92.1424 29.127C91.4891 28.8352 91.0628 28.2847 90.3358 28.1548C89.7208 28.0437 88.799 28.3472 88.2434 28.138C87.6878 27.9289 88.2652 27.3756 88.4904 26.9596C88.7156 26.5437 89.019 26.0837 89.5537 26.0453C89.7108 26.036 90.2211 26.2491 90.3561 26.1586C90.4912 26.0681 90.4561 25.3521 90.4093 25.2231C89.9645 24.0863 87.4138 23.9129 86.5065 24.4338C85.7283 24.8764 86.5538 24.8864 86.9784 25.0106C87.2709 25.0911 87.5241 25.2733 87.693 25.5246C87.8619 25.7758 87.9355 26.0798 87.9006 26.3823C87.705 27.2935 86.8509 27.1602 86.1761 27.1048C85.5013 27.0493 84.6466 27.1367 84.0454 26.9074C83.4443 26.678 83.4274 25.9678 83.0592 25.4796C82.8751 25.2355 82.5758 25.2387 82.428 24.9938C82.234 24.6683 82.5326 24.6046 82.8302 24.4502C83.1278 24.2958 83.4528 24.1559 83.7658 24.0284C84.0789 23.9009 84.8271 24.0274 84.9556 23.6195C85.312 22.4872 81.9872 22.85 81.5429 22.8623C80.8507 22.8798 80.0171 22.9517 79.4229 22.5377C78.8288 22.1238 78.6101 21.7504 77.7715 21.656C77.2025 21.5953 76.5687 21.4302 76.0033 21.4269C75.2898 21.4237 75.3134 21.9191 74.8027 22.2201C74.4212 22.4488 73.1631 22.6898 72.7589 22.4956C72.0811 22.1681 72.5669 21.2629 71.9948 20.9241C71.5597 20.6761 70.4943 20.8405 70.011 20.8809C69.1985 20.9553 68.3929 21.1082 67.581 21.2371C67.0376 21.3089 66.0937 21.2561 65.6317 21.5802C65.3407 21.7828 65.2977 21.9984 64.9273 22.1362C64.6594 22.2416 64.3693 22.2537 64.1075 22.3711C63.8534 22.6334 63.3094 21.5501 63.1453 21.4749C62.887 21.3564 62.158 21.5954 61.8954 21.6341C61.4426 21.7041 60.9898 21.768 60.5404 21.8651C59.9372 21.9986 59.3435 22.1713 58.7435 22.326C56.1965 23.0013 53.6872 23.8159 51.2269 24.7661C49.7426 25.3263 48.5384 26.3494 47.1252 27.0563C45.712 27.7632 44.2732 28.3436 42.9688 29.3234C42.3151 29.8148 41.6951 30.3509 41.0752 30.887C40.566 31.321 39.9055 31.7461 39.531 32.3345C39.3291 32.6653 39.4661 33.5756 39.2231 33.7531C38.8722 34.0114 38.5483 33.4225 38.1007 33.6889C37.5776 34.0443 37.2014 34.5784 37.0439 35.1896C36.8567 36.0312 37.2191 35.9994 37.7198 36.4425C38.001 36.7148 37.9595 37.0634 38.4468 36.8355C38.6829 36.6704 38.8981 36.477 39.0874 36.2597L39.8089 35.6066C39.9972 35.4121 40.5197 34.8116 40.7791 34.7517C41.7291 34.5353 40.4433 35.8322 40.2848 35.9958C39.7467 36.5513 39.2086 37.1069 38.6705 37.6624C38.1314 38.1885 37.5351 38.6524 36.8929 39.0452C35.6536 39.8967 34.597 41.4156 33.6971 42.6137C32.7972 43.8118 32.174 45.1523 31.3562 46.3941C29.7444 48.8348 28.8342 51.5723 27.739 54.2562C27.3417 55.2352 27.1687 56.276 26.7591 57.2492C26.5737 57.7482 26.4911 58.2787 26.5163 58.8086C26.4371 59.4965 26.3174 60.1796 26.1578 60.8542C26.0226 61.4038 25.7886 61.9251 25.4673 62.3926C25.1027 63.0564 25.285 63.4125 25.3135 64.0741C25.2588 64.5419 25.1334 64.9992 24.9414 65.4305C24.755 66.0755 24.9883 66.6724 24.9472 67.3325C24.9061 67.9925 24.6764 68.5537 24.5834 69.1695C24.4904 69.7853 24.724 70.4064 24.7555 71.071C24.8263 72.5572 24.7911 74.0306 24.9617 75.5178C25.1322 77.005 25.4318 78.4018 25.7045 79.8264C25.9162 80.9348 26.2908 82.0095 26.602 83.0886C26.8001 83.7769 27.007 84.45 27.2624 85.122C27.7919 86.5321 28.2497 88.0285 28.8995 89.3817C29.2214 90.0583 29.4741 90.7637 29.7267 91.469C29.9047 91.9824 30.4476 92.9568 30.0907 93.4965C29.8468 93.8584 30.1134 93.6381 29.763 93.6636C29.5832 93.6487 29.4072 93.6055 29.2415 93.5354C28.9594 93.4177 28.7326 93.198 28.6059 92.9197C28.2299 92.2684 27.9587 91.5332 27.622 90.878C26.9548 89.5977 26.6553 88.2069 26.2228 86.8189C26.0314 86.1789 25.7225 85.5866 25.5219 84.9437C25.3214 84.3007 25.5198 83.6555 25.4011 83.0321C25.3682 82.7807 25.2742 82.5418 25.1274 82.3362C24.9924 82.1576 24.6647 82.0496 24.6079 81.833C24.5511 81.6165 24.7855 81.4907 24.8768 81.268C24.9604 80.9405 24.9577 80.5977 24.8689 80.2733C24.6619 79.0499 23.522 78.215 23.5259 76.9207C23.5192 76.316 23.9728 75.7744 23.8243 75.1878C23.7515 74.896 23.534 74.6375 23.4492 74.352C23.356 73.9636 23.3 73.5668 23.282 73.1671C23.1743 72.4749 23.1071 71.7766 23.0806 71.0757C23.1395 70.292 23.2409 69.5116 23.3844 68.738C23.5735 67.1979 23.6101 65.6443 23.4936 64.1001C23.447 63.547 23.5256 62.9893 23.7236 62.4684C23.9149 62.1431 24.1244 61.8288 24.3512 61.527C24.5877 61.0382 24.2147 60.9341 24.1765 60.4843C24.2342 60.1197 24.3274 59.7612 24.4549 59.4141C24.6793 58.3692 24.9894 57.4253 25.3016 56.4058C25.4681 55.8731 25.4947 55.2708 25.7069 54.7644C25.9421 54.1608 26.5653 54.1961 26.5403 53.5737C26.4781 52.3171 27.028 51.4559 27.7693 50.4153C28.2131 49.8612 28.5958 49.261 28.9106 48.6255C29.2316 47.8477 29.7847 47.2767 30.1997 46.5241C30.9052 45.2514 31.5321 43.9683 32.3197 42.7332C33.2143 41.3265 34.1544 39.934 35.1464 38.5919C35.3103 38.3737 35.8489 37.8666 35.3661 37.6801C34.8834 37.4936 34.5713 38.2622 34.4381 38.516C34.1094 39.1488 33.5475 39.1847 33.0565 39.6244C32.4726 40.1416 32.33 40.9187 31.9865 41.579C31.3206 42.8781 29.9913 43.7979 29.2912 45.0161C28.1223 47.1476 27.1001 49.3553 26.2316 51.6237C25.39 53.7157 24.1386 55.6681 23.5094 57.8403C22.8665 59.8705 22.4078 61.9528 22.1387 64.0619C22.0176 65.5985 22.0356 67.1415 22.1925 68.6722C22.2488 69.3967 22.3112 70.1212 22.3555 70.846C22.3551 71.153 22.3961 71.4583 22.4773 71.7536C22.5741 72.0328 22.8486 72.2508 22.8912 72.5493C22.9326 73.0141 22.3733 73.8423 22.2608 74.3315C22.0914 75.0473 22.0373 75.7844 22.1004 76.515C22.2207 77.8279 22.6305 79.0803 22.8352 80.3733C23.0838 81.8105 23.4839 83.2747 23.8382 84.7007C24.1926 86.1266 24.856 87.3495 24.9503 88.7687C24.9693 89.1221 24.9181 89.4135 25.16 89.6957C25.3254 89.8918 25.5952 89.9557 25.7549 90.1762C26.1644 90.9026 26.4624 91.6873 26.6391 92.5042C26.7683 93.1723 26.9828 93.8203 27.2771 94.4322C27.4434 94.7069 27.7176 94.8947 27.8868 95.1603C28.0811 95.5579 28.2327 95.9754 28.3389 96.4058C28.4184 96.6684 28.5319 96.9191 28.6767 97.1517C28.9039 97.4735 29.2559 97.5871 29.4889 97.8786C29.8891 98.5182 30.2237 99.197 30.4877 99.9049C30.7044 100.36 31.1167 100.735 31.2851 101.204C31.5003 101.807 31.2108 102.149 31.9029 102.4C32.3446 102.522 32.7455 102.757 33.0654 103.084C33.3221 103.332 33.588 103.59 33.8716 103.811C34.4181 104.292 34.932 104.838 35.5112 105.273C35.7766 105.482 36.0896 105.624 36.3399 105.842C36.6878 106.138 36.7071 106.515 36.9794 106.815C37.1475 106.978 37.5777 107.059 37.7692 107.149C38.0947 107.294 38.4097 107.461 38.712 107.649C39.3347 108.067 39.9341 108.518 40.5076 109C41.5841 109.839 42.7084 110.623 43.8176 111.416C45.6155 112.677 47.5644 113.709 49.6201 114.488C51.1269 114.988 52.598 115.588 54.0238 116.283C55.1977 116.906 56.7722 117.115 58.063 117.378C60.091 117.832 62.1492 118.144 64.2229 118.314C65.9687 118.431 67.6178 118.276 69.3527 118.228C70.6554 118.191 72.0055 118.344 73.3149 118.368C74.1828 118.384 76.1339 118.198 76.6118 119.043C77.1899 118 78.6829 117.676 79.7614 117.59C80.348 117.521 80.9392 117.645 81.4462 117.941C81.9175 118.183 81.7797 118.019 82.156 117.6C82.556 117.217 83.0772 116.987 83.6273 116.949C84.2581 116.849 84.8141 117.094 85.42 116.933C85.9425 116.732 86.4408 116.472 86.905 116.158C87.1847 116.016 87.5351 115.991 87.8085 115.837C88.0414 115.684 88.2485 115.495 88.4222 115.277C88.8889 114.832 89.5827 114.69 90.1755 114.433C90.8945 114.1 91.5825 113.708 92.2983 113.36C92.5612 113.211 92.8427 113.097 93.135 113.022C93.473 112.961 93.6708 113.081 93.9915 113.098C94.6839 113.105 94.2467 112.657 94.6379 112.492C94.9448 112.358 95.1754 112.983 95.548 112.775C95.7074 112.696 95.7609 112.341 95.8682 112.2C96.0925 111.944 96.389 111.761 96.7181 111.677C97.3389 111.495 97.9259 111.537 98.3672 110.978C98.8403 110.328 99.4691 109.807 100.195 109.464C100.889 109.114 101.466 108.567 101.853 107.893C102.173 107.324 102.132 106.644 102.761 106.344C103.096 106.262 103.42 106.134 103.721 105.964C104.013 105.664 104.337 105.395 104.686 105.164C105.32 104.833 105.187 104.799 104.983 104.135M93.8273 38.5475L93.8735 38.353C94.0979 38.4088 93.8901 38.4827 93.8273 38.5475ZM103.971 99.8171L103.934 100.027C103.664 99.9566 103.656 99.7572 103.971 99.8171ZM105.375 96.1107C105.657 96.7247 104.109 96.751 104.81 95.8322C104.944 95.651 105.365 95.2038 105.572 95.5472C105.713 95.774 105.273 95.8558 105.375 96.1107ZM109.234 89.8643C108.883 90.5974 108.55 91.3311 108.233 92.0655C107.938 92.7127 107.713 93.7093 106.897 93.7263C106.362 93.7345 106.212 93.5955 106.358 93.0965C106.422 92.8654 106.639 92.2923 106.879 92.3629C107.274 91.4354 107.69 90.5407 108.17 89.6537C108.333 89.351 108.464 88.9037 108.895 88.9915C108.979 89.0208 109.056 89.068 109.119 89.1299C109.183 89.1918 109.233 89.2669 109.265 89.3501C109.297 89.4333 109.31 89.5227 109.304 89.6119C109.299 89.7012 109.273 89.7884 109.231 89.8674M119.482 75.4801C119.401 75.497 119.355 75.4707 119.342 75.3924L119.482 75.4801ZM117.871 71.9336C118.669 71.6477 119.301 73.8208 119.499 74.2944C119.499 74.2944 119.43 74.2989 119.418 74.3173C119.672 74.3301 119.748 74.637 119.684 74.8681C119.583 75.2603 119.356 75.25 119.318 75.668C119.28 76.0861 119.581 76.7239 119.291 77.0838C119.221 77.1578 119.136 77.2158 119.041 77.2541C118.947 77.2923 118.845 77.3098 118.744 77.3053C118.643 77.3008 118.544 77.2745 118.454 77.2281C118.364 77.1817 118.285 77.1164 118.223 77.0366C117.638 76.3382 118.251 75.137 118.23 74.3451C118.216 73.8828 117.332 72.1293 117.871 71.9336ZM111.808 77.8631C111.936 78.2385 112.246 78.6342 112.187 79.0436C112.128 79.4531 111.825 79.7104 111.834 80.2152C111.838 80.6022 111.986 81.1645 111.782 81.5286C111.681 81.7182 111.428 81.784 111.357 81.9669C111.263 82.2471 111.374 82.6711 111.353 82.9679C111.266 84.1702 110.847 85.325 110.754 86.5214C110.725 86.9181 110.882 87.7343 110.602 88.0426C110.19 88.2726 109.746 88.4379 109.286 88.5327C108.077 88.558 109.01 86.8421 109.219 86.3388C109.428 85.8355 109.894 85.3056 109.93 84.7243C109.961 84.2519 109.679 83.8829 109.614 83.4306C109.515 82.7372 109.916 82.6472 110.265 82.147C110.613 81.6468 110.596 80.9426 110.659 80.3637C110.673 79.6642 110.753 78.9669 110.899 78.2813C110.999 77.9708 111.604 77.1689 111.808 77.845M117.143 71.9639C117.173 72.2626 116.818 72.0916 116.728 71.9514C116.59 71.7214 116.705 70.954 116.715 70.7421C116.725 70.5302 116.781 70.0997 116.804 69.7938C117.145 69.9681 116.981 70.2225 116.957 70.4861C116.987 70.9802 117.047 71.4717 117.137 71.958M118.319 64.812C118.893 64.7698 118.756 65.2957 118.724 65.617C118.695 66.0548 118.765 66.4926 118.928 66.8978C119.109 67.4142 119.758 68.6465 119.379 69.1714C119.106 69.5521 118.632 69.3866 118.408 69.0678C118.082 68.6029 118.174 67.848 118.156 67.3041C118.142 66.8901 117.663 64.8771 118.328 64.8209M116.332 64.5451C116.291 64.5883 116.346 64.6839 116.27 64.6099C116.193 64.5359 116.291 64.5883 116.332 64.5451ZM117.741 59.8498C118.546 59.6304 118.647 62.2348 117.463 61.7758C116.798 61.5145 117.138 60.0196 117.741 59.8498ZM111.228 65.5892C111.795 65.7013 111.956 66.2937 112.163 66.7762C112.256 66.9799 112.388 67.1071 112.254 67.2944C112.043 67.6345 111.772 67.1805 111.592 67.0119C111.411 66.8433 110.519 66.2239 110.522 65.9759C110.525 65.7279 110.958 65.5253 111.225 65.5681M110.523 64.6665C110.617 64.7583 110.614 64.7191 110.446 64.8496L110.376 64.7815L110.523 64.6665ZM110.777 62.4719C110.683 62.5402 110.582 62.599 110.476 62.6476C110.267 62.032 110.442 61.7048 110.777 62.4719ZM116.777 55.4883C116.835 55.5446 116.691 55.8772 116.642 55.9084C116.594 55.9397 116.054 55.7212 115.999 55.7042C116.198 55.3462 116.393 54.9551 116.789 55.5002M112.801 52.4931C112.954 52.8861 113.271 53.4147 113.106 53.8172C112.918 53.63 112.775 53.4019 112.688 53.1501C112.601 52.8983 112.574 52.6295 112.607 52.3641C112.681 52.39 112.748 52.4344 112.801 52.4931ZM110.806 48.6098C111.025 49.0256 111.305 49.4461 111.494 49.8745C111.683 50.303 111.626 50.3979 111.258 50.1184C110.581 49.5943 109.849 48.1974 109.652 47.3669C110.124 47.6952 110.518 48.1236 110.806 48.6219M111.123 44.2518C111.073 44.5734 111.006 44.5748 110.745 44.4835C110.763 44.465 111.169 44.0029 111.123 44.2518ZM106.437 38.432C106.952 38.261 108.232 39.1717 107.424 39.3881C106.951 39.528 105.747 38.6732 106.437 38.432ZM106.395 39.8451C106.687 40.0204 106.351 40.2391 106.096 40.1537C105.841 40.0683 105.514 39.4885 105.355 39.3044C105.701 39.4725 106.051 39.6315 106.379 39.8303M101.086 34.38C101.775 34.3898 103.175 34.3938 103.606 35.0561C103.861 35.4469 103.559 35.7163 103.584 36.0877C103.641 36.6399 103.802 36.4067 104.316 36.4262C104.496 36.4342 104.671 36.4783 104.832 36.5558C104.993 36.6334 105.136 36.7429 105.254 36.8776C105.371 37.0124 105.46 37.1697 105.514 37.3401C105.569 37.5106 105.588 37.6906 105.572 37.8695C105.523 38.1094 105.386 38.2877 105.331 38.558C105.277 38.8282 105.36 38.9626 105.301 39.1271C105.146 39.5748 104.624 39.6311 104.211 39.7637C104.703 40.4792 105.362 41.0943 105.923 41.7872C106.408 42.3818 106.939 43.4593 107.679 43.6434C107.578 42.947 106.739 42.3084 106.286 41.7917C106.093 41.5689 104.989 40.6849 105.079 40.3776C105.262 39.6813 106.438 40.9932 106.575 41.0902C107.12 41.4628 107.434 40.8575 108.043 40.9869C108.54 41.0854 109.186 41.5617 109.011 42.1399C108.836 42.7181 108.163 42.7957 108.394 43.4924C108.588 44.0629 109.125 44.4871 109.261 45.1102C109.398 45.7333 109.419 46.5493 109.56 47.2479C108.393 47.23 107.571 45.3633 106.888 44.546L104.768 42.0079C103.91 40.9917 103.02 40.0396 102.117 39.0636C101.585 38.4881 100.419 37.7595 100.651 36.908C100.764 36.4188 101.234 35.9886 101.149 35.4522C101.113 35.2201 100.396 34.3581 101.071 34.3652M93.6763 28.3994C93.5068 28.3848 93.7665 28.3552 93.7726 28.3551L93.6763 28.3994ZM90.1754 28.4182C90.4283 28.5974 90.7513 28.5452 91.0186 28.6667C91.4622 28.863 91.3527 29.074 91.511 29.4486C91.7314 29.9732 91.8838 29.8097 92.4066 29.7837C92.9294 29.7577 92.9257 29.9754 93.2053 30.3778C93.3611 30.6706 93.6229 30.8922 93.9377 30.9975C94.2807 31.1204 94.8324 30.9728 95.0952 31.2334C95.4283 31.556 95.2738 32.0703 95.743 32.3992C96.2122 32.728 96.5694 32.7689 96.7928 33.2844C97.3293 34.5099 95.6625 33.3322 95.3334 33.0972C94.5083 32.5449 93.6485 32.0457 92.7592 31.6028C91.7982 31.0906 90.7499 30.6197 89.9554 29.8561C89.7476 29.6548 89.4062 29.4019 89.4811 29.0617C89.5042 28.9644 90.0566 28.339 90.1999 28.4419M79.6007 29.9002C80.4754 29.1562 82.281 30.3129 81.0086 31.1862C80.6095 31.4576 79.9901 31.2165 79.6048 31.0946C79.2953 30.9922 79.0754 31.0724 79.0859 30.6518C79.1609 30.3479 79.344 30.0806 79.6007 29.9002ZM82.3405 25.5611C82.8581 25.8829 82.1019 26.6819 81.7344 26.2542C81.6602 26.1705 81.6193 26.0623 81.6193 25.9499C81.6194 25.8375 81.6605 25.7285 81.7349 25.6435C81.8092 25.5585 81.9118 25.5032 82.0233 25.488C82.1348 25.4729 82.2476 25.4989 82.3405 25.5611ZM80.1929 27.6683C79.7042 28.0444 79.4598 27.8137 79.9112 27.3476L80.1929 27.6683ZM78.4936 23.2527C79.0162 23.2145 80.9853 23.0222 81.0768 23.6432C81.0902 23.7578 80.804 24.1266 80.7627 24.2243C80.6801 24.4253 80.6235 24.6358 80.5943 24.8507C80.5148 25.3181 80.532 25.7894 79.9547 25.8045C79.5648 25.8096 79.0914 25.375 78.8246 25.308C78.4363 25.1891 77.4677 25.3697 77.3622 24.8427C77.2406 24.2405 77.6961 24.4184 77.9478 24.4827C78.1994 24.547 78.2066 24.6497 78.4425 24.6568C78.7955 24.6174 79.1462 24.5575 79.4927 24.4776C79.3795 23.8117 79.0006 24.0011 78.5837 23.7527C78.4651 23.6857 78.0886 23.2732 78.4784 23.25M71.7689 24.2944C72.3975 24.2997 73.0237 24.2008 73.622 24.0016C74.0951 23.8617 74.6168 23.4577 75.0588 23.7901C75.2874 23.9577 75.6933 24.5782 75.3422 24.8184C75.1652 24.94 73.8909 24.8064 73.9074 24.6609C73.2928 24.8198 72.663 24.91 72.0298 24.93C71.8785 24.915 71.5461 24.934 71.4922 24.7023C71.5383 24.5405 71.6354 24.3974 71.7689 24.2944ZM70.5549 21.4017C70.6608 21.4085 70.8605 21.6977 70.9002 21.7362C70.7314 21.782 70.4851 21.9323 70.3384 21.7902C70.309 21.7533 70.2912 21.7084 70.2875 21.6611C70.2837 21.6138 70.2941 21.5664 70.3172 21.5247C70.3404 21.4831 70.3754 21.4492 70.4177 21.4273C70.46 21.4053 70.5078 21.3965 70.5549 21.4017ZM46.3953 40.1317C46.5523 40.3855 46.1634 41.3129 45.7591 41.1127C45.1693 40.8166 46.2181 40.2413 46.3953 40.1317ZM57.2492 23.9054C57.8112 23.685 58.4036 23.5542 59.0045 23.518C59.6634 23.4981 59.644 23.1085 60.0168 22.638C60.7681 21.6789 61.1159 23.3377 61.802 22.77C62.2725 22.3883 62.1363 22.0948 62.6855 22.549C63.0578 22.8617 63.28 22.9992 63.7122 22.712C63.7899 22.6317 63.8738 22.5574 63.9637 22.489C64.0556 22.3268 64.1735 22.3213 64.3082 22.4757C64.5909 22.5297 64.8794 22.5501 65.1675 22.5364C65.56 22.4798 66.3662 22.1122 66.6998 22.4771C66.9259 22.6962 66.6963 23.5386 66.6456 23.8783C66.5297 24.6095 66.0218 24.608 65.3579 24.7247C64.5553 24.8685 63.7161 24.9949 62.8983 25.1299C62.329 25.1839 61.7559 25.1582 61.1953 25.0537C60.9661 25.0029 60.7256 25.0347 60.516 25.1435C60.236 25.3665 59.9182 25.5371 59.5782 25.6469C59.0476 25.785 58.1247 26.2609 57.6001 26.1237C57.206 26.0291 56.9901 25.3653 56.8411 25.0116C56.6361 24.52 56.6615 24.078 57.234 23.8967M45.5639 38.489C45.4752 38.6662 44.9727 39.7109 44.6679 39.2123C44.4554 38.8629 45.2632 38.3592 45.5639 38.489ZM52.7237 26.9816C52.3934 27.1881 52.0117 26.8423 51.7379 26.6907C51.9526 26.4201 52.0761 26.1031 52.4855 26.2185C52.7343 26.298 53.0509 26.7661 52.7327 26.9723M53.7407 26.8061C53.5421 26.8949 53.1609 26.3223 53.1539 26.2378C53.1711 25.8715 53.945 25.5923 54.1975 25.454C54.7925 25.127 55.6979 24.4308 56.2658 25.2081C56.5236 25.5535 56.6125 26.4951 56.1307 26.6745C55.8417 26.7834 55.2773 26.6016 54.9629 26.6022C54.5417 26.5858 54.1209 26.6596 53.7287 26.8185M32.6546 57.504C31.7574 56.4734 33.7647 55.0798 33.8057 54.1324C33.8225 53.736 33.6531 53.4583 33.7543 53.0359C33.8381 52.7421 33.9654 52.4621 34.1322 52.2055C34.5326 51.5046 34.6322 50.6619 35.0449 49.9789C35.2201 49.688 35.5454 49.5723 35.7086 49.2938C35.8718 49.0152 35.7677 48.6212 35.9407 48.4059C36.1137 48.1906 36.4591 48.256 36.5798 47.9662C36.73 47.6032 36.2701 47.2953 36.3573 46.973C36.4493 46.5417 37.1636 46.6174 37.4957 46.5742C37.7296 46.5738 37.9608 46.5193 38.1712 46.4149C38.5489 46.1167 38.2715 45.9139 38.2916 45.5446C38.3533 44.8266 39.2233 43.9345 39.6219 43.3456C39.8451 43.0234 40.8211 41.3187 41.2568 42.1775C41.5597 42.7699 40.4518 44.0298 40.1425 44.4959C39.9483 44.7448 39.7753 45.0094 39.6252 45.2869C39.4955 45.592 39.5355 45.9298 39.4149 46.2377C39.1846 46.7016 38.9001 47.137 38.5675 47.5346C38.3144 47.8876 38.0582 48.2377 37.796 48.5818C37.5337 48.926 37.2573 49.089 37.0097 49.3936C36.6337 49.8369 37.0109 50.3219 36.6813 50.87C36.2855 51.4292 35.9534 52.0306 35.6912 52.6627C35.5711 53.0069 35.5424 53.4279 35.3918 53.7546C35.209 54.1757 34.8274 54.1171 34.5798 54.4217C34.3322 54.7262 34.6409 55.0252 34.7349 55.3256C34.8335 55.6458 34.8048 55.9928 34.6549 56.2949C34.26 57.2285 33.5529 57.2675 32.6518 57.5312M30.9653 84.2281C30.5061 84.2619 30.6199 83.6185 30.7133 83.3081C30.7958 83.388 31.4335 84.1911 30.9653 84.2281ZM51.7936 108.141C52.6288 107.933 53.8118 108.552 54.6066 108.802C54.9767 108.915 55.6579 109.001 55.9274 109.31C56.1969 109.618 56.1617 109.991 55.7057 110.046C54.9055 110.138 53.7256 109.516 52.9701 109.275C52.6182 109.161 51.9733 109.081 51.7136 108.835C51.5333 108.661 51.4047 108.237 51.7936 108.141ZM45.4611 104.155C45.7687 104.357 47.8303 105.702 47.6361 105.909C48.138 106.185 51.4853 107.322 51.076 108.044C50.7647 108.604 49.5374 107.798 49.1756 107.615C48.4004 107.264 47.6461 106.869 46.9162 106.432C46.3095 106.085 45.7424 105.675 45.2247 105.206C45.023 105.011 44.7273 104.79 44.8447 104.467C44.9004 104.306 45.2632 104.035 45.4521 104.164M47.0899 108.203C46.7159 108.283 44.3666 107.174 44.7377 106.553C45.1087 105.931 47.0125 107.763 47.0899 108.203ZM43.6532 105.538C43.754 105.636 43.5652 105.788 43.4959 105.811C43.3212 105.863 42.826 105.377 42.7523 105.276C42.6787 105.175 42.4617 104.964 42.651 104.861C42.7773 104.798 43.5254 105.462 43.6532 105.538ZM43.4136 102.728C43.7655 102.83 44.1282 102.822 44.196 103.217C44.2083 103.291 44.2052 103.367 44.1869 103.44C44.1686 103.513 44.1354 103.581 44.0896 103.641C44.0437 103.701 43.9861 103.751 43.9203 103.788C43.8546 103.825 43.782 103.848 43.7072 103.856C43.1685 103.801 43.2771 102.686 43.4136 102.728ZM41.6585 100.938C42.6267 101.278 43.0192 102.328 41.6338 102.26C40.5719 102.207 41.0817 100.727 41.6585 100.938ZM55.3945 115.009C53.9426 114.398 52.3496 114.159 50.8797 113.555C49.3829 112.951 47.9245 112.257 46.5122 111.478C45.9159 111.146 45.7835 110.653 45.3373 110.214C44.778 109.673 44.3693 110.174 43.7457 110.102C43.1221 110.031 42.4367 109.289 41.9521 108.933C41.2396 108.427 40.571 107.861 39.9531 107.243C39.4669 106.654 38.9479 106.094 38.3988 105.563C37.8252 105.092 37.2408 104.735 36.9066 104.046C36.7903 103.745 36.694 103.436 36.6183 103.121C36.4789 102.785 36.2381 102.502 35.9291 102.31C35.3783 101.729 34.8655 101.112 34.3941 100.464C34.1435 100.224 33.9084 99.9687 33.6903 99.6988C33.5088 99.4153 33.3905 99.1033 33.1879 98.8294C32.6847 98.2505 32.2148 97.6435 31.7801 97.0112C31.4392 96.3477 30.9203 95.7934 30.2811 95.4096C29.9677 95.2317 29.4824 95.0907 29.4957 94.6489C29.5317 94.416 29.6396 94.1994 29.8042 94.0295C29.9687 93.8596 30.1817 93.7449 30.4134 93.7014C31.1934 93.6972 31.4341 94.69 31.7062 95.2347C32.0361 95.8561 32.4317 96.4398 32.8863 96.976C33.27 97.4971 33.44 98.1105 33.8961 98.6241C35.792 100.653 37.8466 102.527 40.0409 104.229C42.1769 106.045 44.4523 107.691 46.8464 109.152C47.551 109.545 48.2222 109.995 48.8536 110.498C49.1838 110.759 49.5631 110.951 49.9694 111.064C50.1395 111.133 50.4962 111.132 50.3147 111.398C50.1869 111.598 49.7423 111.58 49.5365 111.841C49.3308 112.102 49.2302 112.304 49.6612 112.452C50.4502 112.714 51.1349 111.75 51.8477 111.956C52.2418 112.099 52.6081 112.308 52.9308 112.574C53.1656 112.754 53.5172 113.382 53.7783 113.479C54.264 113.656 54.5065 112.892 54.9987 112.831C56.602 112.643 56.536 115.432 55.4273 114.969M80.8327 110.265C81.193 110.314 81.0523 110.717 81.0123 110.929C81.0123 110.929 80.4178 110.204 80.8327 110.265ZM77.1157 110.702C77.5066 111.338 76.1507 111.484 76.1078 110.88C76.0649 110.277 76.8786 110.317 77.1157 110.702ZM74.258 110.925C74.769 110.93 74.4172 111.929 73.766 111.824C73.4692 111.776 73.186 111.598 73.3755 111.237C73.5236 110.956 73.9556 110.919 74.2641 110.931M71.0425 111.059C71.531 110.934 71.6072 111.821 71.2391 111.889C70.871 111.958 70.4577 111.216 71.0425 111.059ZM69.1459 111.25C69.4076 111.395 69.0611 111.509 69.0524 111.542C69.0437 111.575 68.9177 111.118 69.1459 111.25ZM65.3575 116.457C64.1827 116.433 63.0113 116.336 61.8501 116.165C61.3681 116.051 60.8901 116.025 60.4057 115.962C59.9213 115.9 56.5481 115.713 57.2195 114.635C57.4394 114.279 58.0925 114.284 58.4618 114.331C58.695 114.359 58.9235 114.521 59.1707 114.455C59.4179 114.389 59.5892 114.023 59.8609 113.987C60.3707 113.883 60.23 114.279 60.5618 114.486C60.991 114.753 61.4909 114.292 61.9499 114.24C62.6269 114.228 63.3029 114.281 63.9682 114.4C64.6093 114.397 65.248 114.465 65.8722 114.605C66.8282 114.933 66.1534 116.528 65.2852 116.483M88.6912 112.528C86.5371 113.586 84.2955 114.451 81.9926 115.115C80.1658 115.601 78.3003 115.869 76.4482 116.265C74.8603 116.572 73.2543 116.771 71.6415 116.861C70.4936 116.946 69.5288 116.645 68.4119 116.527C67.9124 116.468 66.4534 116.867 66.5258 116.028C66.6331 115.701 66.7954 115.395 67.0056 115.123C67.1245 114.945 67.2866 114.799 67.4765 114.701C67.6664 114.602 67.8779 114.553 68.0909 114.559C70.2815 114.431 72.438 114.51 74.6299 114.222C76.8429 113.959 79.0402 113.568 81.2111 113.054C82.3766 112.8 83.5197 112.448 84.628 112.003C85.1374 111.8 85.6612 111.638 86.1949 111.516C86.6109 111.411 87.4352 111.031 87.8451 111.194C88.1154 111.301 88.1622 111.436 88.0228 111.678C87.8833 111.919 87.6706 111.815 87.4532 111.85C87.094 111.897 86.5945 111.837 86.494 112.32C86.2757 113.365 88.5135 112.314 88.9457 112.302C88.8773 112.401 88.7935 112.487 88.6976 112.559M89.906 110.816C89.8975 110.873 90.0068 110.913 89.8948 110.901C89.7828 110.888 89.9097 110.885 89.906 110.816ZM89.7067 111.67C89.7918 111.435 89.7419 111.297 90.0451 111.369C90.3482 111.441 90.229 111.595 90.1444 111.878L89.6914 111.655M91.5077 110.208C91.0903 110.467 91.0912 109.727 91.2733 109.508C91.6327 109.163 92.0666 108.905 92.5409 108.756C92.7972 108.693 93.0988 108.626 92.9853 109.031C92.8718 109.435 91.8142 110.032 91.5077 110.208ZM96.5814 106.676C96.2201 106.811 95.9096 107.057 95.6942 107.378C95.5604 107.577 95.5131 107.956 95.254 108.034C95.1074 108.038 94.9624 108.005 94.833 107.938C94.7036 107.87 94.5941 107.77 94.515 107.647C94.3696 107.339 94.5285 107.217 94.762 107.007C95.4057 106.434 96.2633 106.068 96.9095 105.438C97.184 105.164 97.4875 104.92 97.8145 104.711C98.1207 104.512 99.6033 103.238 99.8799 103.368C100.342 103.588 99.1027 104.733 98.8546 104.983C98.2164 105.693 97.4434 106.268 96.5814 106.676ZM95.3495 108.473C95.4403 108.477 95.4601 108.359 95.5074 108.53L95.3495 108.473Z" fill="#FF5925"/>
<path d="M105.104 85.6624C105.182 86.1628 105.567 86.2364 105.936 85.9232C106.304 85.6101 106.657 84.7016 106.906 84.2187C106.667 83.9878 107.252 82.9746 107.311 82.5773C107.38 82.0466 106.933 81.5117 106.507 82.0619C106.081 82.6121 106.065 83.4288 105.609 84.0038C105.398 84.2203 105.241 84.4842 105.154 84.7731C105.066 85.0619 105.049 85.3671 105.104 85.6624Z" fill="#FF5925"/>
<path d="M60.014 108.072C58.9862 107.255 57.6845 107.107 56.4906 106.591C55.9559 106.36 55.436 106.09 54.8984 105.868C54.3608 105.647 53.7417 105.436 53.1827 105.193C52.7239 104.988 52.3316 104.507 51.7858 104.361C51.5069 104.288 51.1621 104.283 51.4414 104.661C51.6442 104.813 51.87 104.93 52.1104 105.01C52.8037 105.371 53.5175 105.667 54.2315 105.988C55.3709 106.493 56.5247 106.941 57.6729 107.425C58.2135 107.65 58.6916 107.963 59.2115 108.227C59.3696 108.309 59.705 108.562 59.8941 108.434C59.9598 108.366 60.1422 108.178 60.0202 108.077" fill="#FF5925"/>
<path d="M97.6892 95.9689C97.6931 97.3904 99.1717 95.4906 99.5212 95.1053C99.9756 94.6362 100.418 94.1794 100.805 93.633C101.076 93.3231 101.326 92.9956 101.553 92.6527C101.713 92.3893 102.215 91.8587 102.042 91.5356C101.87 91.2125 101.375 91.8821 101.25 92.0359C100.692 92.734 100.241 93.5055 99.6682 94.1949C99.3864 94.5481 99.0799 94.8809 98.751 95.1908C98.6493 95.2957 97.688 95.86 97.6952 95.9627" fill="#FF5925"/>
<path d="M111.53 99.9694C111.338 100.651 112.154 99.7659 112.208 99.7043C112.632 99.2063 113.008 98.6688 113.33 98.0994C113.988 96.9426 114.029 96.2583 113.538 95.0771C112.645 96.6085 111.969 98.2552 111.53 99.9694Z" fill="#FF5925"/>
<path d="M108.43 103.652C108.279 103.196 108.911 102.599 108.436 102.355C108.038 102.154 107.601 102.605 107.42 102.902C107.309 103.102 107.245 103.324 107.236 103.552C107.226 103.78 107.271 104.006 107.365 104.213C107.51 104.636 107.601 105.076 107.637 105.523C108.191 105.048 108.698 104.427 108.427 103.649" fill="#FF5925"/>
<path d="M55.2883 35.4658C55.9841 35.2245 56.6496 34.9898 57.3512 34.7242C58.0527 34.4585 58.8084 34.4427 59.5039 34.1832C59.8684 34.0577 60.2267 33.9262 60.5976 33.8308C60.7814 33.7816 61.3407 33.7789 61.4425 33.6801C62.0887 33.0618 60.3523 33.5214 60.1624 33.5707C58.458 33.9678 56.8167 34.6059 55.2883 35.4658Z" fill="#FF5925"/>
<path d="M77.3647 31.36C77.3136 30.5628 76.7821 30.8854 76.2682 30.8961C74.7386 30.916 77.496 31.2 75.8988 30.8433C75.6169 30.7797 75.4631 30.541 75.1196 30.651C74.8876 30.7254 74.5694 30.9316 74.7451 31.2394C74.8839 31.4814 75.2279 31.4198 75.4791 31.4478C75.7304 31.4758 77.3939 31.813 77.3525 31.3482" fill="#FF5925"/>
<path d="M69.8491 31.9482C70.2018 32.6547 70.4787 32.8032 71.1971 32.6916C71.6621 32.6215 72.6595 32.5706 72.1857 31.8545C71.7367 31.9488 71.2756 31.9654 70.8224 31.9039C70.8224 31.9039 69.5619 31.4188 69.8551 31.942" fill="#FF5925"/>
<path d="M67.0122 30.385C66.7823 29.8213 65.9489 30.1925 65.4659 30.257C64.9828 30.3215 63.8818 29.9968 63.6267 30.4497C63.0069 31.5482 67.065 30.5139 67.0122 30.385Z" fill="#FF5925"/>
<path d="M110.363 95.8356C110.06 96.3621 109.493 97.0211 109.451 97.6208C109.789 97.5413 109.957 97.1476 110.253 97.0931C110.549 97.0386 110.829 97.4774 111.109 97.6229C111.191 97.3853 111.458 96.9261 111.394 96.6673C111.268 96.1859 111.131 96.6152 110.851 96.4577C110.571 96.3002 110.868 95.6135 110.363 95.8356Z" fill="#FF5925"/>
<path d="M61.5696 32.7718C62.1813 32.5625 61.5971 30.9077 60.9525 31.1449C60.3078 31.3821 60.8555 33.0135 61.5696 32.7718Z" fill="#FF5925"/>
<path d="M68.4004 119.827C68.022 119.533 67.1147 119.815 66.6585 119.857C66.5527 119.869 66.1833 119.834 66.1125 119.993C66.0417 120.151 66.3029 120.512 66.4091 120.543C66.5153 120.574 66.897 120.358 67.057 120.333C67.2648 120.326 67.4726 120.339 67.6776 120.372C67.8137 120.372 68.9619 120.27 68.4004 119.827Z" fill="#FF5925"/>
<path d="M113.642 92.5955L113.667 92.4578C113.559 92.5694 113.551 92.6153 113.642 92.5955Z" fill="#FF5925"/>
<path d="M113.714 90.1414C114.043 90.8968 113.838 91.6905 113.677 92.4621C114.106 91.5972 114.765 90.5674 113.985 89.7699C113.943 89.8131 113.662 90.0548 113.711 90.1445" fill="#FF5925"/>
<path d="M91.2441 27.0118C91.5421 26.8816 92.5007 26.3263 91.9858 25.9891C91.6993 25.8014 90.7167 26.1121 90.3876 26.1643C90.5718 26.4025 90.9039 27.155 91.2531 27.0026" fill="#FF5925"/>
<path d="M54.9645 33.3999C54.8644 33.3748 54.9427 33.6182 54.9975 33.6473C55.0523 33.6764 55.1872 33.5678 55.2747 33.5508C55.5502 33.5023 55.8057 33.3727 56.0085 33.1787C56.0648 33.0716 56.1137 32.5805 55.7883 32.6901C55.7039 32.7161 55.6124 33.1838 55.5165 33.2645C55.4459 33.3365 55.3568 33.3873 55.2592 33.4113C55.1615 33.4352 55.0594 33.4313 54.9645 33.3999Z" fill="#FF5925"/>
<path d="M40.332 90.2849C39.9505 90.2504 39.8857 90.1338 39.7566 90.4934C39.7008 90.6367 39.6885 90.8941 39.8382 91.0211C40.3419 91.4373 40.4685 90.5846 40.3383 90.3089" fill="#FF5925"/>
<path d="M107.65 78.6708C107.483 78.6791 107.318 78.7059 107.158 78.7505C107.399 78.9845 107.68 79.4718 107.989 79.2507C108.376 78.9674 107.962 78.7037 107.65 78.6708Z" fill="#FF5925"/>
<path d="M117.25 87.9132C117.598 87.3645 117.161 87.2283 116.68 87.2775C116.74 87.4669 116.914 88.4556 117.25 87.9132Z" fill="#FF5925"/>
<path d="M73.7549 31.1299L73.1006 30.2389C73.0255 30.5551 72.8892 30.806 73.1615 31.0817C73.1953 31.1262 73.238 31.1631 73.2871 31.1899C73.3361 31.2167 73.3904 31.2329 73.4463 31.2375C73.5021 31.242 73.5585 31.2348 73.6116 31.2163C73.6648 31.1977 73.7136 31.1683 73.7549 31.1299Z" fill="#FF5925"/>
<path d="M62.0173 119.975C62.6307 120.18 62.6281 120.219 63.1649 119.806C62.65 119.475 62.5434 119.683 62.0173 119.975Z" fill="#FF5925"/>
<path d="M73.2012 32.0355C73.3511 32.1806 73.7052 32.739 73.86 32.2488C73.8649 32.1775 73.8498 32.1064 73.8165 32.0435C73.7832 31.9806 73.733 31.9284 73.6715 31.8927C73.4827 31.7816 73.4265 31.8947 73.2012 32.0355Z" fill="#FF5925"/>
<path d="M52.2416 35.58C52.4824 35.5227 52.711 35.4216 52.9158 35.2816C52.6689 35.3186 52.4359 35.4217 52.2416 35.58Z" fill="#FF5925"/>
<path d="M79.074 118.537C78.9776 118.839 78.7662 119.136 79.2324 119.169C79.3249 118.786 79.4298 118.708 79.074 118.537Z" fill="#FF5925"/>
<path d="M106.317 101.989L106.235 102.263C106.312 102.247 106.381 102.204 106.43 102.143C106.48 102.081 106.505 102.004 106.503 101.925C106.431 101.934 106.361 101.961 106.302 102.005" fill="#FF5925"/>
<path d="M112.133 93.0768C112.201 93.0547 112.263 93.0139 112.31 92.9589C112.357 92.9039 112.387 92.837 112.398 92.7658C112.323 92.7729 112.252 92.8095 112.203 92.8676C112.153 92.9258 112.128 93.0009 112.133 93.0768Z" fill="#FF5925"/>
<path d="M29.7242 75.9696C29.9321 76.171 30.0982 76.1464 30.2196 75.9109C29.9647 75.8436 29.9035 75.7783 29.7242 75.9696Z" fill="#FF5925"/>
<path d="M62.9249 32.3435C62.8736 32.3536 63.0985 32.4458 63.219 32.4009C63.2473 32.2309 63.1503 32.2088 62.9249 32.3435Z" fill="#FF5925"/>
<path d="M91.0197 36.1306C90.8246 36.2647 90.763 36.4324 91.0157 36.5815C91.0506 36.5112 91.0691 36.4341 91.0698 36.356C91.0705 36.2779 91.0534 36.2008 91.0197 36.1306Z" fill="#FF5925"/>
<path d="M116.857 47.4749C116.917 47.2044 116.865 47.1359 116.668 47.3639L116.857 47.4749Z" fill="#FF5925"/>
<path d="M75.7879 119.24C75.7371 119.293 75.6648 119.325 75.6048 119.368C75.8501 119.66 75.8881 119.541 75.7879 119.24Z" fill="#FF5925"/>
<path d="M69.7677 30.419C69.8096 30.3758 69.8728 30.3533 69.9269 30.322L69.8071 30.152C69.9288 29.9528 69.5839 30.4803 69.7677 30.419Z" fill="#FF5925"/>
<path d="M76.623 32.5546C76.8226 33.0951 76.9691 32.6685 76.8181 32.4205C76.7642 32.4761 76.686 32.508 76.623 32.5546Z" fill="#FF5925"/>
<path d="M83.1894 31.4166C83.396 31.4971 83.3144 31.5078 83.5259 31.2161C83.4575 31.2175 83.3905 31.2368 83.3315 31.272C83.2725 31.3071 83.2235 31.357 83.1894 31.4166Z" fill="#FF5925"/>
<path d="M114.708 88.4905C114.78 88.6978 114.731 88.6746 114.882 88.6594C114.813 88.449 114.853 88.4754 114.708 88.4905Z" fill="#FF5925"/>
<path d="M46.8582 42.5756L47.0433 42.6232C46.9661 42.4887 46.9877 42.5215 46.8267 42.4613C46.8297 42.5011 46.8404 42.54 46.8582 42.5756Z" fill="#FF5925"/>
<path d="M48.4792 102.607L48.6019 102.762L48.7305 102.629C48.5386 102.509 48.5898 102.493 48.4884 102.616" fill="#FF5925"/>
<path d="M33.418 77.9066L33.5342 78.0192L33.6029 77.9482C33.5479 77.8948 33.366 77.8562 33.4182 77.9247" fill="#FF5925"/>
<path d="M59.5106 119.433L59.5512 119.538C59.7104 119.441 59.684 119.517 59.6882 119.353C59.6311 119.382 59.5709 119.407 59.5106 119.433Z" fill="#FF5925"/>
<path d="M43.1801 44.9C43.1019 44.944 43.1023 44.9803 43.1967 45.0358C43.2718 44.9889 43.2775 44.9525 43.1801 44.9Z" fill="#FF5925"/>
<path d="M28.0933 50.6636C28.0999 50.7126 28.0174 50.7419 28.1032 50.734C28.1891 50.726 28.0877 50.719 28.0933 50.6636Z" fill="#FF5925"/>
<path d="M113.6 92.9399C113.628 92.8984 113.644 92.8506 113.647 92.8011C113.65 92.7517 113.64 92.7024 113.618 92.6582C113.502 92.8149 113.532 92.8022 113.6 92.9399Z" fill="#FF5925"/>
<path d="M60.1895 31.5257L60.023 31.5079C60.0143 31.5406 60.0116 31.5744 60.015 31.6079C60.2119 31.6311 60.1789 31.659 60.1895 31.5257Z" fill="#FF5925"/>
<path d="M107.859 80.6022L107.716 80.59L107.741 80.6742C107.82 80.7088 107.86 80.6868 107.859 80.6022Z" fill="#FF5925"/>
<path d="M90.0612 37.38C90.027 37.299 90.4137 37.2608 90.0199 37.2084L90.0612 37.38Z" fill="#FF5925"/>
<path d="M96.7649 26.1461C96.7315 26.1806 96.6538 26.087 96.6946 26.1752C96.7355 26.2634 96.6946 26.1752 96.7649 26.1461Z" fill="#FF5925"/>
<path d="M76.6497 119.124C76.5977 119.115 76.6137 118.969 76.5885 119.112C76.5633 119.256 76.5885 119.112 76.6497 119.124Z" fill="#FF5925"/>
<path d="M71.5053 30.4961C71.5575 30.4981 71.5802 30.6112 71.582 30.4976C71.5839 30.3839 71.582 30.4976 71.5053 30.4961Z" fill="#FF5925"/>
<path d="M92.2026 114.174C92.1666 114.211 92.1456 114.232 92.1715 114.288C92.1579 114.232 92.1822 114.22 92.2026 114.174Z" fill="#FF5925"/>
<path d="M41.8491 107.396C41.6542 107.45 41.4553 107.487 41.2545 107.508C41.7561 107.737 41.9419 107.576 42.3865 107.306C42.3753 107.273 42.3597 107.242 42.3401 107.213C42.1805 107.28 42.0148 107.341 41.8491 107.396Z" fill="#FF5925"/>
<path d="M47.9055 110.424C47.84 110.516 47.8587 110.57 47.9617 110.586L48.0141 110.404L47.9055 110.424Z" fill="#FF5925"/>
<path d="M39.4098 105.442C39.4404 105.413 39.4695 105.383 39.4969 105.352C39.3639 105.325 39.4518 105.398 39.4098 105.442Z" fill="#FF5925"/>
<path d="M45.0678 108.97C45.0234 109.052 45.0482 109.106 45.1332 109.135C45.2368 108.936 45.1108 109.023 45.0678 108.97Z" fill="#FF5925"/>
<path d="M84.7933 112.86C84.3355 112.225 83.1321 113.351 83.7871 113.764C84.1557 113.996 85.1465 113.34 84.7933 112.86Z" fill="#FF5925"/>
<path d="M81.2719 113.926C81.1934 113.395 79.6838 114.182 79.701 114.636C79.7182 115.089 81.3279 114.333 81.2719 113.926Z" fill="#FF5925"/>
<path d="M71.666 115.305L71.7427 115.673L72.5824 115.026C72.2599 114.863 71.9696 115.138 71.666 115.305Z" fill="#FF5925"/>
<path d="M75.3636 114.933C75.0013 114.994 75.2187 115.498 75.4849 115.499C75.7511 115.499 75.6987 114.874 75.3636 114.933Z" fill="#FF5925"/>
<path d="M68.3369 115.643C68.3091 115.531 68.255 115.427 68.1792 115.341C67.9699 115.557 68.0317 115.67 68.0654 115.978C68.1811 115.889 68.2742 115.774 68.3369 115.643Z" fill="#FF5925"/>
<path d="M69.1298 115.158C68.9247 115.474 69.1919 115.566 69.4008 115.319C69.3166 115.256 69.2258 115.202 69.1298 115.158Z" fill="#FF5925"/>
<path d="M82.2041 113.61C82.1533 113.662 82.1024 113.715 82.0516 113.767C82.3177 114.025 82.319 113.87 82.2041 113.61Z" fill="#FF5925"/>
<path d="M101.606 37.0653C101.881 37.5951 103.088 38.6502 103.106 37.352C103.078 37.135 102.99 36.9309 102.852 36.7622C102.714 36.5936 102.531 36.4671 102.324 36.397C101.966 36.2532 101.848 36.2768 101.7 36.5219C101.649 36.6035 101.616 36.694 101.601 36.7883C101.586 36.8826 101.59 36.9788 101.612 37.0712" fill="#FF5925"/>
</svg>
