<svg width="55" height="55" viewBox="0 0 55 55" fill="none" xmlns="http://www.w3.org/2000/svg">
<path d="M2.29175 2.29163V25.2083H52.7084V2.29163H2.29175ZM29.7917 16.0416H9.16675V11.4583H29.7917V16.0416ZM36.6667 16.0416C36.2135 16.0416 35.7704 15.9072 35.3936 15.6554C35.0167 15.4036 34.723 15.0457 34.5495 14.6269C34.3761 14.2082 34.3307 13.7474 34.4191 13.3029C34.5075 12.8583 34.7258 12.45 35.0463 12.1295C35.3668 11.809 35.7751 11.5907 36.2197 11.5023C36.6642 11.4139 37.125 11.4593 37.5437 11.6327C37.9625 11.8062 38.3204 12.0999 38.5722 12.4768C38.824 12.8536 38.9584 13.2967 38.9584 13.75C38.9584 14.3577 38.717 14.9406 38.2872 15.3704C37.8574 15.8002 37.2745 16.0416 36.6667 16.0416ZM43.5417 16.0416C43.0885 16.0416 42.6454 15.9072 42.2686 15.6554C41.8917 15.4036 41.598 15.0457 41.4245 14.6269C41.2511 14.2082 41.2057 13.7474 41.2941 13.3029C41.3825 12.8583 41.6008 12.45 41.9213 12.1295C42.2418 11.809 42.6501 11.5907 43.0947 11.5023C43.5392 11.4139 44 11.4593 44.4187 11.6327C44.8375 11.8062 45.1954 12.0999 45.4472 12.4768C45.699 12.8536 45.8334 13.2967 45.8334 13.75C45.8334 14.3577 45.592 14.9406 45.1622 15.3704C44.7324 15.8002 44.1495 16.0416 43.5417 16.0416ZM51.998 42.0979L54.6105 39.8062L52.3188 35.8416L48.9959 36.9645C48.2588 36.3464 47.4218 35.8582 46.5209 35.5208L45.8334 32.0833H41.2501L40.5626 35.4979C39.6617 35.8352 38.8247 36.3235 38.0876 36.9416L34.7647 35.8187L32.473 39.7833L35.0855 42.075C34.9 43.0285 34.9 44.0089 35.0855 44.9625L32.473 47.2541L34.7647 51.2187L38.0876 50.0958C38.8247 50.714 39.6617 51.2022 40.5626 51.5395L41.2501 55H45.8334L46.5209 51.5854C47.4218 51.248 48.2588 50.7598 48.9959 50.1416L52.3188 51.2645L54.6105 47.3L51.998 45.0083C52.1808 44.0468 52.1808 43.0594 51.998 42.0979ZM43.5417 48.125C42.6353 48.125 41.7491 47.8561 40.9954 47.3525C40.2417 46.8489 39.6542 46.1331 39.3073 45.2956C38.9604 44.4581 38.8696 43.5365 39.0465 42.6475C39.2233 41.7584 39.6599 40.9417 40.3008 40.3007C40.9418 39.6597 41.7585 39.2232 42.6476 39.0464C43.5367 38.8695 44.4582 38.9603 45.2957 39.3072C46.1332 39.6541 46.849 40.2415 47.3527 40.9953C47.8563 41.749 48.1251 42.6351 48.1251 43.5416C48.1215 44.7561 47.6374 45.9198 46.7787 46.7785C45.9199 47.6373 44.7562 48.1213 43.5417 48.125Z" fill="#FF5925"/>
<path d="M27.5001 43.5416H9.16675V38.9583H28.1738C29.3238 35.1185 31.8696 31.8483 35.3101 29.7916H2.29175V52.7083H30.3876C28.5055 50.0223 27.4972 46.8214 27.5001 43.5416Z" fill="#FF5925"/>
</svg>
