<svg width="64" height="43" viewBox="0 0 64 43" fill="none" xmlns="http://www.w3.org/2000/svg">
<path fill-rule="evenodd" clip-rule="evenodd" d="M39.9986 24.4094V18.4884C39.9986 16.4962 36.7826 14.8949 32.7986 14.8949C28.8146 14.8949 25.5986 16.4962 25.5986 18.4884V24.4094C25.6786 26.3645 28.8786 27.9285 32.7986 27.9285C36.7186 27.9285 39.9186 26.3645 39.9986 24.4094ZM31.9986 26.2341V22.864C35.4866 23.2364 37.8706 21.8586 38.3986 21.1138V24.4094C36.7186 26.29 33.2786 26.4017 31.9986 26.2341ZM32.7986 21.1696C35.7746 21.1696 38.1906 20.0897 38.1906 18.7677C38.1906 17.4644 35.7906 16.3658 32.7986 16.3658C29.8226 16.3658 27.4066 17.4458 27.4066 18.7864C27.4066 20.0897 29.8066 21.1696 32.7986 21.1696Z" fill="#FF5925"/>
<path fill-rule="evenodd" clip-rule="evenodd" d="M56 11.0413C56 9.04903 52.784 7.44776 48.8 7.44776C46.944 7.44776 45.248 7.80153 43.968 8.37873L40 6.53541V3.59354C40 1.60127 36.784 0 32.8 0C28.816 0 25.6 1.60127 25.6 3.59354V5.97683L20.96 8.09944C19.6072 7.65207 18.2063 7.43261 16.8 7.44776C12.816 7.44776 9.6 9.04903 9.6 11.0413V13.2756L0 17.6326V27.7615L32.24 42.8246L64 28.4504V17.6326L56 13.9459V11.0413ZM40 9.51451C39.92 11.4696 36.72 13.0336 32.8 13.0336C28.88 13.0336 25.68 11.4696 25.6 9.51451V7.68981L22.688 8.97455C23.52 9.55175 24 10.2779 24 11.0413V16.9623C23.92 18.9173 20.72 20.4813 16.8 20.4813C12.88 20.4813 9.68 18.9173 9.6 16.9623V14.7279L2.8 17.7071L32.048 30.8896L61.728 17.7071L56 15.2307V16.9623C55.92 18.9173 52.72 20.4813 48.8 20.4813C44.88 20.4813 41.68 18.9173 41.6 16.9623V11.0413C41.6 10.4269 41.904 9.86828 42.432 9.36556L40 8.30425V9.51451ZM33.6 32.2674V40.4041L62.4 27.5567V19.1594L33.6 32.2674ZM38.192 3.87284C38.192 5.19481 35.792 6.29336 32.8 6.29336C29.824 6.29336 27.408 5.19481 27.408 3.87284C27.408 2.56948 29.808 1.47093 32.8 1.47093C35.776 1.47093 38.192 2.55086 38.192 3.89145V3.87284ZM32 7.9691V11.3206C33.28 11.5068 36.72 11.3951 38.4 9.51451V6.21888C37.872 6.96366 35.488 8.34149 32 7.9691ZM22.192 11.3206C22.192 12.6426 19.792 13.7411 16.8 13.7411C13.824 13.7411 11.408 12.6426 11.408 11.3206C11.408 10.0172 13.808 8.91869 16.8 8.91869C19.776 8.91869 22.192 9.99862 22.192 11.3392V11.3206ZM16 15.4169V18.7684C17.28 18.9545 20.72 18.8428 22.4 16.9623V13.6666C21.872 14.4114 19.488 15.7893 16 15.4169ZM54.192 11.3206C54.192 12.6426 51.792 13.7411 48.8 13.7411C45.824 13.7411 43.408 12.6426 43.408 11.3206C43.408 10.0172 45.808 8.91869 48.8 8.91869C51.776 8.91869 54.192 9.99862 54.192 11.3392V11.3206ZM48 15.4169V18.7684C49.28 18.9545 52.72 18.8428 54.4 16.9623V13.6666C53.872 14.4114 51.488 15.7893 48 15.4169Z" fill="#FF5925"/>
</svg>
