<svg width="500" height="504" viewBox="0 0 500 504" fill="none" xmlns="http://www.w3.org/2000/svg">
<path d="M250 500C388.071 500 500 388.071 500 250C500 111.929 388.071 0 250 0C111.929 0 0 111.929 0 250C0 388.071 111.929 500 250 500Z" fill="#FF5925"/>
<path d="M250.909 450.909C363.876 450.909 455.454 359.331 455.454 246.364C455.454 133.396 363.876 41.8182 250.909 41.8182C137.942 41.8182 46.3635 133.396 46.3635 246.364C46.3635 359.331 137.942 450.909 250.909 450.909Z" fill="#D53300"/>
<path d="M249.091 409.091C336.954 409.091 408.182 337.863 408.182 250C408.182 162.136 336.954 90.9091 249.091 90.9091C161.227 90.9091 90 162.136 90 250C90 337.863 161.227 409.091 249.091 409.091Z" fill="#AF2C02"/>
<path d="M245.454 363.636C308.214 363.636 359.091 312.76 359.091 250C359.091 187.24 308.214 136.364 245.454 136.364C182.695 136.364 131.818 187.24 131.818 250C131.818 312.76 182.695 363.636 245.454 363.636Z" fill="#821F00"/>
<mask id="mask0_114_919" style="mask-type:luminance" maskUnits="userSpaceOnUse" x="143" y="21" width="200" height="483">
<path d="M342.727 21.8182H143.636V503.604H342.727V21.8182Z" fill="white"/>
</mask>
<g mask="url(#mask0_114_919)">
<path d="M166.751 149.139C166.751 110.027 198.963 95.8064 211.299 92.3146C223.635 88.8233 256.789 83.2467 290.595 94.8155C322.623 105.776 335.375 126.146 332.153 149.139L311.373 158.721L290.595 168.303H205.364L166.751 149.139Z" fill="#FF5925" stroke="black" stroke-width="1.5"/>
<path d="M201.55 184.261L210.783 122.412L284.616 119.962L294.743 186.883L201.55 184.261Z" fill="#FFB47D" stroke="black" stroke-width="1.5"/>
<path d="M223.254 49.3504C233.35 3.82877 267.89 24.3755 256.731 42.7966C256.025 46.1621 251.815 51.1217 240.621 44.0366C226.628 35.1803 237.61 66.8861 214.761 82.8275C196.481 95.5809 190.724 91.6836 190.131 88.1414C190.131 61.5723 214.761 69.8972 223.254 49.3504Z" fill="black"/>
<path d="M292.156 167.771C258.147 204.665 219.316 182.789 203.62 167.416L200.935 185.306C250.247 212.514 283.3 195.466 294.635 183.358L292.156 167.771Z" fill="#FF5925" stroke="black" stroke-width="1.5"/>
<path d="M274.974 83.4584C340.334 186.015 157.893 183.181 223.785 83.4584L232.641 65.2144H262.575L274.974 83.4584Z" fill="#FFB47D" stroke="black" stroke-width="1.5"/>
<path d="M254.959 95.8573C252.656 100.994 245.925 99.9309 243.092 95.8573L242.029 99.9309C246.564 106.875 253.896 103.533 256.376 100.64L254.959 95.8573Z" fill="#A42700"/>
<path d="M238.2 134.008C238.2 151.063 245.922 154.309 234.058 154.309C222.194 154.309 206.074 140.785 206.074 123.73C206.074 106.676 205.628 107.555 217.492 107.555C229.356 107.555 238.2 116.954 238.2 134.008Z" fill="url(#paint0_radial_114_919)" fill-opacity="0.33"/>
<path d="M259.929 134.974C259.929 152.651 255.095 157.852 265.949 157.852C276.803 157.852 289.32 141.998 289.32 124.321C289.32 106.645 289.728 107.555 278.873 107.555C268.02 107.555 259.929 117.297 259.929 134.974Z" fill="url(#paint1_radial_114_919)" fill-opacity="0.33"/>
<path d="M194.027 132.345L222.191 85.761C200.227 133.585 234.413 141.025 254.251 141.025C273.381 141.025 295.974 129.817 276.392 85.5839L305.086 132.345L262.489 195.048H240.171L194.027 132.345Z" fill="url(#paint2_linear_114_919)"/>
<path d="M249.291 130.928L254.251 140.494L254.605 141.379L244.863 140.847V140.494L249.291 130.928Z" fill="black"/>
<path d="M268.01 178.336L273.375 180.219L271.363 182.928L268.01 178.336Z" fill="#FFB47D"/>
<path d="M270.355 171.779L276.986 174.882L275.243 177.229L270.355 171.779Z" fill="#FFB47D"/>
<path d="M289.205 140.473L298.405 144.589L295.805 148.09L289.205 140.473Z" fill="#FF5925"/>
<path d="M233.023 173.104L226.91 178.276L226.035 177.016L233.023 173.104Z" fill="#FFB47D"/>
<path d="M208.579 140.158L202.466 145.331L201.593 144.071L208.579 140.158Z" fill="#FF5925"/>
<path d="M249.32 84.8061C238.711 84.3894 244.067 55.1182 217.418 92.8283C217.418 92.8283 216.004 99.0219 221.367 94.7946C224.66 92.2001 233.235 74.9564 237.806 78.0919C243.302 88.9356 246.665 88.2261 250.354 88.1893C257.76 88.1148 261.733 79.0799 263.382 77.1085C265.031 75.1374 270.56 84.7643 274.266 88.1893C280.529 96.9201 280.529 91.6137 280.529 91.6137C257.175 54.5868 262.785 84.6711 249.32 84.8061Z" fill="#FFD984" stroke="black" stroke-width="1.5"/>
<path d="M256.439 53.1916C256.439 61.7047 254.175 62.2032 248.731 62.2032C243.285 62.2032 241.56 60.0447 241.56 51.5316C246.343 40.4165 241.022 33.5086 248.73 33.5085C256.438 33.5085 251.302 39.3537 256.439 53.1916Z" fill="#FFD984"/>
<path d="M265.41 85.7612C265.587 87.0011 264.708 89.1266 261.343 89.658C257.269 89.658 255.845 89.1822 255.845 88.5952C255.314 87.4517 257.445 87.3553 260.457 86.5505C263.036 85.8614 265.233 84.5213 265.41 85.7612Z" fill="#5C1600"/>
<path d="M232.642 85.584C232.464 86.8207 234.83 89.835 237.08 89.835C239.33 89.835 242.206 89.0036 242.206 88.418C242.738 87.2773 240.791 87.001 237.612 86.3821C234.992 85.872 232.818 84.3473 232.642 85.584Z" fill="#5C1600"/>
<path d="M231.939 89.948C231.759 91.5445 235.326 93.3772 237.611 93.3772C239.895 93.3772 243.442 90.1765 243.263 89.948C242.543 89.4906 241.284 92.0609 238.062 91.6636C235.364 91.3318 232.119 88.3513 231.939 89.948Z" fill="#8D3300" fill-opacity="0.31"/>
<path d="M266.997 89.948C267.175 91.5445 263.646 93.3772 261.385 93.3772C259.125 93.3772 255.496 91.2245 255.675 90.9963C256.385 90.5389 257.751 92.0609 260.939 91.6636C263.608 91.3318 266.819 88.3513 266.997 89.948Z" fill="#8D3300" fill-opacity="0.31"/>
<path d="M217.675 91.6064C222.812 30.6632 275.596 30.1478 280.378 90.4047C267.271 73.0657 262.313 73.0657 261.276 74.6106C249.409 92.2928 244.154 82.9083 238.781 74.6106C235.593 72.3791 224.229 83.366 217.675 91.6064Z" fill="#FF5925" stroke="black" stroke-width="1.5"/>
<path d="M249.913 106.327V107.108C240.076 103.445 238.348 120.144 228.537 127.868C228.123 128.239 227.691 128.554 227.24 128.803C227.688 128.509 228.12 128.197 228.537 127.868C235.494 121.647 237.815 99.6118 249.913 106.327Z" fill="black"/>
<path d="M250.267 106.327V107.108C260.522 103.29 266.45 127.676 272.939 128.803C264.928 124.377 263.085 99.2118 250.267 106.327Z" fill="black"/>
<path d="M246.03 108.284C249 109.354 250.485 108.895 253.455 108.284C253.455 110.117 252.785 111.799 249.622 111.799C246.29 111.799 244.945 107.893 246.03 108.284Z" fill="#1E0200"/>
<path d="M247.235 88.7722V95.6791L245.438 93.3764C244.839 94.1446 243.57 95.6791 243.283 95.6791C242.923 95.6791 249.75 104.051 254.959 95.6791C254.6 94.4928 253.845 92.1628 253.702 92.33C252.696 93.1673 252.085 94.9119 251.905 95.6791V89.6093" stroke="#793312" stroke-opacity="0.46" stroke-width="1.5"/>
<path d="M247.165 95.68L245.395 93.2009L247.165 91.6063V95.68Z" fill="#A33A00"/>
<path d="M253.719 92.1373C253.011 92.2791 252.243 94.3809 251.948 95.3264V91.2518L253.719 92.1373Z" fill="#A33A00"/>
<path d="M217.549 164.745C226.313 156.915 231.234 143.955 232.599 138.454L235.514 139.21C232.263 153.445 222.183 162.165 217.549 164.745Z" fill="url(#paint3_linear_114_919)"/>
<path d="M215.891 162.668C220.768 153.893 224.771 140.781 226.163 135.322L227.29 135.614C223.808 149.697 218.24 159.518 215.891 162.668Z" fill="url(#paint4_linear_114_919)"/>
<path d="M217.264 163.024C222.954 154.459 227.145 141.396 228.529 135.935L230.031 136.325C226.603 150.422 220.091 159.998 217.264 163.024Z" fill="url(#paint5_linear_114_919)"/>
<path d="M215.637 162.236C219.295 153.145 223.015 139.959 224.418 134.504L224.982 134.649C221.42 148.713 217.268 158.9 215.637 162.236Z" fill="url(#paint6_linear_114_919)"/>
<path d="M226.091 169.855C236.06 163.634 243.116 151.701 245.399 146.512L248.143 147.754C242.514 161.226 231.096 168.102 226.091 169.855Z" fill="url(#paint7_linear_114_919)"/>
<path d="M224.811 167.526C231.112 159.711 237.29 147.472 239.591 142.329L240.652 142.809C234.822 156.095 227.663 164.823 224.811 167.526Z" fill="url(#paint8_linear_114_919)"/>
<path d="M226.102 168.11C233.168 160.641 239.524 148.482 241.817 143.336L243.232 143.976C237.452 157.284 229.404 165.611 226.102 168.11Z" fill="url(#paint9_linear_114_919)"/>
<path d="M224.635 167.058C229.787 158.723 235.699 146.364 238.011 141.226L238.541 141.465C232.636 154.717 226.81 164.048 224.635 167.058Z" fill="url(#paint10_linear_114_919)"/>
<path d="M278.081 166.259C272.464 157.36 271.034 143.984 271.021 138.408L268.476 138.735C268.279 153.122 274.797 163.079 278.081 166.259Z" fill="url(#paint11_linear_114_919)"/>
<path d="M279.859 164.463C277.623 155.187 276.976 141.793 276.933 136.255L275.949 136.381C275.972 150.653 278.565 161.048 279.859 164.463Z" fill="url(#paint12_linear_114_919)"/>
<path d="M278.662 164.616C275.715 155.432 274.904 142.058 274.868 136.52L273.556 136.688C273.533 150.965 276.95 161.255 278.662 164.616Z" fill="url(#paint13_linear_114_919)"/>
<path d="M280.155 164.076C278.983 154.664 278.584 141.237 278.53 135.701L278.039 135.764C278.13 150.026 279.488 160.582 280.155 164.076Z" fill="url(#paint14_linear_114_919)"/>
<path d="M270.041 170.05C263.112 162.552 259.721 149.879 258.892 144.48L256.391 145.305C258.298 159.284 266.285 167.626 270.041 170.05Z" fill="url(#paint15_linear_114_919)"/>
<path d="M271.56 167.953C267.962 159.415 265.355 146.566 264.502 141.21L263.534 141.529C265.645 155.352 269.764 164.905 271.56 167.953Z" fill="url(#paint16_linear_114_919)"/>
<path d="M270.383 168.342C266.087 160.034 263.318 147.239 262.472 141.88L261.183 142.305C263.247 156.144 268.176 165.429 270.383 168.342Z" fill="url(#paint17_linear_114_919)"/>
<path d="M271.8 167.519C269.248 158.635 266.883 145.707 266.021 140.354L265.537 140.514C267.716 154.314 270.62 164.267 271.8 167.519Z" fill="url(#paint18_linear_114_919)"/>
<path d="M245.572 45.7303C245.572 71.4474 232.909 58.9639 221.483 72.8308C233.428 62.9978 250.073 70.4389 245.572 45.7303Z" fill="black"/>
<path d="M253.188 45.7303C253.188 71.4474 265.496 58.6096 276.923 72.4765C264.977 62.6435 248.686 70.4389 253.188 45.7303Z" fill="black"/>
<path d="M171 146.818C179.502 112.668 202.81 101.18 215.091 100L214.996 101.666C185.594 108.751 176.453 131.939 171 146.818Z" fill="#1E0200" stroke="black" stroke-width="1.5"/>
<path d="M328.635 145.407C320.641 111.126 295.547 100.185 284 99L285.332 100.956C312.98 108.068 323.508 130.472 328.635 145.407Z" fill="#1E0200" stroke="black" stroke-width="1.5"/>
<path d="M200.671 267.671C167.655 262.569 154.087 205.322 200.671 185.129C200.671 185.129 221.155 192.651 231.668 195.403C242.932 198.351 255.935 197.883 255.935 197.883C268.156 197.883 284.806 191.506 294.725 183.535C304.645 175.565 386.124 250.844 293.486 320.454C311.198 327.008 282.564 356.943 255.935 361.903C278.312 360.957 318.744 364.346 309.25 385.46C317.044 406.804 306.239 424.822 289.412 421.771C301.28 422.42 307.939 414.332 306.239 398.744C304.114 379.261 242.978 413.637 258.946 392.368C274.179 372.078 253.633 400.162 293.486 385.46C337.331 369.286 218.03 381.032 239.16 366.685C256.065 355.207 246.204 344.072 239.16 339.938C218.738 327.955 218.859 308.347 231.668 302.211C202.62 303.203 199.432 283.14 200.671 267.671Z" fill="#FCE1A6"/>
<path fill-rule="evenodd" clip-rule="evenodd" d="M297.259 183.897C296.265 183.782 295.65 183.959 295.295 184.244C290.244 188.303 283.512 191.933 276.512 194.549C269.522 197.163 262.199 198.789 255.95 198.792L255.926 198.793C255.9 198.794 255.862 198.794 255.811 198.795C255.711 198.799 255.563 198.803 255.371 198.805C254.988 198.813 254.43 198.82 253.725 198.819C252.318 198.816 250.324 198.783 247.976 198.656C243.288 198.403 237.153 197.778 231.438 196.283C226.144 194.896 218.364 192.317 211.931 190.094C208.709 188.98 205.816 187.953 203.729 187.204C202.685 186.829 201.843 186.524 201.262 186.313C201.033 186.23 200.845 186.161 200.701 186.108C178.04 196.08 170.074 214.957 171.725 231.972C173.393 249.154 184.822 264.302 200.81 266.772L201.644 266.901L201.577 267.744C200.962 275.425 201.469 284.061 205.582 290.631C209.64 297.112 217.345 301.79 231.637 301.302L232.061 303.03C226.038 305.916 222.979 311.957 223.854 318.766C224.732 325.591 229.591 333.27 239.62 339.154C243.233 341.274 247.7 345.254 249.021 350.328C249.69 352.9 249.54 355.722 248.098 358.646C246.664 361.554 243.981 364.51 239.671 367.437C238.382 368.313 237.798 368.984 237.607 369.435C237.523 369.634 237.528 369.762 237.551 369.852C237.576 369.952 237.65 370.098 237.848 370.284C238.27 370.68 239.083 371.097 240.353 371.491C241.597 371.876 243.179 372.21 245.039 372.498C251.89 373.563 262.136 373.971 272.191 374.372C273.089 374.407 273.985 374.443 274.877 374.479C280.302 374.699 285.567 374.934 290.064 375.289C294.541 375.642 298.335 376.12 300.783 376.85C301.97 377.204 303.026 377.667 303.626 378.352C303.953 378.725 304.173 379.196 304.155 379.746C304.139 380.274 303.907 380.749 303.591 381.156C302.976 381.946 301.85 382.731 300.291 383.547C298.702 384.378 296.559 385.295 293.801 386.313C283.796 390.004 277.465 391.056 273.36 390.795C271.294 390.664 269.765 390.2 268.613 389.548C267.453 388.893 266.724 388.076 266.224 387.32C265.978 386.946 265.789 386.591 265.638 386.294C265.596 386.212 265.56 386.138 265.526 386.072C265.465 385.951 265.414 385.851 265.368 385.764C265.279 385.84 265.166 385.945 265.027 386.089C264.731 386.394 264.356 386.827 263.875 387.421C262.914 388.608 261.581 390.374 259.673 392.914C258.694 394.217 258.038 395.273 257.646 396.114C257.247 396.973 257.166 397.515 257.208 397.833C257.24 398.074 257.344 398.235 257.619 398.379C257.947 398.55 258.494 398.672 259.319 398.689C260.959 398.723 263.296 398.341 266.134 397.708C268.513 397.178 271.179 396.486 273.994 395.756C274.518 395.621 275.047 395.484 275.58 395.345C282.333 393.602 289.78 391.764 295.683 391.611C298.632 391.534 301.316 391.871 303.363 392.944C305.476 394.051 306.844 395.911 307.143 398.646C308.006 406.56 306.769 412.747 303.639 416.894C303.243 417.418 302.82 417.906 302.37 418.36C304.543 416.855 306.37 414.803 307.772 412.317C311.445 405.805 312.223 396.251 308.396 385.772L308.269 385.424L308.421 385.087C309.556 382.562 309.918 380.365 309.7 378.45C309.482 376.542 308.681 374.847 307.382 373.331C304.753 370.264 300.1 367.953 294.293 366.283C282.713 362.954 267.123 362.34 255.974 362.811L255.768 361.008C268.858 358.571 282.507 349.964 290.672 341.158C294.766 336.743 297.371 332.394 297.938 328.854C298.218 327.108 297.995 325.608 297.267 324.376C296.539 323.144 295.242 322.074 293.17 321.307L291.607 320.729L292.94 319.728C315.984 302.411 328.124 284.801 333.288 268.302C338.452 251.804 336.67 236.328 331.714 223.224C326.754 210.107 318.621 199.384 311.126 192.444C307.376 188.972 303.816 186.475 300.928 185.095C299.481 184.404 298.243 184.013 297.259 183.897ZM200.671 185.129C200.984 184.276 200.984 184.276 200.984 184.276L201.215 184.361C201.368 184.416 201.593 184.498 201.883 184.604C202.462 184.814 203.302 185.118 204.343 185.492C206.425 186.239 209.311 187.264 212.524 188.375C218.961 190.6 226.68 193.157 231.899 194.524C237.446 195.975 243.445 196.591 248.074 196.841C250.385 196.965 252.346 196.998 253.728 197.001C254.419 197.002 254.965 196.994 255.337 196.988C255.523 196.984 255.665 196.981 255.761 196.978L255.868 196.975L255.894 196.974H255.902L255.918 196.974H255.934C261.904 196.974 269.012 195.412 275.875 192.846C282.735 190.282 289.288 186.738 294.156 182.826C295.041 182.115 296.225 181.946 297.469 182.092C298.723 182.238 300.163 182.714 301.712 183.454C304.815 184.937 308.525 187.558 312.362 191.11C320.039 198.219 328.344 209.172 333.414 222.58C338.489 236 340.327 251.897 335.023 268.844C329.815 285.485 317.747 303.054 295.268 320.244C296.87 321.068 298.06 322.144 298.833 323.451C299.825 325.13 300.063 327.083 299.733 329.142C299.081 333.214 296.183 337.887 292.004 342.394C285.133 349.806 274.495 357.084 263.425 360.854C273.534 360.894 285.406 361.837 294.795 364.535C300.706 366.234 305.781 368.67 308.762 372.147C310.267 373.904 311.243 375.93 311.506 378.244C311.758 380.457 311.353 382.872 310.228 385.494C314.055 396.228 313.302 406.214 309.355 413.21C305.347 420.317 298.067 424.264 289.25 422.665L289.462 420.864C295.169 421.175 299.476 419.392 302.188 415.799C304.93 412.166 306.173 406.516 305.335 398.844C305.103 396.708 304.094 395.379 302.52 394.554C300.879 393.694 298.563 393.354 295.731 393.428C290.073 393.575 282.835 395.35 276.034 397.106C275.506 397.243 274.981 397.379 274.459 397.514C271.645 398.244 268.942 398.944 266.53 399.483C263.688 400.116 261.161 400.545 259.282 400.506C258.346 400.487 257.471 400.352 256.779 399.992C256.033 399.603 255.521 398.958 255.405 398.067C255.298 397.25 255.54 396.332 255.998 395.347C256.464 394.346 257.202 393.178 258.219 391.823C260.12 389.291 261.476 387.495 262.463 386.276C262.955 385.667 263.37 385.186 263.723 384.823C264.064 384.471 264.398 384.175 264.734 383.995C265.098 383.8 265.573 383.686 266.06 383.91C266.464 384.097 266.703 384.448 266.838 384.671C266.951 384.858 267.067 385.09 267.175 385.304C267.203 385.36 267.231 385.415 267.258 385.468C267.399 385.744 267.551 386.029 267.742 386.317C268.116 386.884 268.646 387.478 269.507 387.965C270.374 388.455 271.624 388.864 273.475 388.981C277.203 389.217 283.249 388.267 293.171 384.607C295.893 383.604 297.956 382.716 299.447 381.936C300.967 381.141 301.794 380.504 302.155 380.04C302.326 379.82 302.337 379.708 302.338 379.689C302.338 379.681 302.338 379.673 302.332 379.658C302.327 379.647 302.318 379.627 302.298 379.599C302.288 379.584 302.275 379.568 302.259 379.55C302.026 379.284 301.42 378.936 300.263 378.592C298.022 377.924 294.402 377.455 289.922 377.101C285.463 376.749 280.231 376.515 274.803 376.296C273.903 376.259 272.996 376.224 272.087 376.187C262.074 375.788 251.721 375.376 244.76 374.295C242.856 373.999 241.178 373.65 239.815 373.227C238.478 372.814 237.336 372.298 236.603 371.61C236.225 371.254 235.922 370.822 235.789 370.301C235.654 369.771 235.718 369.236 235.932 368.729C236.336 367.769 237.297 366.851 238.65 365.933C242.792 363.12 245.215 360.381 246.467 357.843C247.71 355.323 247.824 352.95 247.261 350.786C246.116 346.39 242.132 342.736 238.7 340.723C228.307 334.624 223.016 326.507 222.051 318.998C221.233 312.634 223.543 306.767 228.379 303.141C215.661 302.855 208.182 298.21 204.041 291.596C199.764 284.765 199.179 276.029 199.703 268.43C183.12 265.414 171.612 249.623 169.916 232.147C168.183 214.297 176.641 194.554 200.31 184.295L200.643 184.151L200.984 184.276L200.671 185.129Z" fill="black"/>
<path d="M221.926 258.815C204.158 253.719 196.857 212.559 221.926 192.392C221.926 192.392 234.503 196.288 240.702 196.997C248.639 197.904 254.341 197.528 254.341 197.528C260.918 197.528 274.356 195.225 281.973 190.62C289.589 186.015 323.952 249.958 275.95 271.39C314.741 300.616 298.428 312.667 284.098 317.621C295.08 335.865 259.124 353.577 259.124 353.577C240.171 328.956 236.096 313.015 245.484 300.616C209.704 288.572 213.955 275.995 221.926 258.815Z" fill="#FF5925" fill-opacity="0.21" stroke="black" stroke-width="1.5"/>
<path d="M313.876 209C326.344 225.048 342.683 259.074 309 291C317.584 277.576 330.717 247.224 313.876 209Z" fill="white" stroke="black" stroke-width="1.5"/>
<path d="M194.533 200C181.06 212.273 166.605 236.585 203 261C193.725 250.734 176.336 229.231 194.533 200Z" fill="white" stroke="black" stroke-width="1.5"/>
<path d="M249.204 188.672L251.044 196.643H247.364L249.204 188.672Z" fill="#FF5925"/>
<path d="M245.13 192.215L245.897 195.403H244.364L245.13 192.215Z" fill="#FF5925"/>
<path d="M262.134 192.215L262.901 195.403H261.367L262.134 192.215Z" fill="#FF5925"/>
<path d="M241.411 463.219C235.884 463.219 231.196 454.246 229.543 449.757C228.693 450.041 223.639 449.875 221.218 449.757C221.277 454.48 219.128 463.785 210.059 463.219C200.99 462.652 199.077 466.525 199.254 468.533H250.975C249.735 464.636 248.318 463.219 241.411 463.219Z" fill="#FFD984"/>
<path d="M229.72 449.708C228.87 449.991 223.815 449.825 221.395 449.708C221.455 454.43 219.305 463.736 210.236 463.169M210.236 463.169C201.167 462.603 199.255 466.475 199.432 468.484H251.153C249.913 464.586 248.495 463.169 241.587 463.169C229.26 463.169 225.351 463.169 224.937 463.169M210.236 463.169H220.864" stroke="black" stroke-width="1.5"/>
<path d="M278.253 419.419C280.662 419.419 285.397 424.378 287.464 426.858C281.854 424.673 267.732 423.351 256.112 435.537C241.587 450.771 213.247 462.638 190.398 423.67C188.154 419.95 182.285 412.227 176.759 411.094C169.851 409.677 157.275 410.917 156.744 427.566C156.213 444.216 184.375 437.84 174.279 422.962C173.689 421.013 173.713 417.542 178.53 419.242C183.348 420.942 182.191 430.341 181.01 434.829C170.442 458.621 126.809 425.795 167.725 405.603C168.965 404.895 172.508 403.761 176.759 404.895C182.958 402.769 207.402 437.698 236.451 427.566C266.917 416.939 275.242 419.419 278.253 419.419Z" fill="#FFD984"/>
<path d="M176.759 405.122C182.958 402.995 207.402 437.698 236.451 427.567C266.917 416.939 275.242 419.419 278.253 419.419C280.662 419.419 285.397 424.378 287.464 426.858C281.854 424.673 267.732 423.351 256.112 435.537C241.587 450.771 213.247 462.638 190.398 423.67C188.154 419.95 182.285 412.227 176.759 411.094C169.851 409.677 157.275 410.917 156.744 427.567C156.213 444.217 184.375 437.84 174.279 422.962C173.689 421.014 173.713 417.542 178.53 419.242C183.348 420.943 182.191 430.341 181.01 434.829C170.442 458.621 126.809 425.795 167.725 405.603" stroke="black" stroke-width="1.5"/>
<path d="M239.639 463.042C235.388 460.916 231.786 455.071 231.492 454.54" stroke="black" stroke-width="1.5"/>
<path d="M211.476 440.724C207.756 438.776 203.257 435.339 201.557 432.222" stroke="black" stroke-width="1.5"/>
<path d="M218.206 443.912L213.778 441.964" stroke="black" stroke-width="1.5"/>
<path d="M233.44 411.289C233.723 422.484 240.761 424.927 244.245 424.751C225.54 432.119 212.244 427.822 207.934 424.751C216.011 425.317 218.384 416.011 218.561 411.289C219.801 403.318 233.274 404.736 233.44 411.289Z" fill="#FFD984" stroke="black" stroke-width="1.5"/>
<path d="M230.074 402.192L228.834 406.185L226 405.812L223.166 406.185L222.281 401.434L226.177 398.391L230.074 402.192Z" fill="#FFD984" stroke="black" stroke-width="1.5"/>
<path d="M222.137 402.252C220.336 401.374 218.886 399.906 218.025 398.096C217.164 396.286 216.943 394.238 217.397 392.286C217.852 390.335 218.955 388.592 220.527 387.348C222.099 386.105 224.046 385.432 226.051 385.435C228.055 385.443 229.998 386.13 231.563 387.384C233.126 388.638 234.219 390.385 234.662 392.34C235.103 394.295 234.87 396.343 233.997 398.146C233.125 399.953 231.667 401.405 229.861 402.276" stroke="black" stroke-width="1.5"/>
<path d="M233.617 415.04H218.384M239.285 420.177H223.521M221.395 420.177H213.425" stroke="black" stroke-width="1.5"/>
<path d="M257.529 468.533H182.782" stroke="black" stroke-width="1.5"/>
<path d="M259.477 468.533L268.865 468.71" stroke="black" stroke-width="1.5"/>
<path d="M249.637 431.818C250.675 438.737 256.978 442.169 260 443.021C253.487 443.493 250.378 450.295 249.637 453.636C248.01 446.246 241.928 443.481 239.091 443.021C244.42 442.55 248.343 435.356 249.637 431.818Z" fill="white" stroke="black" stroke-width="1.5"/>
<path d="M266.785 449.049C267.294 452.081 270.392 453.587 271.876 453.959C268.676 454.168 267.149 457.147 266.785 458.614C265.985 455.373 262.997 454.161 261.603 453.959C264.222 453.754 266.149 450.601 266.785 449.049Z" fill="#FFD984" stroke="black" stroke-width="1.5"/>
<path d="M168.139 395.911C168.806 399.956 172.864 401.962 174.811 402.461C170.617 402.734 168.616 406.712 168.139 408.664C167.091 404.345 163.175 402.726 161.349 402.461C164.78 402.185 167.305 397.98 168.139 395.911Z" fill="#FFD984" stroke="black" stroke-width="1.5"/>
</g>
<defs>
<radialGradient id="paint0_radial_114_919" cx="0" cy="0" r="1" gradientUnits="userSpaceOnUse" gradientTransform="translate(222.722 131.815) rotate(90) scale(24.2665 16.6499)">
<stop stop-color="#8B3A00"/>
<stop offset="0.0001" stop-color="#AB4300" stop-opacity="0.28"/>
</radialGradient>
<radialGradient id="paint1_radial_114_919" cx="0" cy="0" r="1" gradientUnits="userSpaceOnUse" gradientTransform="translate(274.089 132.7) rotate(90) scale(25.1521 15.2329)">
<stop stop-color="#8B3A00"/>
<stop offset="0.0001" stop-color="#AB4300" stop-opacity="0.28"/>
</radialGradient>
<linearGradient id="paint2_linear_114_919" x1="249.557" y1="85.5839" x2="249.557" y2="197.175" gradientUnits="userSpaceOnUse">
<stop/>
<stop offset="1"/>
</linearGradient>
<linearGradient id="paint3_linear_114_919" x1="230.207" y1="137.834" x2="222.873" y2="166.125" gradientUnits="userSpaceOnUse">
<stop/>
<stop offset="1" stop-color="#484848"/>
</linearGradient>
<linearGradient id="paint4_linear_114_919" x1="225.238" y1="135.082" x2="217.948" y2="163.202" gradientUnits="userSpaceOnUse">
<stop/>
<stop offset="1" stop-color="#4B4B4B"/>
</linearGradient>
<linearGradient id="paint5_linear_114_919" x1="227.296" y1="135.615" x2="220.006" y2="163.735" gradientUnits="userSpaceOnUse">
<stop/>
<stop offset="1" stop-color="#4B4B4B"/>
</linearGradient>
<linearGradient id="paint6_linear_114_919" x1="223.955" y1="134.384" x2="216.666" y2="162.503" gradientUnits="userSpaceOnUse">
<stop/>
<stop offset="1" stop-color="#4B4B4B"/>
</linearGradient>
<linearGradient id="paint7_linear_114_919" x1="243.147" y1="145.494" x2="231.102" y2="172.122" gradientUnits="userSpaceOnUse">
<stop/>
<stop offset="1" stop-color="#4B4B4B"/>
</linearGradient>
<linearGradient id="paint8_linear_114_919" x1="238.721" y1="141.936" x2="226.748" y2="168.403" gradientUnits="userSpaceOnUse">
<stop/>
<stop offset="1" stop-color="#4B4B4B"/>
</linearGradient>
<linearGradient id="paint9_linear_114_919" x1="240.657" y1="142.812" x2="228.685" y2="169.279" gradientUnits="userSpaceOnUse">
<stop/>
<stop offset="1" stop-color="#4B4B4B"/>
</linearGradient>
<linearGradient id="paint10_linear_114_919" x1="237.575" y1="141.029" x2="225.603" y2="167.495" gradientUnits="userSpaceOnUse">
<stop/>
<stop offset="1" stop-color="#4B4B4B"/>
</linearGradient>
<linearGradient id="paint11_linear_114_919" x1="273.109" y1="138.14" x2="276.742" y2="166.432" gradientUnits="userSpaceOnUse">
<stop/>
<stop offset="1" stop-color="#4B4B4B"/>
</linearGradient>
<linearGradient id="paint12_linear_114_919" x1="277.74" y1="136.151" x2="281.35" y2="164.271" gradientUnits="userSpaceOnUse">
<stop/>
<stop offset="1" stop-color="#4B4B4B"/>
</linearGradient>
<linearGradient id="paint13_linear_114_919" x1="275.944" y1="136.382" x2="279.554" y2="164.502" gradientUnits="userSpaceOnUse">
<stop/>
<stop offset="1" stop-color="#4B4B4B"/>
</linearGradient>
<linearGradient id="paint14_linear_114_919" x1="278.934" y1="135.649" x2="282.544" y2="163.769" gradientUnits="userSpaceOnUse">
<stop/>
<stop offset="1" stop-color="#4B4B4B"/>
</linearGradient>
<linearGradient id="paint15_linear_114_919" x1="260.945" y1="143.802" x2="269.653" y2="170.178" gradientUnits="userSpaceOnUse">
<stop/>
<stop offset="1" stop-color="#4B4B4B"/>
</linearGradient>
<linearGradient id="paint16_linear_114_919" x1="265.295" y1="140.948" x2="273.95" y2="167.165" gradientUnits="userSpaceOnUse">
<stop/>
<stop offset="1" stop-color="#4B4B4B"/>
</linearGradient>
<linearGradient id="paint17_linear_114_919" x1="263.529" y1="141.531" x2="272.184" y2="167.747" gradientUnits="userSpaceOnUse">
<stop/>
<stop offset="1" stop-color="#4B4B4B"/>
</linearGradient>
<linearGradient id="paint18_linear_114_919" x1="266.417" y1="140.223" x2="275.073" y2="166.439" gradientUnits="userSpaceOnUse">
<stop/>
<stop offset="1" stop-color="#484848"/>
</linearGradient>
</defs>
</svg>
