<svg width="603" height="423" viewBox="0 0 603 423" fill="none" xmlns="http://www.w3.org/2000/svg">
<g clip-path="url(#clip0_583_429)">
<rect width="603" height="422.095" rx="50" fill="#FCE1A6"/>
<path d="M603 0H0V422.095H603V0Z" fill="#FCE1A6"/>
<path d="M570.749 309.298H556.356C551.169 274.553 521.216 247.901 485.017 247.901C445.174 247.901 412.888 280.206 412.888 320.03C412.888 359.872 445.192 392.159 485.017 392.159C522.31 392.159 552.982 363.875 556.751 327.586H570.731C574.482 327.586 577.533 323.494 577.533 318.433C577.551 313.39 574.518 309.298 570.749 309.298Z" fill="#FDC48B"/>
<path d="M478.394 392.159C518.23 392.159 550.523 359.866 550.523 320.03C550.523 280.194 518.23 247.901 478.394 247.901C438.558 247.901 406.265 280.194 406.265 320.03C406.265 359.866 438.558 392.159 478.394 392.159Z" fill="#FDC48B"/>
<path d="M429.291 343.63C443.2 374.356 479.399 387.995 510.124 374.086C540.849 360.177 554.489 323.978 540.58 293.253C526.671 262.528 490.472 248.888 459.747 262.797C429.004 276.706 415.382 312.905 429.291 343.63ZM439.485 339.018C428.125 313.928 439.27 284.369 464.36 273.009C489.449 261.649 519.008 272.794 530.368 297.866C541.729 322.955 530.602 352.514 505.512 363.875C480.404 375.235 450.863 364.108 439.485 339.018Z" fill="#FDC48B"/>
<path d="M423.207 343.63C437.116 374.355 473.315 387.995 504.04 374.086C534.765 360.177 548.405 323.978 534.496 293.253C520.587 262.528 484.388 248.888 453.663 262.797C422.938 276.706 409.298 312.905 423.207 343.63ZM433.419 339.018C422.058 313.928 433.203 284.369 458.293 273.009C483.383 261.648 512.942 272.793 524.302 297.865C535.663 322.955 524.535 352.514 499.446 363.874C474.32 375.235 444.779 364.108 433.419 339.018Z" fill="#FCE1A6"/>
<path d="M564.126 309.298H539.234C540.168 315.435 540.15 321.609 539.234 327.603H564.126C567.877 327.603 570.928 323.511 570.928 318.45C570.928 313.39 567.877 309.298 564.126 309.298Z" fill="#EDEDED"/>
<path d="M478.843 368.325C506.388 368.325 528.717 345.996 528.717 318.451C528.717 290.906 506.388 268.576 478.843 268.576C451.298 268.576 428.968 290.906 428.968 318.451C428.968 345.996 451.298 368.325 478.843 368.325Z" fill="#212121"/>
<path opacity="0.4" d="M506.553 350.935C524.608 332.88 524.608 303.591 506.553 285.536C500.236 279.219 492.536 275.109 484.442 273.224C494.331 274.301 503.933 278.626 511.506 286.218C529.202 303.914 529.202 332.575 511.506 350.271C503.933 357.844 494.331 362.169 484.442 363.264C492.536 361.362 500.218 357.27 506.553 350.935Z" fill="white"/>
<path d="M469.475 260.733C469.475 260.733 470.193 260.679 471.521 260.554C471.844 260.536 472.221 260.482 472.633 260.464C473.046 260.446 473.495 260.428 473.979 260.41C474.464 260.392 474.984 260.374 475.541 260.374C476.097 260.374 476.689 260.392 477.3 260.392C477.605 260.392 477.928 260.392 478.269 260.41C478.592 260.428 478.933 260.446 479.274 260.464C479.956 260.5 480.674 260.536 481.427 260.608C482.163 260.679 482.953 260.769 483.742 260.859C484.55 260.949 485.376 261.11 486.219 261.236C489.629 261.828 493.416 262.797 497.364 264.305C498.351 264.682 499.338 265.112 500.343 265.543C500.846 265.776 501.348 266.01 501.851 266.261C502.353 266.494 502.874 266.746 503.358 267.015C503.861 267.284 504.363 267.553 504.866 267.822C505.386 268.092 505.871 268.415 506.392 268.702C507.414 269.276 508.402 269.958 509.407 270.622C511.399 272.004 513.373 273.494 515.257 275.199C516.226 276.024 517.124 276.939 518.057 277.837C518.506 278.285 518.954 278.77 519.403 279.237L520.085 279.955L520.713 280.69C524.177 284.639 527.138 289.251 529.471 294.222C530.638 296.717 531.589 299.319 532.415 301.975L532.971 303.985C533.168 304.65 533.294 305.349 533.455 306.013C533.599 306.695 533.761 307.377 533.868 308.077L534.209 310.105C534.371 311.523 534.604 312.959 534.658 314.323C534.694 315.005 534.784 315.687 534.784 316.387L534.837 318.469C534.819 321.25 534.658 324.032 534.245 326.742C534.173 327.424 534.012 328.088 533.904 328.77C533.779 329.452 533.671 330.116 533.509 330.78C533.366 331.444 533.204 332.108 533.061 332.772C532.881 333.418 532.702 334.083 532.522 334.729C531.751 337.313 530.871 339.843 529.758 342.212L529.364 343.11L528.933 343.989C528.628 344.564 528.359 345.156 528.053 345.73C527.407 346.843 526.815 347.973 526.133 349.032C524.823 351.204 523.351 353.196 521.844 355.08C521.072 356.014 520.318 356.929 519.511 357.773C519.098 358.203 518.721 358.652 518.308 359.047C517.895 359.46 517.483 359.854 517.088 360.249C516.693 360.662 516.28 361.039 515.85 361.416C515.437 361.793 515.024 362.152 514.611 362.528C513.768 363.228 512.942 363.928 512.099 364.574C508.743 367.141 505.386 369.151 502.282 370.694C501.51 371.053 500.756 371.448 500.02 371.771C499.284 372.076 498.567 372.381 497.867 372.668C497.167 372.956 496.485 373.171 495.857 373.422C495.534 373.548 495.211 373.656 494.905 373.763C494.6 373.853 494.295 373.961 493.99 374.05C493.398 374.23 492.824 374.409 492.303 374.571C491.765 374.732 491.262 374.84 490.796 374.966C490.329 375.091 489.898 375.199 489.503 375.307C489.109 375.414 488.732 375.468 488.409 375.54C487.099 375.809 486.399 375.953 486.399 375.953C486.399 375.953 487.099 375.863 488.445 375.684C488.768 375.648 489.144 375.594 489.557 375.522C489.97 375.45 490.401 375.361 490.885 375.271C491.352 375.181 491.89 375.091 492.429 374.984C492.967 374.858 493.541 374.714 494.152 374.553C494.457 374.481 494.78 374.391 495.103 374.32C495.426 374.23 495.749 374.122 496.072 374.032C496.736 373.835 497.436 373.638 498.154 373.386C498.872 373.135 499.608 372.866 500.379 372.579C501.151 372.292 501.923 371.933 502.748 371.61C505.979 370.21 509.496 368.325 513.05 365.813C516.603 363.318 520.157 360.141 523.423 356.355C525.038 354.452 526.636 352.424 528.053 350.199C528.807 349.122 529.453 347.955 530.135 346.789C530.458 346.197 530.763 345.604 531.087 344.994C531.248 344.689 531.41 344.402 531.553 344.097L531.984 343.164C534.317 338.228 536.058 332.772 536.919 327.065C537.368 324.23 537.547 321.304 537.583 318.397L537.547 316.207C537.547 315.472 537.476 314.736 537.422 314C537.368 313.264 537.332 312.51 537.242 311.828L536.991 309.711L536.614 307.503C536.506 306.785 536.327 306.067 536.165 305.349C536.004 304.65 535.878 303.914 535.663 303.214L535.071 301.114C534.191 298.332 533.204 295.604 531.948 293.002C529.489 287.797 526.277 283.059 522.616 278.985L521.934 278.232L521.234 277.496C520.749 277.011 520.3 276.527 519.816 276.06C518.829 275.145 517.878 274.211 516.855 273.404C514.862 271.699 512.745 270.191 510.663 268.827C506.445 266.135 502.138 264.125 498.028 262.743C493.9 261.343 489.988 260.554 486.506 260.123C485.627 260.033 484.783 259.926 483.976 259.872C483.15 259.818 482.361 259.782 481.607 259.746C480.853 259.728 480.117 259.728 479.417 259.728C479.076 259.728 478.735 259.728 478.394 259.728C478.071 259.746 477.748 259.764 477.425 259.782C476.797 259.818 476.205 259.836 475.648 259.872C475.092 259.926 474.572 259.98 474.087 260.033C473.602 260.087 473.154 260.123 472.741 260.177C472.328 260.231 471.969 260.303 471.628 260.338C470.175 260.626 469.475 260.733 469.475 260.733Z" fill="#EDEDED"/>
<path d="M82.9326 271.627V295.102V392.177H176.49H203.482V295.102V271.627H82.9326Z" fill="#FDC48B"/>
<path d="M196.842 392.177V271.627H76.2925V392.177H169.832H196.842Z" fill="#FF5925"/>
<path d="M196.842 271.627H76.2925V295.102H196.842V271.627Z" fill="#FF5925"/>
<path d="M58.6504 247.901V271.376V368.451H152.208L179.2 341.441V271.376V247.901H58.6504Z" fill="#FDC48B"/>
<path d="M172.56 341.441V247.901H52.0103V368.451H145.55L172.56 341.441Z" fill="#FFD55C"/>
<path d="M172.56 247.901H52.0103V271.376H172.56V247.901Z" fill="#FAB952"/>
<path opacity="0.5" d="M172.559 341.441H145.55V368.45L172.559 341.441Z" fill="#FF5925"/>
<path d="M410.231 249.535L209.19 250.001L199.157 253.465L199.175 258.616L209.208 262.026L410.267 261.559L410.231 249.535Z" fill="#FDC48B"/>
<path d="M405.819 249.491L204.759 250.047L204.792 262.071L405.852 261.516L405.819 249.491Z" fill="#F69777"/>
<path d="M405.827 255.46L204.767 256.103L204.786 262.115L405.846 261.473L405.827 255.46Z" fill="#FDC48B"/>
<path d="M194.742 253.465V258.616L204.792 262.025L204.756 250.001L194.742 253.465Z" fill="#FF5925"/>
<path d="M194.742 253.465L187.205 256.049L194.742 258.615V253.465Z" fill="#3D454A"/>
<path d="M387.367 296.627C388.336 296.017 390.777 295.299 390.777 295.299C390.777 295.299 391.962 283.939 390.867 283.293C389.754 282.647 376.994 280.188 367.554 279.434C362.188 279.003 348.799 279.273 338.3 280.511C332.916 281.157 314.341 286.272 312.582 286.703C310.823 287.133 308.275 286.254 305.834 286.29C303.393 286.236 300.827 287.098 299.068 286.667C297.309 286.218 278.788 280.978 273.404 280.296C262.923 278.968 249.535 278.627 244.168 279.003C234.728 279.685 221.95 282.072 220.837 282.701C219.725 283.347 220.837 294.707 220.837 294.707C220.837 294.707 223.278 295.443 224.247 296.053C225.198 296.681 226.491 298.207 226.419 300.378C226.383 301.653 227.155 312.636 232.054 322.525L223.601 342.428C222.901 344.097 223.673 346.017 225.324 346.717C225.719 346.897 226.132 346.969 226.544 346.987C227.837 347.004 229.075 346.251 229.613 344.994L236.29 329.255C239.61 333.383 244.043 336.721 249.911 338.085C255.026 339.287 266.746 338.462 266.746 338.462C266.746 338.462 282.898 336.972 290.561 324.678C294.904 317.733 298.189 311.452 300.863 300.378C300.881 300.271 300.935 300.181 300.988 300.073L306.426 299.499L310.536 299.84C310.393 299.607 310.195 299.373 309.962 299.158C310.393 299.553 310.698 299.966 310.788 300.396C313.372 311.487 316.62 317.787 320.91 324.75C328.501 337.098 344.636 338.695 344.636 338.695C344.636 338.695 356.355 339.61 361.47 338.444C368.469 336.847 373.422 332.503 376.922 327.299L384.155 343.379C384.711 344.636 385.967 345.353 387.26 345.3C387.672 345.282 388.085 345.192 388.48 345.012C390.131 344.277 390.867 342.338 390.113 340.687L380.817 319.994C380.817 319.994 380.817 319.994 380.799 320.012C384.55 311.039 385.232 302.047 385.196 300.917C385.124 298.763 386.398 297.238 387.367 296.627ZM292.876 307.252C292.266 309.244 290.579 316.836 284.89 324.589C282.306 328.106 277.783 333.06 264.592 334.747C260.662 335.249 255.96 335.177 252.334 334.747C248.709 334.316 245.64 332.988 243.504 331.444C236.254 326.186 233.651 317.356 233.221 313.928C230.672 294.061 234.082 292.93 235.967 290.866C243.397 282.79 285.554 283.059 292.876 296.125C293.971 298.099 293.487 305.278 292.876 307.252ZM378.304 314.431C377.837 317.859 375.181 326.671 367.895 331.875C365.759 333.401 362.654 334.729 359.047 335.124C355.422 335.518 350.72 335.572 346.789 335.034C333.598 333.257 329.129 328.268 326.563 324.732C320.928 316.943 319.294 309.334 318.702 307.36C318.11 305.368 317.661 298.189 318.774 296.233C326.186 283.221 368.343 283.239 375.72 291.369C377.568 293.415 380.978 294.581 378.304 314.431Z" fill="#FDC48B"/>
<path d="M231.103 290.076C230.403 290.848 229.47 291.494 228.734 293.038L266.583 296.196L238.802 299.103C237.617 299.229 236.594 299.983 236.128 301.078L229.308 317.14C230.062 319.455 231.264 322.236 233.113 324.91L241.404 305.403L288.675 300.467C288.711 298.332 288.549 296.25 288.029 295.335C287.132 293.72 285.696 292.32 283.865 291.081L236.343 287.115C234.01 287.923 232.18 288.91 231.103 290.076Z" fill="#333333"/>
<path d="M370.836 290.561C369.149 288.713 365.632 287.277 361.145 286.326L318.828 290.741C316.638 292.051 314.915 293.612 313.892 295.425C313.408 296.286 313.21 298.117 313.21 300.091L361.809 304.147L370.19 322.811C372.129 319.311 373.062 315.937 373.385 313.963L366.978 299.714C366.493 298.637 365.453 297.901 364.268 297.794L336.433 295.461L372.003 291.746C371.59 291.297 371.195 290.938 370.836 290.561Z" fill="#333333"/>
<path d="M227.191 322.13L218.738 342.033C218.038 343.702 218.81 345.622 220.461 346.322C220.855 346.501 221.286 346.573 221.681 346.591C222.973 346.609 224.211 345.855 224.75 344.599L231.426 328.86C229.757 326.778 228.357 324.499 227.191 322.13Z" fill="#333333"/>
<path d="M300.953 297.327C298.423 297.399 296.628 298.494 296.107 299.678L301.545 299.122L305.655 299.463C305.009 298.368 303.304 297.399 300.953 297.327Z" fill="#333333"/>
<path d="M375.917 319.635C374.876 322.13 373.602 324.607 372.023 326.922L379.255 343.002C379.812 344.258 381.068 344.976 382.36 344.94C382.773 344.922 383.186 344.832 383.58 344.653C385.232 343.917 385.967 341.979 385.214 340.328L375.917 319.635Z" fill="#333333"/>
<path opacity="0.7" d="M370.839 290.561C363.462 282.431 321.305 282.413 313.893 295.425C312.78 297.381 313.229 304.56 313.821 306.552C314.413 308.544 316.046 316.154 321.682 323.925C324.248 327.478 328.717 332.449 341.908 334.244C345.838 334.765 350.541 334.729 354.166 334.334C357.791 333.939 360.878 332.611 363.014 331.085C370.3 325.881 372.956 317.069 373.423 313.641C376.115 293.774 372.705 292.607 370.839 290.561Z" fill="#CFDBE5"/>
<path opacity="0.7" d="M231.103 290.077C229.219 292.123 225.809 293.271 228.357 313.12C228.806 316.548 231.408 325.378 238.641 330.637C240.776 332.18 243.863 333.526 247.471 333.939C251.096 334.352 255.78 334.441 259.71 333.939C272.919 332.252 277.424 327.299 280.008 323.781C285.698 316.028 287.385 308.436 287.995 306.462C288.605 304.47 289.09 297.309 287.995 295.335C280.69 282.27 238.533 282 231.103 290.077Z" fill="#CFDBE5"/>
<path d="M362.708 279.057C357.342 278.627 343.936 278.896 333.455 280.134C328.071 280.78 309.496 285.895 307.737 286.326C305.978 286.756 303.43 285.877 300.971 285.913C298.53 285.859 295.964 286.721 294.205 286.29C292.446 285.841 273.925 280.601 268.541 279.919C258.06 278.591 244.671 278.25 239.305 278.627C229.865 279.309 217.069 281.695 215.974 282.324C214.861 282.97 215.974 294.33 215.974 294.33C215.974 294.33 218.415 295.066 219.384 295.676C220.335 296.304 221.627 297.83 221.556 300.001C221.484 302.155 223.745 332.701 245.03 337.708C250.145 338.91 261.864 338.085 261.864 338.085C261.864 338.085 278.017 336.595 285.68 324.301C290.023 317.356 293.308 311.075 295.964 300.001C296.269 298.709 298.189 297.399 300.935 297.327C303.681 297.417 305.583 298.727 305.888 300.037C308.473 311.128 311.721 317.428 316.01 324.391C323.602 336.739 339.736 338.336 339.736 338.336C339.736 338.336 351.456 339.251 356.571 338.085C377.892 333.239 380.35 302.711 380.297 300.558C380.243 298.386 381.535 296.879 382.504 296.25C383.473 295.64 385.914 294.922 385.914 294.922C385.914 294.922 387.098 283.562 385.986 282.916C384.909 282.27 372.131 279.793 362.708 279.057ZM288.013 306.462C287.403 308.454 285.716 316.046 280.027 323.781C277.442 327.299 272.92 332.252 259.729 333.939C255.798 334.442 251.096 334.37 247.489 333.939C243.864 333.508 240.777 332.18 238.659 330.637C231.408 325.378 228.806 316.548 228.375 313.121C225.827 293.253 229.237 292.123 231.121 290.077C238.551 282.001 280.709 282.27 288.031 295.335C289.108 297.291 288.623 304.47 288.013 306.462ZM373.441 313.623C372.974 317.051 370.318 325.863 363.032 331.068C360.896 332.593 357.791 333.903 354.184 334.316C350.558 334.711 345.856 334.765 341.926 334.226C328.735 332.431 324.266 327.46 321.7 323.907C316.064 316.118 314.431 308.508 313.839 306.534C313.247 304.542 312.798 297.363 313.911 295.407C321.323 282.395 363.48 282.413 370.856 290.543C372.705 292.607 376.115 293.774 373.441 313.623Z" fill="#3D454A"/>
<path d="M341.997 366.997H338.785V365.435C338.785 365.094 338.516 364.825 338.175 364.825L247.13 365.059C246.789 365.059 246.519 365.346 246.519 365.669V366.907H242.607L228.465 375.019V375.073H222.865C222.56 375.073 222.435 375.306 222.596 375.575L224.857 379.38C225.019 379.649 225.414 379.883 225.719 379.883H228.483V379.919L242.625 388.031H246.537V389.054C246.537 389.395 246.807 389.664 247.148 389.664L338.193 390.059C338.534 390.059 338.803 389.789 338.803 389.448V387.851H342.015C343.702 387.851 345.084 386.469 345.084 384.8V370.048C345.048 368.379 343.684 366.997 341.997 366.997Z" fill="#FDC48B"/>
<path d="M352.981 365.076L352.873 390.076L387.24 386.487V368.594L352.981 365.076Z" fill="#FDC48B"/>
<path d="M334.155 389.484C334.155 389.825 333.886 390.095 333.545 390.095L242.482 389.7C242.141 389.7 241.872 389.413 241.872 389.089V365.723C241.872 365.382 242.141 365.112 242.482 365.112L333.545 364.879C333.886 364.879 334.155 365.148 334.155 365.489V389.484Z" fill="#FFD55C"/>
<path d="M334.155 366.997H337.367C339.054 366.997 340.418 368.379 340.418 370.048V384.8C340.418 386.487 339.036 387.851 337.367 387.851H334.155V366.997Z" fill="#333333"/>
<path d="M241.906 366.943H237.958L223.798 375.037V379.954L237.958 388.048H241.906V366.943Z" fill="#333333"/>
<path d="M223.817 379.918H221.053C220.748 379.918 220.353 379.703 220.191 379.416L217.93 375.611C217.769 375.342 217.894 375.109 218.199 375.109H223.817" fill="#FFD55C"/>
<path d="M348.351 365.076L382.629 368.594V386.487L348.243 390.076L348.351 365.076Z" fill="#3D454A"/>
<path d="M355.171 372.793H382.611V382.377H355.171C354.578 382.377 354.094 381.946 354.094 381.426V373.727C354.094 373.224 354.578 372.793 355.171 372.793Z" fill="#586773"/>
<path d="M125.27 296.897H124.48V282.072C124.48 281.839 124.265 281.624 123.996 281.624H109.207C108.938 281.624 108.723 281.821 108.723 282.072V296.897H107.933C107.664 296.897 107.448 297.112 107.448 297.381V319.887C107.448 320.156 107.664 320.371 107.933 320.371H113.55V333.975C113.55 352.927 98.134 368.343 79.182 368.343C60.23 368.343 44.8135 352.909 44.8135 333.975V128.375V104.505C44.8135 91.691 47.7568 80.5101 58.184 74.6055V68.3959C45.0648 74.5517 39.9679 87.653 39.3756 102.944H39.3218V104.505V128.375V333.993C39.3218 355.978 57.1969 373.853 79.1999 373.853C101.185 373.853 119.06 355.96 119.06 333.993V320.389H125.288C125.557 320.389 125.772 320.174 125.772 319.905V297.399C125.754 297.13 125.539 296.897 125.27 296.897Z" fill="#FDC48B"/>
<path d="M120.621 319.904C120.621 320.173 120.406 320.389 120.137 320.389H102.782C102.513 320.389 102.298 320.173 102.298 319.904V297.399C102.298 297.13 102.513 296.915 102.782 296.915H120.137C120.406 296.915 120.621 297.13 120.621 297.399V319.904Z" fill="#3D454A"/>
<path d="M108.4 320.389V333.993C108.4 352.945 92.9832 368.361 74.0492 368.361C55.0972 368.361 39.6807 352.927 39.6807 333.993V128.375V104.505C39.6807 91.691 42.624 80.5101 53.0512 74.6055V68.3959C39.932 74.5517 34.8351 87.653 34.2428 102.944H34.189V104.505V128.375V333.993C34.189 355.978 52.0641 373.853 74.0671 373.853C96.0522 373.853 113.927 355.96 113.927 333.993V320.389H108.4Z" fill="#586773"/>
<path d="M103.572 296.896V282.072C103.572 281.839 103.787 281.624 104.056 281.624H118.844C119.113 281.624 119.329 281.821 119.329 282.072V296.896" fill="#FF5925"/>
<path d="M110.194 290.059C110.194 290.328 109.925 290.543 109.584 290.543H106.748C106.407 290.543 106.138 290.328 106.138 290.059V288.031C106.138 287.762 106.407 287.546 106.748 287.546H109.584C109.925 287.546 110.194 287.762 110.194 288.031V290.059Z" fill="#D2CFD6"/>
<path d="M116.853 290.059C116.853 290.328 116.584 290.543 116.243 290.543H113.407C113.066 290.543 112.797 290.328 112.797 290.059V288.031C112.797 287.762 113.066 287.546 113.407 287.546H116.243C116.584 287.546 116.853 287.762 116.853 288.031V290.059Z" fill="#D2CFD6"/>
<path d="M308.544 39.1244V0H302.442V39.1244H58.9194V229.398H552.066V39.1244H308.544Z" fill="#FDC48B"/>
<path d="M545.821 39.1243H52.6562V229.398H545.821V39.1243Z" fill="white"/>
<path d="M93.4671 55.3484H68.8984V79.8991H93.4671V55.3484Z" fill="#FCE1A6"/>
<path d="M497.291 87.6709H472.723V112.222H497.291V87.6709Z" fill="#FCE1A6"/>
<path d="M465.005 87.6709H440.437V112.222H465.005V87.6709Z" fill="#FCE1A6"/>
<path d="M432.701 87.6709H408.132V112.222H432.701V87.6709Z" fill="#FCE1A6"/>
<path d="M400.378 87.6709H375.809V112.222H400.378V87.6709Z" fill="#FCE1A6"/>
<path d="M368.056 87.6709H343.505V112.222H368.056V87.6709Z" fill="#FCE1A6"/>
<path d="M335.769 87.6709H311.2V112.222H335.769V87.6709Z" fill="#FCE1A6"/>
<path d="M303.465 87.6709H278.878V112.222H303.465V87.6709Z" fill="#FCE1A6"/>
<path d="M271.142 87.6709H246.573V112.222H271.142V87.6709Z" fill="#FCE1A6"/>
<path d="M238.855 87.6709H214.287V112.222H238.855V87.6709Z" fill="#FCE1A6"/>
<path d="M206.551 87.6709H181.982V112.222H206.551V87.6709Z" fill="#FCE1A6"/>
<path d="M174.228 87.6709H149.66V112.222H174.228V87.6709Z" fill="#FCE1A6"/>
<path d="M141.942 87.6709H117.373V112.222H141.942V87.6709Z" fill="#FCE1A6"/>
<path d="M149.713 119.939H125.144V144.508H149.713V119.939Z" fill="#FCE1A6"/>
<path d="M133.92 152.244H109.351V176.813H133.92V152.244Z" fill="#FCE1A6"/>
<path d="M166.224 152.244H141.655V176.813H166.224V152.244Z" fill="#FCE1A6"/>
<path d="M198.511 152.244H173.942V176.813H198.511V152.244Z" fill="#FCE1A6"/>
<path d="M230.815 152.244H206.247V176.813H230.815V152.244Z" fill="#FCE1A6"/>
<path d="M263.12 152.244H238.533V176.813H263.12V152.244Z" fill="#FCE1A6"/>
<path d="M295.406 152.244H270.855V176.813H295.406V152.244Z" fill="#FCE1A6"/>
<path d="M327.729 152.244H303.16V176.813H327.729V152.244Z" fill="#FCE1A6"/>
<path d="M360.034 152.244H335.465V176.813H360.034V152.244Z" fill="#FCE1A6"/>
<path d="M392.32 152.244H367.769V176.813H392.32V152.244Z" fill="#FCE1A6"/>
<path d="M424.643 152.244H400.056V176.813H424.643V152.244Z" fill="#FCE1A6"/>
<path d="M456.929 152.244H432.36V176.813H456.929V152.244Z" fill="#FCE1A6"/>
<path d="M529.597 152.244H464.593V176.813H529.597V152.244Z" fill="#FCE1A6"/>
<path d="M182.017 119.939H157.449V144.508H182.017V119.939Z" fill="#FCE1A6"/>
<path d="M214.322 119.939H189.753V144.508H214.322V119.939Z" fill="#FCE1A6"/>
<path d="M246.591 119.939H222.04V144.508H246.591V119.939Z" fill="#FCE1A6"/>
<path d="M278.931 119.939H254.345V144.508H278.931V119.939Z" fill="#FCE1A6"/>
<path d="M311.2 119.939H286.631V144.508H311.2V119.939Z" fill="#FCE1A6"/>
<path d="M343.504 119.939H318.936V144.508H343.504V119.939Z" fill="#FCE1A6"/>
<path d="M375.791 119.939H351.222V144.508H375.791V119.939Z" fill="#FCE1A6"/>
<path d="M408.095 119.939H383.544V144.508H408.095V119.939Z" fill="#FCE1A6"/>
<path d="M440.4 119.939H415.813V144.508H440.4V119.939Z" fill="#FCE1A6"/>
<path d="M472.686 119.939H448.118V144.508H472.686V119.939Z" fill="#FCE1A6"/>
<path d="M504.973 119.939H480.422V144.508H504.973V119.939Z" fill="#FCE1A6"/>
<path d="M125.772 55.3484H101.203V79.8992H125.772V55.3484Z" fill="#FCE1A6"/>
<path d="M158.076 55.3484H133.507V79.8992H158.076V55.3484Z" fill="#FCE1A6"/>
<path d="M190.381 55.3484H165.812V79.8992H190.381V55.3484Z" fill="#FCE1A6"/>
<path d="M222.667 55.3484H198.099V79.8992H222.667V55.3484Z" fill="#FCE1A6"/>
<path d="M254.99 55.3484H230.421V79.8992H254.99V55.3484Z" fill="#FCE1A6"/>
<path d="M287.276 55.3484H262.726V79.8992H287.276V55.3484Z" fill="#FCE1A6"/>
<path d="M319.599 55.3484H295.03V79.8992H319.599V55.3484Z" fill="#FCE1A6"/>
<path d="M351.904 55.3484H327.335V79.8992H351.904V55.3484Z" fill="#FCE1A6"/>
<path d="M384.19 55.3484H359.639V79.8992H384.19V55.3484Z" fill="#FCE1A6"/>
<path d="M416.494 55.3484H391.926V79.8992H416.494V55.3484Z" fill="#FCE1A6"/>
<path d="M448.799 55.3484H424.248V79.8992H448.799V55.3484Z" fill="#FCE1A6"/>
<path d="M481.104 55.3484H456.535V79.8992H481.104V55.3484Z" fill="#FCE1A6"/>
<path d="M529.578 55.3484H488.839V79.8992H529.578V55.3484Z" fill="#FCE1A6"/>
<path d="M109.637 87.653H68.8984V112.222H109.637V87.653Z" fill="#FCE1A6"/>
<path d="M117.444 119.939H68.8984V144.508H117.444V119.939Z" fill="#FCE1A6"/>
<path d="M101.633 152.244H68.8984V176.813H101.633V152.244Z" fill="#FCE1A6"/>
<path d="M93.485 184.531H68.8984V213.173H93.485V184.531Z" fill="#FCE1A6"/>
<path d="M125.682 184.531H101.095V213.173H125.682V184.531Z" fill="#FCE1A6"/>
<path d="M157.879 184.531H133.31V213.173H157.879V184.531Z" fill="#FCE1A6"/>
<path d="M198.51 184.531H165.525V213.173H198.51V184.531Z" fill="#FCE1A6"/>
<path d="M360.034 184.531H206.229V213.174H360.034V184.531Z" fill="#FCE1A6"/>
<path d="M400.719 184.531H367.751V213.173H400.719V184.531Z" fill="#FCE1A6"/>
<path d="M432.988 184.531H408.401V213.173H432.988V184.531Z" fill="#FCE1A6"/>
<path d="M465.257 199.821H440.688V213.174H465.257V199.821Z" fill="#FCE1A6"/>
<path d="M497.417 200.611H472.849V213.156H497.417V200.611Z" fill="#FCE1A6"/>
<path d="M497.417 184.459H472.849V197.021H497.417V184.459Z" fill="#FCE1A6"/>
<path d="M529.578 199.821H505.01V213.174H529.578V199.821Z" fill="#FCE1A6"/>
<path d="M512.691 144.507V112.222H505.028V87.6709H529.597V144.507H512.691Z" fill="#FCE1A6"/>
<path d="M302.28 0H296.179V39.1412H302.28V0Z" fill="#FF5925"/>
<path d="M552.741 249.304L546.498 255.547L552.741 261.791L558.984 255.547L552.741 249.304Z" fill="#FF5925"/>
<path d="M34.6581 41.1616L28.4155 47.4059L34.6598 53.6484L40.9024 47.4041L34.6581 41.1616Z" fill="#FF5925"/>
<path d="M34.6561 376.139L28.4136 382.384L34.6579 388.626L40.9005 382.382L34.6561 376.139Z" fill="#FF5925"/>
<path d="M520.952 16.2314L514.709 22.4748L520.952 28.7182L527.196 22.4748L520.952 16.2314Z" fill="#FF5925"/>
<path d="M188.553 359.956L184.972 363.533L188.549 367.114L192.13 363.537L188.553 359.956Z" fill="#FF5925"/>
<path d="M398.656 374.027L395.076 377.604L398.652 381.184L402.233 377.608L398.656 374.027Z" fill="#FF5925"/>
<path d="M58.6655 378.783L55.0854 382.36L58.6625 385.94L62.2426 382.363L58.6655 378.783Z" fill="#FF5925"/>
<path d="M301.503 341.869L299.141 344.228L301.5 346.589L303.862 344.23L301.503 341.869Z" fill="#FF5925"/>
<path d="M552.75 375.252L550.389 377.611L552.748 379.972L555.109 377.613L552.75 375.252Z" fill="#FF5925"/>
<path d="M423.249 251.068L420.888 253.427L423.248 255.788L425.609 253.429L423.249 251.068Z" fill="#FF5925"/>
<path d="M93.457 235.997L91.0957 238.356L93.455 240.718L95.8163 238.358L93.457 235.997Z" fill="#FF5925"/>
<path d="M577.262 152.189L574.9 154.548L577.26 156.909L579.621 154.55L577.262 152.189Z" fill="#FF5925"/>
<path d="M577.25 360.936L574.889 363.296L577.248 365.657L579.609 363.298L577.25 360.936Z" fill="#FF5925"/>
<path d="M339.619 20.1046L337.258 22.4643L339.617 24.8253L341.978 22.4656L339.619 20.1046Z" fill="#FF5925"/>
<path d="M577.254 47.4111L573.675 50.9886L577.252 54.5682L580.832 50.9907L577.254 47.4111Z" fill="#FF5925"/>
<path d="M88.1274 18.9044L84.5479 22.482L88.1254 26.0616L91.705 22.484L88.1274 18.9044Z" fill="#FF5925"/>
<path d="M142.675 205.91L139.095 209.488L142.673 213.067L146.252 209.49L142.675 205.91Z" fill="#FF5925"/>
</g>
<defs>
<clipPath id="clip0_583_429">
<rect width="603" height="422.095" rx="50" fill="white"/>
</clipPath>
</defs>
</svg>
