<svg width="25" height="25" viewBox="0 0 25 25" fill="none" xmlns="http://www.w3.org/2000/svg">
<path d="M3.75 7.5C3.75 6.50544 4.14509 5.55161 4.84835 4.84835C5.55161 4.14509 6.50544 3.75 7.5 3.75H17.5C18.4946 3.75 19.4484 4.14509 20.1517 4.84835C20.8549 5.55161 21.25 6.50544 21.25 7.5V17.5C21.25 18.4946 20.8549 19.4484 20.1517 20.1517C19.4484 20.8549 18.4946 21.25 17.5 21.25H7.5C6.50544 21.25 5.55161 20.8549 4.84835 20.1517C4.14509 19.4484 3.75 18.4946 3.75 17.5V7.5ZM5 12.5V17.5C5 18.163 5.26339 18.7989 5.73223 19.2678C6.20107 19.7366 6.83696 20 7.5 20H13.75V12.5H5ZM13.75 11.25V5H7.5C6.83696 5 6.20107 5.26339 5.73223 5.73223C5.26339 6.20107 5 6.83696 5 7.5V11.25H13.75ZM15 20H17.5C18.163 20 18.7989 19.7366 19.2678 19.2678C19.7366 18.7989 20 18.163 20 17.5V16.25H15V20ZM20 8.75V7.5C20 6.83696 19.7366 6.20107 19.2678 5.73223C18.7989 5.26339 18.163 5 17.5 5H15V8.75H20ZM20 10H15V15H20V10Z" fill="#5F5F6A"/>
</svg>
