<svg width="300" height="288" viewBox="0 0 300 288" fill="none" xmlns="http://www.w3.org/2000/svg">
<path d="M169.323 286.299C157.61 280.754 152.942 267.573 151.291 255.296C151.012 253.257 150.428 251.138 151.094 249.181C151.76 247.224 153.812 245.627 155.782 246.178C157.419 246.633 158.377 248.277 159.471 249.575C160.926 251.326 162.849 252.626 165.016 253.325C166.429 253.781 168.107 253.923 169.269 252.999C170.859 251.729 170.628 249.269 170.302 247.244C169.636 243.489 168.984 239.734 168.345 235.979C167.885 233.976 167.749 231.911 167.944 229.864C168.243 227.826 169.337 225.788 171.171 224.945C173.006 224.103 175.581 224.789 176.322 226.705C176.54 227.529 176.703 228.366 176.811 229.212C177.008 230.048 177.558 230.911 178.394 231.013C179.23 231.114 179.957 230.401 180.466 229.701C182.205 227.303 183.184 224.429 184.067 221.582C184.95 218.735 185.779 215.834 187.301 213.279C188.823 210.724 191.147 208.523 194.021 207.844C196.895 207.164 200.292 208.455 201.495 211.18C202.697 213.904 201.536 217.091 200.136 219.713C198.01 223.597 195.335 227.153 192.193 230.272C191.567 230.771 191.115 231.456 190.902 232.229C190.692 233.656 192.2 234.783 193.62 235.001C195.21 235.245 196.827 234.811 198.437 234.729C200.048 234.648 201.875 235.055 202.731 236.448C203.907 238.378 202.541 240.844 201.08 242.563C198.146 245.988 194.646 248.883 190.732 251.124C189.333 251.919 187.845 252.666 186.819 253.916C185.793 255.167 185.378 257.11 186.343 258.414C187.308 259.719 189.258 259.862 190.766 259.304C192.275 258.747 193.532 257.667 194.925 256.858C197.534 255.336 201.162 254.915 203.356 257.021C204.041 257.758 204.545 258.643 204.829 259.608C205.113 260.572 205.17 261.589 204.994 262.579C204.632 264.551 203.877 266.43 202.772 268.103C199.253 274.152 194.194 279.159 188.11 282.616C182.029 285.945 176.145 287.569 169.33 286.305" fill="#FFE9B9"/>
<path d="M171.178 278.104C172.079 271.112 173.381 264.177 175.078 257.334L176.382 251.946C176.81 250.173 177.238 248.42 177.741 246.735C178.757 243.501 179.95 240.325 181.315 237.223C182.599 234.247 183.924 231.461 185.181 228.872C186.438 226.284 187.668 223.892 188.877 221.765C190.765 218.392 192.919 215.175 195.318 212.144C196.168 211.071 196.854 210.262 197.323 209.719C197.547 209.461 197.73 209.257 197.859 209.1C197.988 208.944 198.05 208.897 198.056 208.903C198.007 208.982 197.953 209.057 197.893 209.128L197.377 209.766C196.929 210.323 196.263 211.125 195.434 212.233C193.087 215.293 190.972 218.525 189.108 221.901C187.919 224.035 186.71 226.426 185.46 229.015C184.209 231.604 182.905 234.389 181.634 237.365C180.281 240.468 179.102 243.644 178.101 246.877C177.578 248.556 177.157 250.275 176.742 252.068L175.438 257.463C173.745 264.292 172.436 271.21 171.517 278.186" fill="#E0E0E0"/>
<path d="M177.857 246.708C177.71 246.443 177.594 246.163 177.511 245.872C177.307 245.335 177.042 244.513 176.729 243.555C176.104 241.585 175.33 238.833 174.487 235.803C173.645 232.772 172.836 230.034 172.177 228.084C171.851 227.106 171.579 226.311 171.389 225.774C171.275 225.495 171.186 225.206 171.124 224.911C171.288 225.165 171.422 225.436 171.525 225.72C171.763 226.243 172.068 227.024 172.429 227.989C173.156 229.932 174.005 232.657 174.854 235.701C175.703 238.745 176.417 241.408 176.988 243.473C177.253 244.411 177.47 245.199 177.667 245.831C177.756 246.117 177.82 246.41 177.857 246.708Z" fill="#E0E0E0"/>
<path d="M203.099 237.426C202.77 237.563 202.429 237.666 202.079 237.732C201.4 237.902 200.469 238.146 199.3 238.486C196.956 239.166 193.756 240.171 190.271 241.462C186.785 242.753 183.68 244.064 181.438 245.07C180.324 245.566 179.434 245.994 178.815 246.286C178.505 246.455 178.18 246.596 177.844 246.707C178.125 246.491 178.428 246.304 178.747 246.15C179.345 245.817 180.222 245.355 181.322 244.791C183.517 243.718 186.615 242.366 190.108 241.068C193.088 239.953 196.125 238.994 199.205 238.194C200.388 237.881 201.352 237.678 202.025 237.549C202.378 237.474 202.738 237.434 203.099 237.426Z" fill="#E0E0E0"/>
<path d="M171.416 277.581C171.329 277.492 171.251 277.394 171.185 277.289L170.58 276.426C170.057 275.665 169.33 274.558 168.453 273.172C166.687 270.399 164.377 266.493 161.883 262.144C159.389 257.796 157.127 253.875 155.408 251.076L153.37 247.754L152.826 246.85C152.754 246.75 152.697 246.64 152.656 246.524C152.656 246.524 152.745 246.612 152.887 246.809C153.03 247.006 153.254 247.326 153.492 247.679C154.015 248.433 154.742 249.541 155.625 250.934C157.385 253.706 159.702 257.606 162.196 261.954C164.689 266.302 166.952 270.223 168.664 273.029L170.702 276.345C170.92 276.705 171.103 277.024 171.246 277.248C171.319 277.35 171.376 277.462 171.416 277.581Z" fill="#E0E0E0"/>
<path d="M204.151 260.561C204.056 260.645 203.948 260.713 203.832 260.765L202.888 261.268L199.382 263.095C196.419 264.644 192.356 266.825 187.872 269.21C183.388 271.595 179.304 273.776 176.321 275.257C174.827 275.998 173.604 276.616 172.761 276.976L171.742 277.425C171.63 277.484 171.511 277.53 171.389 277.561C171.486 277.479 171.593 277.411 171.708 277.357L172.659 276.854L176.165 275.02C179.121 273.477 183.184 271.296 187.668 268.905C192.152 266.513 196.243 264.346 199.219 262.864C200.713 262.124 201.936 261.505 202.779 261.145L203.757 260.697C203.881 260.632 204.014 260.586 204.151 260.561Z" fill="#E0E0E0"/>
<path d="M84.3664 140.457C84.3664 140.457 76.2946 141.578 80.8265 159.257C85.3584 176.936 89.204 186.054 89.204 186.054C89.204 186.054 89.8087 190.056 86.5813 189.933C83.354 189.811 76.7702 187.216 74.5349 190.674C72.2248 194.289 74.2495 198.637 79.2909 203.196C84.3324 207.755 95.0811 218.144 96.0459 219.088C97.0107 220.033 97.7174 221.976 95.5024 222.241C93.2874 222.506 77.5788 220.664 77.1575 228.172C76.7362 235.68 92.9273 246.062 94.6735 247.231C96.4196 248.399 96.7118 249.31 96.3041 250.329C95.8965 251.348 90.692 250.227 86.2009 249.88C81.7098 249.534 76.4373 249.935 76.5528 254.283C76.6683 258.632 85.1749 269.639 109.974 277.819L121.722 280.856L130.398 272.309C147.86 252.884 149.769 239.111 147.711 235.279C145.652 231.447 140.916 233.723 137.152 236.251C133.388 238.778 129.447 242.366 128.605 241.686C127.762 241.007 127.545 240.069 128.482 238.187C129.42 236.305 138.314 219.251 134.21 212.946C130.106 206.641 117.387 216.031 115.349 216.894C113.311 217.756 112.944 215.705 113.311 214.427C113.677 213.15 117.822 198.8 119.955 192.311C122.089 185.823 121.681 181.053 117.876 179.069C114.207 177.16 109.798 182.704 107.053 184.416C104.308 186.129 102.854 182.378 102.854 182.378C102.854 182.378 101.658 172.56 96.8069 154.963C91.9557 137.365 84.2169 140.518 84.2169 140.518" fill="#FCE1A6"/>
<path d="M121.715 283.778C118.203 270.868 112.339 247.768 107.209 227.935C102.08 208.102 97.4186 190.219 93.967 177.269C92.2413 170.801 90.8416 165.569 89.8904 161.934C89.4148 160.133 89.0411 158.727 88.7829 157.762L88.4975 156.675C88.4364 156.43 88.416 156.301 88.416 156.301C88.416 156.301 88.4636 156.417 88.5383 156.661C88.613 156.906 88.715 157.28 88.8509 157.742C89.1294 158.706 89.5303 160.099 90.0331 161.893C91.0522 165.501 92.4927 170.726 94.2456 177.194C97.7583 190.103 102.467 208.047 107.597 227.84C112.726 247.632 118.542 270.753 121.994 283.703" fill="#E0E0E0"/>
<path d="M83.5986 194.71C83.87 194.822 84.1295 194.961 84.3732 195.124C84.8556 195.41 85.5486 195.845 86.4115 196.388C88.1033 197.482 90.4066 199.052 92.9138 200.825L99.3141 205.391L101.264 206.75C101.51 206.903 101.738 207.083 101.944 207.286C101.669 207.176 101.408 207.037 101.162 206.872C100.68 206.587 99.9867 206.152 99.1238 205.601C97.4456 204.494 95.1627 202.884 92.6556 201.117L86.2213 196.599L84.2645 195.24C84.0243 195.088 83.801 194.91 83.5986 194.71Z" fill="#E0E0E0"/>
<path d="M102.929 206.723C102.84 206.668 105.864 201.783 109.675 195.811C113.487 189.839 116.66 185.042 116.748 185.096C116.837 185.151 113.813 190.042 109.995 196.015C106.176 201.987 103.017 206.764 102.929 206.723Z" fill="#E0E0E0"/>
<path d="M109.438 237.487C109.626 237.253 109.842 237.043 110.083 236.862L111.911 235.259C113.453 233.9 115.58 232.025 117.849 229.864C120.118 227.703 122.116 225.686 123.543 224.211C124.222 223.532 124.779 222.927 125.234 222.465C125.44 222.237 125.668 222.03 125.914 221.847C125.763 222.106 125.581 222.346 125.37 222.56C125.003 223.002 124.453 223.627 123.76 224.388C122.401 225.917 120.417 227.975 118.134 230.136C115.851 232.296 113.704 234.158 112.114 235.463C111.313 236.142 110.66 236.631 110.198 236.978C109.964 237.175 109.709 237.346 109.438 237.487Z" fill="#E0E0E0"/>
<path d="M89.5635 230.469C89.8377 230.502 90.107 230.568 90.3652 230.666L92.519 231.345C94.3263 231.923 96.8199 232.745 99.5648 233.669C102.31 234.593 104.79 235.463 106.577 236.108L108.69 236.883C108.953 236.965 109.206 237.077 109.444 237.216C109.169 237.188 108.9 237.124 108.642 237.025L106.488 236.346C104.681 235.768 102.187 234.946 99.4425 234.015C96.6976 233.085 94.2176 232.222 92.4307 231.583L90.3177 230.802C90.0525 230.725 89.7988 230.613 89.5635 230.469Z" fill="#E0E0E0"/>
<path d="M91.8604 258.36C92.21 258.412 92.5536 258.499 92.8863 258.618L95.6448 259.461C97.9685 260.188 101.169 261.214 104.702 262.375C108.235 263.537 111.421 264.597 113.725 265.392L116.443 266.343C116.781 266.452 117.11 266.586 117.428 266.744C117.076 266.692 116.73 266.606 116.395 266.486L113.636 265.643C111.313 264.916 108.113 263.891 104.579 262.729C101.046 261.567 97.8598 260.5 95.5633 259.712L92.8455 258.754C92.5059 258.653 92.1762 258.521 91.8604 258.36Z" fill="#E0E0E0"/>
<path d="M116.87 266.37C117.109 266.077 117.375 265.806 117.665 265.562L119.914 263.449C121.81 261.662 124.419 259.182 127.225 256.362C130.031 253.543 132.511 250.927 134.291 249.024L136.397 246.769C136.645 246.48 136.916 246.212 137.206 245.967C137.008 246.286 136.78 246.587 136.526 246.864C136.064 247.428 135.371 248.223 134.488 249.201C132.755 251.158 130.309 253.808 127.49 256.627C124.67 259.447 122.054 261.906 120.097 263.646C119.119 264.509 118.324 265.209 117.76 265.684C117.483 265.937 117.185 266.167 116.87 266.37Z" fill="#E0E0E0"/>
<path d="M49.3074 35.0279L42.6761 32.9896C42.6761 32.9896 40.9367 38.561 35.1207 36.8556C33.9948 36.5456 32.993 35.8932 32.2541 34.9887C31.5152 34.0843 31.0758 32.9726 30.9965 31.8074C30.9095 30.8248 31.0583 29.8356 31.4305 28.9221C31.8028 28.0086 32.3877 27.1972 33.1368 26.5553C34.8422 25.0469 37.8317 24.1297 42.051 26.3107L46.7188 11.363L40.1622 9.32471L37.4444 18.0827C37.4444 18.0827 27.4974 17.5867 24.338 27.7172C21.3145 37.4128 29.3047 42.3795 33.028 43.5413C35.8545 44.4246 45.7811 46.7619 49.3074 35.0279Z" fill="#FFE9B9"/>
<path d="M41.0495 6.21354L47.7041 8.29004L49.643 2.07648L42.9884 -2.04084e-05L41.0495 6.21354Z" fill="#FFE9B9"/>
<path d="M67.6038 18.1509L70.2604 17.4714C70.1793 17.1697 70.1597 16.8548 70.2027 16.5454C70.2458 16.2359 70.3506 15.9383 70.511 15.6702C70.6713 15.4021 70.884 15.1689 71.1362 14.9847C71.3885 14.8004 71.6752 14.6687 71.9794 14.5974C72.422 14.4638 72.8952 14.4711 73.3335 14.6184C73.7717 14.7657 74.1533 15.0457 74.4254 15.4195C74.6564 15.7299 74.8106 16.0906 74.8756 16.472C74.9405 16.8534 74.9143 17.2448 74.7991 17.6141C74.5477 18.477 73.7392 19.4146 71.8639 19.5709L73.447 25.5568L76.0696 24.8773L75.1456 21.3714C76.1402 20.7716 76.9098 19.8612 77.3359 18.7807C77.7619 17.7002 77.8207 16.5096 77.5033 15.3923C76.4841 11.5059 72.7472 11.5263 71.2728 11.9136C70.1313 12.1786 66.3197 13.4763 67.6038 18.1509Z" fill="#FCE1A6"/>
<path d="M76.9951 25.7501L74.3193 26.4673L74.9889 28.9651L77.6646 28.2479L76.9951 25.7501Z" fill="#FCE1A6"/>
<path d="M286.935 86.9167L289.516 87.8475C289.625 87.5552 289.791 87.2875 290.004 87.0601C290.217 86.8328 290.474 86.6504 290.759 86.5238C291.044 86.3972 291.351 86.3288 291.663 86.3228C291.975 86.3168 292.284 86.3732 292.574 86.4887C293.009 86.6286 293.39 86.8995 293.665 87.2644C293.94 87.6294 294.095 88.0703 294.109 88.527C294.125 88.9167 294.049 89.3046 293.886 89.6589C293.723 90.0133 293.478 90.3239 293.172 90.5653C292.492 91.1292 291.276 91.435 289.646 90.4974L287.532 96.3202L290.087 97.2442L291.324 93.847C292.483 93.9188 293.635 93.6081 294.6 92.9625C295.566 92.3169 296.294 91.3721 296.671 90.2731C298.03 86.4955 294.966 84.396 293.518 83.8728C292.411 83.438 288.538 82.3441 286.935 86.9167Z" fill="#FCE1A6"/>
<path d="M289.705 98.4247L287.111 97.4854L286.234 99.9065L288.828 100.846L289.705 98.4247Z" fill="#FCE1A6"/>
<path d="M12.9296 116.486L18.3651 114.38C18.3651 114.38 16.5986 109.793 21.3343 107.87C22.2406 107.487 23.2436 107.394 24.205 107.605C25.1663 107.815 26.0387 108.319 26.7019 109.046C27.266 109.651 27.6795 110.38 27.9085 111.174C28.1376 111.969 28.1758 112.806 28.02 113.619C27.6802 115.507 26.1855 117.695 22.2515 118.449L27.0076 130.768L32.4431 128.689L29.6574 121.473C29.6574 121.473 36.4518 116.595 33.2652 108.237C30.1738 100.247 22.2651 101.158 19.228 102.333C16.8839 103.237 9.11115 106.885 12.9296 116.486Z" fill="#FFE9B9"/>
<path d="M33.4725 131.196L27.9883 133.309L29.9619 138.432L35.4462 136.319L33.4725 131.196Z" fill="#FFE9B9"/>
<path d="M289.061 137.215L285.188 138.703C285.188 138.703 286.439 141.958 283.082 143.317C282.439 143.585 281.73 143.65 281.049 143.502C280.369 143.353 279.75 142.999 279.277 142.488C278.878 142.059 278.585 141.542 278.423 140.979C278.261 140.416 278.235 139.822 278.346 139.247C278.591 137.888 279.651 136.366 282.423 135.85L279.094 127.092L275.262 128.566L277.232 133.682C275.838 134.749 274.832 136.245 274.371 137.939C273.909 139.633 274.017 141.432 274.677 143.059C276.858 148.718 282.443 148.08 284.618 147.244C286.262 146.599 291.765 144.017 289.061 137.215Z" fill="#FFE9B9"/>
<path d="M274.503 126.792L278.39 125.294L276.992 121.668L273.106 123.165L274.503 126.792Z" fill="#FFE9B9"/>
<path d="M300 287.46C300 287.562 232.837 287.637 150.007 287.637C67.1762 287.637 0 287.562 0 287.46C0 287.358 67.1491 287.284 150.007 287.284C232.865 287.284 300 287.365 300 287.46Z" fill="#263238"/>
<path d="M43.0834 269.815C43.7628 267.315 42.0846 264.808 40.2501 263.021C38.4156 261.234 36.2211 259.59 35.263 257.191C33.7139 253.305 35.793 248.277 33.1568 245.036C31.6009 243.134 28.8152 242.495 27.4359 240.457C26.7982 239.333 26.3764 238.1 26.1925 236.822C24.7264 230.366 21.5513 224.424 16.9997 219.618C16.6929 225.368 17.9391 231.094 20.6075 236.197C21.6742 238.235 22.9924 240.219 23.3253 242.495C23.9028 246.184 21.8373 249.969 22.7478 253.611C23.7873 257.755 28.4415 260.534 28.6589 264.801C28.8491 268.409 25.7033 271.595 25.9411 275.183C26.1317 276.719 26.6886 278.187 27.565 279.463C30.3507 284.104 34.4545 287.297 40.6646 287.195L48.2743 287.46L43.0834 269.815Z" fill="#FF9675"/>
<g opacity="0.3">
<path d="M43.0834 269.815C43.7628 267.315 42.0846 264.808 40.2501 263.021C38.4156 261.234 36.2211 259.59 35.263 257.191C33.7139 253.305 35.793 248.277 33.1568 245.036C31.6009 243.134 28.8152 242.495 27.4359 240.457C26.7982 239.333 26.3764 238.1 26.1925 236.822C24.7264 230.366 21.5513 224.424 16.9997 219.618C16.6929 225.368 17.9391 231.094 20.6075 236.197C21.6742 238.235 22.9924 240.219 23.3253 242.495C23.9028 246.184 21.8373 249.969 22.7478 253.611C23.7873 257.755 28.4415 260.534 28.6589 264.801C28.8491 268.409 25.7033 271.595 25.9411 275.183C26.1317 276.719 26.6886 278.187 27.565 279.463C30.3507 284.104 34.4545 287.297 40.6646 287.195L48.2743 287.46L43.0834 269.815Z" fill="black"/>
</g>
<path d="M49.81 287.617C50.5069 287.724 51.2172 287.711 51.9094 287.576C52.7499 287.448 53.5759 287.239 54.3758 286.951C55.4804 286.567 56.5136 286.002 57.4333 285.279C57.9866 284.835 58.4189 284.257 58.6902 283.601C58.9175 282.866 59.0365 282.101 59.0435 281.332C59.0589 280.509 59.1201 279.688 59.227 278.872C59.3701 278.004 59.6842 277.173 60.151 276.426C61.0479 274.85 62.5427 273.355 63.0183 271.215C63.4939 269.075 63.1677 266.833 62.8144 264.55C62.4611 262.267 62.135 259.794 62.9911 257.402C63.8472 255.01 65.4778 252.87 66.3136 250.193C67.1493 247.516 66.7552 244.567 66.9318 241.693C66.984 240.233 67.321 238.798 67.9238 237.467C68.5353 236.108 69.3914 234.851 70.0573 233.438C71.4161 230.571 71.6472 227.323 72.0141 224.137C72.1975 222.533 72.3742 220.909 72.5576 219.279C72.6733 217.63 72.9578 215.998 73.4069 214.407C73.9224 212.804 74.5304 211.232 75.2278 209.699C75.587 208.906 75.8823 208.086 76.1111 207.246C76.2391 206.376 76.3207 205.501 76.3557 204.623C76.4367 202.865 76.3685 201.104 76.1518 199.357C75.948 197.605 75.6287 195.865 75.4384 194.105C75.4384 193.997 75.4384 193.895 75.4384 193.8L75.3977 193.453L75.0919 193.603C73.4855 194.427 72.0905 195.61 71.0153 197.061C69.9607 198.481 69.1121 200.044 68.4946 201.702C67.224 204.97 66.7688 208.394 66.1301 211.662C65.4914 214.93 64.6761 218.144 63.0047 220.862C62.169 222.221 61.1566 223.457 60.2869 224.775C59.3426 226.062 58.6972 227.543 58.3981 229.11C57.9429 232.331 59.7162 235.157 59.3493 238.011C59.1837 239.409 58.7204 240.755 57.9904 241.958C57.311 243.175 56.4889 244.302 55.7143 245.43C54.9292 246.537 54.2469 247.712 53.676 248.943C53.1385 250.147 52.821 251.438 52.7383 252.755C52.5549 255.323 52.915 257.755 52.7383 260.052C52.5262 262.241 51.8868 264.367 50.8563 266.309C49.939 268.178 48.9131 269.87 48.057 271.514C47.6289 272.329 47.2281 273.131 46.902 273.94C46.5933 274.716 46.3656 275.522 46.2225 276.345C45.9951 277.782 45.9768 279.244 46.1682 280.686C46.3678 282.698 47.1203 284.614 48.3424 286.224C48.5292 286.467 48.736 286.694 48.9607 286.903C49.1107 287.061 49.277 287.202 49.4566 287.325C49.742 287.535 49.8915 287.63 49.8915 287.63C49.3483 287.201 48.8539 286.713 48.4171 286.176C47.2506 284.561 46.5459 282.658 46.3788 280.673C46.2058 279.249 46.2378 277.807 46.4739 276.392C46.617 275.589 46.8447 274.803 47.1533 274.048C47.4976 273.231 47.8854 272.433 48.3152 271.657C49.1781 270.026 50.2108 268.341 51.1485 266.459C52.2097 264.486 52.8701 262.322 53.0916 260.093C53.2955 257.749 52.9422 255.303 53.1324 252.802C53.2199 251.528 53.5304 250.279 54.0497 249.113C54.6242 247.908 55.3064 246.757 56.088 245.675C56.8625 244.547 57.6847 243.419 58.3913 242.176C59.1668 240.926 59.6628 239.524 59.8453 238.065C60.2122 235.028 58.4524 232.188 58.9077 229.192C59.2055 227.693 59.8295 226.278 60.7354 225.047C61.5982 223.749 62.6174 222.513 63.4531 221.12C65.1857 218.327 66.0214 215.053 66.6533 211.771C67.2852 208.489 67.754 205.092 69.0041 201.885C69.6054 200.273 70.4312 198.754 71.4569 197.373C72.4912 195.981 73.8328 194.847 75.3773 194.058L75.0308 193.861C75.0308 193.963 75.0308 194.065 75.0647 194.173C75.255 195.953 75.5743 197.693 75.7442 199.432C75.9587 201.151 76.0247 202.886 75.9412 204.616C75.9069 205.467 75.8298 206.315 75.7102 207.157C75.4906 207.97 75.2043 208.763 74.8541 209.529C74.153 211.078 73.5405 212.666 73.0196 214.285C72.5668 215.9 72.2799 217.557 72.1635 219.231C71.9869 220.869 71.8034 222.492 71.6268 224.096C71.2599 227.296 71.0221 230.489 69.7243 233.255C69.0449 234.614 68.2296 235.911 67.5977 237.297C66.9758 238.678 66.6296 240.167 66.5785 241.68C66.4087 244.615 66.7892 247.489 65.9942 250.084C65.1993 252.68 63.5482 254.841 62.7125 257.293C61.8768 259.746 62.1826 262.342 62.5495 264.618C62.9164 266.894 63.2833 269.136 62.7941 271.154C62.3049 273.172 60.9052 274.68 59.9948 276.297C59.5147 277.076 59.1938 277.942 59.0503 278.845C58.9477 279.67 58.8933 280.501 58.8873 281.332C58.8884 282.082 58.7785 282.829 58.5611 283.547C58.3095 284.169 57.9052 284.718 57.3857 285.144C56.4907 285.865 55.483 286.434 54.403 286.829C53.6136 287.133 52.7968 287.36 51.9638 287.508C51.4547 287.6 50.9388 287.65 50.4215 287.657C49.9934 287.617 49.81 287.617 49.81 287.617Z" fill="#263238"/>
<path d="M73.8482 197.999C73.8118 198.071 73.7867 198.149 73.7734 198.23L73.6104 198.909C73.4609 199.514 73.2774 200.417 72.9921 201.545C72.7067 202.673 72.0069 203.95 71.4158 205.52C70.7234 207.287 70.1202 209.087 69.6084 210.915C69.0241 212.953 68.5145 215.195 67.971 217.614C67.5091 220.19 66.6904 222.69 65.5386 225.04C64.9135 226.277 64.1797 227.527 63.6565 228.899C63.1079 230.301 62.7403 231.767 62.5626 233.261C62.1762 236.357 61.6273 239.43 60.9184 242.468C59.3965 248.698 57.9425 254.637 56.6175 260.045C55.2926 265.453 54.0425 270.291 53.0097 274.381C51.977 278.471 51.1956 281.733 50.6249 284.063C50.3599 285.177 50.1493 286.054 49.9998 286.699C49.9387 286.978 49.8843 287.202 49.8435 287.379C49.836 287.458 49.836 287.538 49.8435 287.617C49.883 287.546 49.9127 287.471 49.9319 287.392C49.9794 287.209 50.0474 286.992 50.1289 286.713C50.2988 286.081 50.5366 285.205 50.8423 284.097C51.4538 281.787 52.3167 278.505 53.3834 274.463C54.4501 270.42 55.6935 265.528 57.0864 260.154C58.4792 254.779 59.8924 248.8 61.428 242.563C62.1324 239.517 62.6677 236.435 63.0315 233.329C63.2051 231.871 63.5612 230.439 64.0914 229.069C64.6281 227.71 65.3144 226.494 65.9395 225.244C67.2983 222.764 67.8351 220.101 68.3719 217.702C68.9086 215.304 69.3842 213.035 69.9414 211.01C70.4985 208.985 71.0828 207.178 71.6672 205.615C72.2515 204.052 72.8969 202.761 73.1755 201.593C73.4541 200.424 73.5832 199.554 73.7055 198.929C73.7508 198.649 73.7915 198.422 73.8278 198.25C73.8482 198.08 73.8617 197.999 73.8482 197.999Z" fill="#263238"/>
<path d="M51.155 287.651C56.1217 284.695 57.5485 275.726 55.4762 270.332C53.4039 264.937 49.7757 260.004 49.2186 254.249C48.7837 249.826 50.2377 245.287 49.2186 240.966C47.8257 235.13 42.132 230.612 42.1999 224.612C42.2339 221.249 44.1499 218.083 43.9937 214.719C43.8102 210.602 40.644 207.327 38.6872 203.699C35.6841 198.134 35.4871 191.564 34.4611 185.354C33.4352 179.144 31.0639 172.445 25.5333 169.38C24.718 174.673 23.3251 178.301 23.7599 185.47C23.923 188.045 26.9125 192.943 27.3202 198.617C27.5648 202.014 27.7279 205.37 27.9385 208.74C28.1491 212.11 28.353 215.372 29.5284 218.443C30.432 220.8 31.8793 222.941 32.5519 225.373C33.8089 229.946 32.151 234.885 33.1702 239.533C34.0331 243.46 36.7508 246.837 37.308 250.818C38.0825 256.41 34.4679 262.226 36.316 267.559C37.24 270.209 39.4142 272.316 40.0325 275.067C40.5149 277.187 39.9918 279.436 40.4266 281.563C41.1061 285.001 47.6694 287.678 51.1686 287.453" fill="#FF9675"/>
<path d="M26.8917 174.605C26.8824 174.705 26.8824 174.805 26.8917 174.904C26.8917 175.129 26.9597 175.414 27.0004 175.774C27.1159 176.542 27.245 177.663 27.5032 179.117C27.7614 180.571 28.536 182.215 29.1339 184.199C29.7318 186.183 30.3976 188.452 30.9548 190.994C31.5119 193.535 32.0011 196.368 32.4971 199.405C32.9931 202.442 33.5366 205.751 35.045 208.917C35.7244 210.5 36.5262 212.09 37.0833 213.789C37.6542 215.527 38.0057 217.331 38.1297 219.156C38.4074 223.03 38.8951 226.886 39.5905 230.707C41.1124 238.548 42.5596 246.015 43.8777 252.816C45.1958 259.617 46.5207 265.684 47.5807 270.821C48.6406 275.958 49.5103 280.061 50.115 282.956L50.7944 286.251C50.876 286.604 50.9371 286.883 50.9915 287.1C51.0098 287.2 51.0371 287.298 51.073 287.393C51.085 287.293 51.085 287.193 51.073 287.094C51.0322 286.869 50.9847 286.591 50.9235 286.231C50.774 285.443 50.5634 284.328 50.2984 282.915C49.7277 280.014 48.9396 275.869 47.9136 270.753C46.8876 265.637 45.6714 259.502 44.3194 252.727C42.9673 245.953 41.6016 238.459 40.0729 230.625C39.377 226.804 38.8871 222.948 38.6053 219.075C38.476 217.211 38.113 215.372 37.525 213.599C36.9203 211.873 36.1253 210.276 35.4255 208.7C33.9307 205.581 33.3872 202.327 32.8708 199.303C32.3544 196.28 31.8584 193.44 31.2673 190.885C30.6762 188.33 30.0307 186.047 29.3649 184.09C28.699 182.134 27.9584 180.476 27.6595 179.056C27.3605 177.636 27.2179 176.494 27.0752 175.74C27.0072 175.387 26.9529 175.101 26.9121 174.877C26.9107 174.786 26.9039 174.696 26.8917 174.605Z" fill="#263238"/>
<path d="M256.838 25.3045L259.556 25.3045C259.554 24.9962 259.614 24.6907 259.733 24.4061C259.851 24.1215 260.025 23.8635 260.245 23.6474C260.465 23.4314 260.726 23.2616 261.013 23.1483C261.299 23.035 261.606 22.9803 261.914 22.9876C262.369 22.9713 262.818 23.0973 263.198 23.3482C263.578 23.5991 263.87 23.9623 264.034 24.3872C264.177 24.7411 264.234 25.1237 264.201 25.504C264.168 25.8842 264.046 26.2512 263.844 26.575C263.381 27.336 262.376 28.0222 260.555 27.7029V33.8179H263.225V30.244C264.321 29.9214 265.281 29.2483 265.957 28.3277C266.633 27.4072 266.989 26.2903 266.969 25.1482C266.969 21.1939 263.422 20.2766 261.9 20.2766C260.738 20.2495 256.784 20.528 256.838 25.3045Z" fill="#FF5925"/>
<path d="M263.246 35.0547H260.535V37.589H263.246V35.0547Z" fill="#FF5925"/>
<path d="M281.786 28.9443C281.795 28.829 281.795 28.7131 281.786 28.5978C281.786 28.3532 281.786 28.0202 281.786 27.5922C281.786 27.3748 281.786 27.1234 281.752 26.8516C281.718 26.5798 281.677 26.2809 281.63 25.9683C281.582 25.6558 281.534 25.2889 281.48 24.9288L281.195 23.7737C280.69 21.7846 279.864 19.8912 278.749 18.1684C277.13 15.6169 274.947 13.4707 272.369 11.8947C269.79 10.3188 266.885 9.35498 263.876 9.07745C262.972 8.99765 262.064 8.97949 261.158 9.0231C260.703 9.0231 260.234 9.0231 259.799 9.11143L258.399 9.32205C256.479 9.67898 254.621 10.313 252.882 11.2041C251.068 12.1643 249.4 13.3793 247.929 14.8119C246.424 16.3378 245.165 18.0892 244.199 20.0029C243.16 21.9757 242.479 24.1175 242.188 26.3284C242.103 26.8886 242.055 27.4538 242.045 28.0202C242 28.5875 241.989 29.157 242.011 29.7256C242.159 33.3705 243.298 36.9059 245.307 39.9512V39.7406C244.362 42.0982 243.431 44.4151 242.521 46.6709L242.358 47.0853L242.786 46.963L250.192 44.9247L250.015 44.884C252.509 46.7722 255.415 48.0434 258.495 48.5937C259.923 48.86 261.379 48.949 262.829 48.8587C263.529 48.8482 264.226 48.7824 264.915 48.6616L265.928 48.5054C266.261 48.4442 266.607 48.3423 266.906 48.2676C271.47 47.1111 275.473 44.3677 278.198 40.5287C279.215 39.1145 280.031 37.5666 280.624 35.9289C280.753 35.5688 280.875 35.2495 280.991 34.8962C281.106 34.5429 281.167 34.2167 281.242 33.911C281.317 33.6052 281.398 33.2927 281.466 33.0073C281.534 32.722 281.555 32.4434 281.596 32.1784C281.657 31.6553 281.752 31.1932 281.772 30.8195C281.793 30.4458 281.772 30.0857 281.772 29.8004C281.772 29.515 281.772 29.3384 281.772 29.1821C281.772 29.0258 281.772 28.9715 281.772 28.9715C281.762 29.0413 281.762 29.1123 281.772 29.1821C281.772 29.3384 281.772 29.5422 281.725 29.8004C281.677 30.0586 281.684 30.4187 281.657 30.8127C281.63 31.2068 281.528 31.6688 281.446 32.1716C280.798 35.9321 279.072 39.4234 276.478 42.2216C273.883 45.0198 270.532 47.0045 266.831 47.9346C266.512 48.0094 266.193 48.1045 265.867 48.1656L264.868 48.3151C264.194 48.4276 263.512 48.4889 262.829 48.4986C261.406 48.5736 259.978 48.4801 258.576 48.22C255.568 47.6665 252.732 46.417 250.294 44.5714L250.212 44.5035H250.11L242.698 46.5418L242.956 46.8339L245.748 39.9104L245.789 39.8017L245.728 39.6998C244.39 37.6756 243.441 35.4199 242.929 33.0481C242.694 31.9477 242.553 30.8294 242.507 29.7053C242.485 29.1502 242.496 28.5943 242.541 28.0406C242.546 27.4877 242.591 26.9358 242.677 26.3896C242.938 24.2305 243.58 22.1348 244.573 20.1999C245.517 18.3297 246.743 16.6156 248.208 15.1177C249.647 13.7112 251.281 12.519 253.059 11.5778C254.758 10.6939 256.578 10.0643 258.461 9.70933L259.819 9.49871C260.275 9.43076 260.73 9.43756 261.178 9.40358C262.064 9.36145 262.951 9.37734 263.835 9.45115C266.795 9.71023 269.656 10.6403 272.203 12.1708C274.749 13.7013 276.914 15.7919 278.531 18.2839C279.652 19.9767 280.492 21.8398 281.018 23.8009L281.324 24.9424C281.385 25.3025 281.439 25.6218 281.494 25.9615C281.548 26.3013 281.589 26.573 281.636 26.8448C281.684 27.1166 281.67 27.3612 281.691 27.5786C281.691 27.9999 281.745 28.3328 281.765 28.5774C281.752 28.7 281.759 28.8239 281.786 28.9443Z" fill="#263238"/>
<path d="M78.7069 109.182H117.945C117.945 109.182 117.945 76.2362 152.182 75.6519C169.962 75.3394 179.182 86.9918 182.933 95.9128C187.281 106.274 185.963 118.083 180.134 127.697C173.482 138.67 159.146 149.697 132.702 145.036L132.451 232.46H171.253V180.632C171.253 180.632 225.67 166.568 225.67 106.573C225.67 49.1945 179.271 36.8015 154.329 35.9998C140.454 35.5582 135.427 34.9603 118.264 37.3994C96.3927 40.5249 78.2449 65.9223 78.7069 109.182Z" fill="#FF9D7E"/>
<path d="M171.722 250.683H132.342V287.461H171.722V250.683Z" fill="#FF9D7E"/>
<path opacity="0.1" d="M171.722 250.683H132.342V287.461H171.722V250.683Z" fill="black"/>
<path opacity="0.1" d="M78.7069 109.182H117.945C117.945 109.182 117.945 76.2362 152.182 75.6519C169.962 75.3394 179.182 86.9918 182.933 95.9128C187.281 106.274 185.963 118.083 180.134 127.697C173.482 138.67 159.146 149.697 132.702 145.036L132.451 232.46H171.253V180.632C171.253 180.632 225.67 166.568 225.67 106.573C225.67 49.1945 179.271 36.8015 154.329 35.9998C140.454 35.5582 135.427 34.9603 118.264 37.3994C96.3927 40.5249 78.2449 65.9223 78.7069 109.182Z" fill="black"/>
<path d="M62.4475 109.182H101.692C101.692 109.182 101.692 76.2361 135.929 75.6518C153.71 75.3393 162.93 86.9917 166.674 95.9127C171.029 106.274 169.711 118.083 163.881 127.697C157.229 138.67 142.642 148.644 116.198 144.004V232.46H155.001V180.632C155.001 180.632 209.417 166.568 209.417 106.573C209.417 49.1944 157.956 35.8706 135.936 35.8706C119.092 35.891 61.7069 39.9608 62.4475 109.182Z" fill="#FF9D7E"/>
<path opacity="0.3" d="M62.4475 109.182H101.692C101.692 109.182 101.692 76.2361 135.929 75.6518C153.71 75.3393 162.93 86.9917 166.674 95.9127C171.029 106.274 169.711 118.083 163.881 127.697C157.229 138.67 142.642 148.644 116.198 144.004V232.46H155.001V180.632C155.001 180.632 209.417 166.568 209.417 106.573C209.417 49.1944 157.956 35.8706 135.936 35.8706C119.092 35.891 61.7069 39.9608 62.4475 109.182Z" fill="black"/>
<path d="M155.47 250.683H116.09V287.461H155.47V250.683Z" fill="#FF9D7E"/>
<path opacity="0.3" d="M155.47 250.683H116.09V287.461H155.47V250.683Z" fill="black"/>
<path d="M140.359 75.8283C140.165 75.8451 139.97 75.8451 139.775 75.8283C139.388 75.8283 138.831 75.6992 138.104 75.6924C136.048 75.5914 133.988 75.6778 131.948 75.9506C128.923 76.3335 125.947 77.0326 123.068 78.0365C121.371 78.6297 119.718 79.3426 118.121 80.1699C116.396 81.0321 114.771 82.0825 113.277 83.3021C111.793 84.5327 110.463 85.938 109.316 87.4875C108.229 88.92 107.237 90.4226 106.347 91.9854C104.861 94.647 103.682 97.4689 102.834 100.397C102.259 102.373 101.863 104.397 101.652 106.444C101.57 107.164 101.55 107.735 101.529 108.115C101.53 108.311 101.512 108.507 101.475 108.7C101.458 108.505 101.458 108.31 101.475 108.115C101.475 107.728 101.475 107.157 101.536 106.43C101.692 104.361 102.054 102.313 102.617 100.315C103.434 97.3536 104.597 94.4984 106.082 91.8087C106.973 90.2288 107.97 88.7102 109.064 87.2633C110.221 85.6884 111.568 84.2622 113.073 83.0168C114.586 81.7804 116.231 80.7162 117.979 79.8438C119.585 79.0013 121.249 78.2747 122.959 77.6696C125.864 76.6695 128.869 75.9861 131.921 75.6312C133.974 75.3789 136.048 75.3311 138.11 75.4886C138.671 75.5244 139.229 75.5925 139.782 75.6924C139.977 75.7241 140.17 75.7695 140.359 75.8283Z" fill="#263238"/>
<path d="M199.484 68.8371C199.484 68.8371 199.437 68.7896 199.355 68.6877C199.274 68.5857 199.152 68.4091 199.016 68.212L197.718 66.3776C197.439 65.9835 197.14 65.5283 196.787 65.0594L195.564 63.5715L194.164 61.8525C193.655 61.2546 193.057 60.6771 192.459 60.0452C191.861 59.4133 191.25 58.7407 190.557 58.0952C189.864 57.4497 189.123 56.7907 188.362 56.1112C187.982 55.7715 187.608 55.4318 187.2 55.0717L185.936 54.0729C185.074 53.3935 184.217 52.714 183.287 52.0346C179.229 49.1318 174.926 46.59 170.425 44.4384L166.844 42.8214L163.291 41.4625C162.129 40.9801 160.947 40.6404 159.805 40.2599C158.664 39.8794 157.549 39.4921 156.408 39.2271L153.16 38.3778C152.107 38.0993 151.061 37.9294 150.062 37.6984C149.063 37.4674 148.098 37.2635 147.154 37.148L144.436 36.754C142.717 36.4618 141.141 36.4007 139.768 36.2648C139.089 36.2104 138.41 36.1357 137.846 36.1085L136.229 36.0677L133.986 35.993H133.402H133.205C133.27 35.9828 133.337 35.9828 133.402 35.993H133.986H136.229H137.852C138.444 35.993 139.089 36.0745 139.782 36.1221C141.141 36.2376 142.744 36.2852 144.463 36.5637L147.181 36.9306C148.126 37.0393 149.09 37.2839 150.096 37.4674C151.102 37.6508 152.134 37.8411 153.215 38.1468L156.476 38.9893C157.604 39.2475 158.718 39.6688 159.873 40.0153C161.028 40.3618 162.204 40.6947 163.365 41.2111L166.939 42.57L170.54 44.1938C175.065 46.3503 179.386 48.9109 183.45 51.8443C184.387 52.5238 185.243 53.2508 186.106 53.9234L187.37 54.8407C187.778 55.1804 188.151 55.5201 188.532 55.887L190.72 57.9253C191.399 58.6048 192.011 59.2842 192.615 59.9025C193.22 60.5208 193.798 61.1255 194.307 61.7302L195.666 63.4628L196.875 64.9711C197.222 65.4467 197.514 65.9087 197.786 66.33C198.316 67.1249 198.73 67.75 199.022 68.1985L199.342 68.6944C199.395 68.7356 199.443 68.7836 199.484 68.8371Z" fill="#263238"/>
<path d="M195.394 153.087C195.313 153.234 195.215 153.371 195.101 153.495L194.164 154.603C193.777 155.099 193.287 155.69 192.683 156.349C192.078 157.008 191.432 157.782 190.644 158.584C189.856 159.386 189.014 160.283 188.056 161.186C187.098 162.09 186.058 163.041 184.951 164.033C180.093 168.273 174.768 171.945 169.079 174.979C167.761 175.658 166.517 176.338 165.315 176.861C164.112 177.384 162.991 177.921 161.958 178.356C160.926 178.791 159.974 179.151 159.145 179.47C158.317 179.789 157.59 180.048 156.992 180.238L155.633 180.679C155.475 180.742 155.311 180.788 155.144 180.815C155.29 180.732 155.445 180.663 155.606 180.612L156.964 180.109C157.556 179.898 158.269 179.626 159.091 179.287C159.913 178.947 160.864 178.607 161.884 178.125C162.903 177.642 164.031 177.187 165.206 176.596C166.381 176.005 167.638 175.38 168.95 174.694C171.538 173.267 174.331 171.595 177.151 169.666C179.97 167.736 182.505 165.705 184.76 163.789C185.868 162.81 186.928 161.893 187.872 160.969C188.817 160.045 189.7 159.209 190.481 158.407C191.263 157.606 191.949 156.865 192.56 156.213C193.172 155.561 193.675 154.99 194.082 154.514L195.033 153.434C195.144 153.309 195.264 153.193 195.394 153.087Z" fill="#263238"/>
<path d="M154.315 229.375C154.213 229.375 154.132 218.464 154.132 205.004C154.132 191.544 154.213 180.625 154.315 180.625C154.417 180.625 154.492 191.537 154.492 205.004C154.492 218.47 154.41 229.375 154.315 229.375Z" fill="#263238"/>
<path d="M155.809 284.967C155.708 284.967 155.633 277.309 155.633 267.865C155.633 258.421 155.708 250.757 155.809 250.757C155.911 250.757 155.986 258.414 155.986 267.865C155.986 277.316 155.905 284.967 155.809 284.967Z" fill="#263238"/>
<path d="M194.436 103.971C193.756 105.33 196.291 106.444 197.751 106.886C199.242 107.252 200.784 107.357 202.31 107.198C204.349 107.09 206.435 106.899 208.194 105.894C209.735 104.939 210.967 103.559 211.741 101.919C212.504 100.285 213.107 98.5805 213.542 96.8301C213.542 96.8301 197.486 97.8764 194.436 103.971Z" fill="#FF9675"/>
<g opacity="0.4">
<path d="M194.436 103.971C193.756 105.33 196.291 106.444 197.751 106.886C199.242 107.252 200.784 107.357 202.31 107.198C204.349 107.09 206.435 106.899 208.194 105.894C209.735 104.939 210.967 103.559 211.741 101.919C212.504 100.285 213.107 98.5805 213.542 96.8301C213.542 96.8301 197.486 97.8764 194.436 103.971Z" fill="black"/>
</g>
<path d="M239.782 99.6222C242.429 101.5 245.601 102.494 248.845 102.462C250.401 102.549 251.935 102.066 253.16 101.103C253.683 100.621 254.077 100.009 254.614 99.5474C254.981 99.2349 255.409 98.9971 255.755 98.6642C255.938 98.5067 256.079 98.3064 256.166 98.0811C256.252 97.8558 256.282 97.6126 256.251 97.3732C256.117 96.7831 255.787 96.2561 255.314 95.8785C253.472 94.8321 251.271 94.8729 249.151 94.9205C247.03 95.0123 244.934 95.4223 242.934 96.1366C241.29 96.6938 239.571 97.4955 238.735 98.9903" fill="#FF9675"/>
<g opacity="0.4">
<path d="M256.251 97.3735C256.011 96.8004 255.588 96.3227 255.049 96.0146C253.207 94.9683 251.271 94.8731 249.151 94.9207C247.03 95.0125 244.934 95.4225 242.934 96.1369C241.29 96.694 239.571 97.4958 238.735 98.9906L239.782 99.6224C242.429 101.5 245.601 102.494 248.845 102.462C250.401 102.549 251.935 102.066 253.16 101.104C253.683 100.621 254.077 100.01 254.614 99.5477C254.981 99.2351 255.409 98.9973 255.755 98.6644C255.938 98.5069 256.079 98.3066 256.166 98.0814C256.252 97.8561 256.282 97.6129 256.251 97.3735Z" fill="black"/>
</g>
<path d="M208.432 124.007L242.302 124.456C242.371 124.456 242.439 124.439 242.501 124.408C242.562 124.377 242.616 124.332 242.656 124.276C242.697 124.221 242.725 124.157 242.736 124.089C242.748 124.021 242.744 123.951 242.723 123.885L238.749 111.492C238.749 111.492 239.333 105.296 240.142 97.849C241.371 86.5363 243.009 72.3156 243.029 72.3564C240.712 65.8609 227.042 64.7603 227.042 64.7603L211.462 65.6843L210.919 64.767L206.435 66.8529C205.457 67.308 204.516 67.8396 203.622 68.4428C200.659 70.42 193.525 74.9654 192.221 80.0273C189.211 91.7476 194.307 104.827 194.307 104.827L197.581 102.265C198.406 101.63 199.274 101.051 200.177 100.533L206.74 118.123C206.35 118.37 206.019 118.7 205.772 119.09C205.525 119.48 205.369 119.921 205.313 120.379C205.259 121.806 205.993 123.518 208.432 124.007Z" fill="#FF774D"/>
<g opacity="0.3">
<path d="M222.965 103.271C224.038 97.4958 223.475 91.5575 222.897 85.7144C221.022 90.4704 221.09 95.906 219.099 100.621C218.855 101.119 218.677 101.647 218.569 102.191C218.517 102.464 218.531 102.746 218.609 103.012C218.687 103.279 218.827 103.524 219.017 103.726C219.561 104.222 220.376 103.951 221.097 103.869C221.741 103.746 222.369 103.545 222.965 103.271Z" fill="black"/>
</g>
<g opacity="0.4">
<path d="M210.47 116.643C213.188 117.587 216.082 115.827 218.956 115.515C220.859 115.311 222.761 115.746 224.65 116.051C228.469 116.669 232.355 116.765 236.2 116.337C236.79 116.304 237.368 116.154 237.899 115.895C238.173 115.708 238.398 115.457 238.553 115.163C238.708 114.869 238.789 114.542 238.789 114.21C232.389 113.531 225.995 113.164 219.595 112.505C218.002 112.233 216.37 112.286 214.798 112.661C212.868 113.259 211.401 114.774 210.042 116.276" fill="black"/>
</g>
<path d="M255.273 95.1447C252.508 88.9142 242.758 71.6836 242.758 71.6836L235.209 81.1482L236.969 99.7309C236.969 99.7309 240.957 95.2805 252.107 95.1922C252.917 95.2246 253.71 95.4379 254.427 95.8165C255.144 96.1951 255.767 96.7293 256.251 97.38L255.273 95.1447Z" fill="#FF774D"/>
<path d="M209.947 91.8496C209.409 90.5287 208.982 89.165 208.67 87.773C208.248 86.417 207.939 85.0285 207.746 83.6216C208.277 84.9447 208.702 86.3079 209.017 87.6982C209.439 89.0546 209.75 90.4429 209.947 91.8496Z" fill="#263238"/>
<path d="M234.638 79.8916C234.884 80.0653 235.111 80.2633 235.317 80.4827C235.918 81.0624 236.48 81.6797 237.002 82.3308C238.759 84.4783 239.994 87.0041 240.61 89.7095C240.93 91.2051 241.001 92.7431 240.821 94.2618C240.651 95.6546 240.386 96.8776 240.209 97.9103C240.033 98.9431 239.924 99.7856 239.87 100.37C239.868 100.674 239.836 100.976 239.774 101.274C239.726 100.97 239.713 100.663 239.734 100.356C239.764 99.5237 239.841 98.6935 239.965 97.8696C240.107 96.83 240.345 95.5935 240.501 94.2278C240.659 92.7434 240.578 91.2434 240.264 89.7842C239.655 87.1293 238.475 84.6391 236.805 82.4871C235.562 80.8156 234.584 79.946 234.638 79.8916Z" fill="#263238"/>
<path d="M227.722 122.513C227.486 122.618 227.236 122.691 226.981 122.73C226.691 122.807 226.396 122.864 226.098 122.9C225.751 122.948 225.357 123.022 224.916 123.043C223.88 123.138 222.839 123.138 221.804 123.043C220.537 122.913 219.286 122.662 218.067 122.295C216.854 121.906 215.68 121.403 214.561 120.794C213.653 120.287 212.792 119.703 211.986 119.048C211.632 118.776 211.347 118.491 211.089 118.253C210.866 118.052 210.655 117.839 210.457 117.614C210.268 117.439 210.106 117.238 209.975 117.016C210.022 116.969 210.749 117.784 212.142 118.851C212.956 119.47 213.817 120.024 214.717 120.508C215.824 121.09 216.978 121.574 218.169 121.956C219.367 122.317 220.595 122.571 221.838 122.717C222.853 122.826 223.875 122.858 224.895 122.812C226.641 122.717 227.708 122.458 227.722 122.513Z" fill="#263238"/>
<path d="M238.178 118.653C238.338 118.961 238.428 119.299 238.443 119.645C238.551 120.474 238.489 121.315 238.26 122.118C238.026 122.94 237.553 123.673 236.901 124.225C236.405 124.639 236.024 124.768 236.004 124.734C235.983 124.7 236.303 124.476 236.731 124.055C237.28 123.482 237.68 122.781 237.893 122.017C238.436 120.223 238.049 118.66 238.178 118.653Z" fill="#263238"/>
<path d="M236.336 121.045C236.483 121.744 236.425 122.47 236.166 123.136C235.908 123.802 235.462 124.379 234.882 124.795C234.807 124.721 235.439 124.048 235.833 123.009C236.227 121.969 236.234 121.052 236.336 121.045Z" fill="#263238"/>
<path d="M230.276 98.6914C229.916 99.3001 229.512 99.8814 229.067 100.431C228.716 101.044 228.318 101.63 227.878 102.184C228.008 101.467 228.317 100.794 228.775 100.227C229.137 99.596 229.654 99.0676 230.276 98.6914Z" fill="#263238"/>
<path d="M207.026 82.2357C206.508 81.9317 206.007 81.6006 205.524 81.2437C203.108 79.6562 200.365 78.6322 197.5 78.2474C196.9 78.2037 196.303 78.1243 195.713 78.0096C196.315 77.9265 196.925 77.9265 197.527 78.0096C200.471 78.2608 203.29 79.3109 205.68 81.0467C206.182 81.3787 206.634 81.7789 207.026 82.2357Z" fill="#263238"/>
<path d="M242.757 71.4595C241.541 72.4387 240.405 73.5134 239.36 74.6732C238.398 75.9111 237.537 77.2244 236.785 78.6004C236.866 78.1376 237.024 77.6919 237.254 77.2823C237.746 76.2635 238.362 75.3096 239.088 74.4422C239.817 73.5766 240.653 72.8072 241.575 72.1525C241.926 71.8551 242.326 71.6207 242.757 71.4595Z" fill="#263238"/>
<path d="M228.774 65.8608C228.836 65.9588 228.886 66.0637 228.924 66.1734C229.056 66.4811 229.163 66.7992 229.243 67.1246C229.529 68.3354 229.529 69.5964 229.243 70.8072C228.82 72.6147 227.852 74.2487 226.471 75.4885C224.727 76.9658 222.505 77.7579 220.22 77.7171C217.933 77.7249 215.704 76.9933 213.867 75.6312C212.403 74.5135 211.215 73.0746 210.395 71.4255C209.843 70.3212 209.454 69.1425 209.24 67.9263C209.178 67.5987 209.137 67.2673 209.118 66.9344C209.099 66.8174 209.099 66.698 209.118 66.581C209.118 66.581 209.193 67.0567 209.383 67.8992C209.647 69.081 210.065 70.2232 210.626 71.2964C211.455 72.8958 212.632 74.2889 214.071 75.373C215.841 76.684 217.983 77.3979 220.186 77.4113C222.388 77.4518 224.532 76.6995 226.226 75.2915C227.561 74.0972 228.507 72.5306 228.944 70.7936C229.246 69.6211 229.288 68.3965 229.066 67.2061C228.937 66.3093 228.733 65.8744 228.774 65.8608Z" fill="#263238"/>
<g opacity="0.3">
<path d="M231.153 99.8943C231.153 99.5545 231.098 99.1537 230.8 98.9838C230.705 98.936 230.6 98.9111 230.494 98.9111C230.388 98.9111 230.283 98.936 230.188 98.9838C229.998 99.0865 229.83 99.2249 229.692 99.3915C228.893 100.223 228.276 101.211 227.878 102.293L231.207 102.001C231.187 101.314 231.173 100.594 231.153 99.8943Z" fill="black"/>
</g>
<g opacity="0.3">
<path d="M242.207 92.8893C241.872 90.9842 241.038 89.2022 239.788 87.7256C241.228 92.4273 240.746 95.0839 239.938 98.3045L240.114 97.856C241.045 95.974 242.458 94.7918 242.207 92.8893Z" fill="black"/>
</g>
<path d="M235.555 250.831L233.523 281.304L220.274 281.148L218.188 249.466L235.555 250.831Z" fill="#FFBE9D"/>
<path d="M233.897 277.296V278.179C233.897 278.179 248.845 284.185 248.987 287.012L219.303 286.849L219.765 276.977C224.188 279.049 228.815 279.307 233.897 277.296Z" fill="#FF9675"/>
<path d="M222.774 280.143C222.493 280.228 222.252 280.413 222.097 280.663C221.941 280.913 221.883 281.211 221.932 281.501C222.005 281.791 222.187 282.042 222.44 282.2C222.694 282.358 222.998 282.412 223.291 282.351C223.593 282.26 223.851 282.061 224.014 281.791C224.178 281.521 224.235 281.2 224.174 280.89C224.066 280.597 223.849 280.357 223.567 280.221C223.286 280.085 222.962 280.064 222.666 280.163" fill="white"/>
<path d="M219.303 286.849L219.411 284.478L247.839 285.51C247.839 285.51 249.157 286.095 249.001 287.019L219.303 286.849Z" fill="#263238"/>
<path d="M234.006 278.261C234.006 278.403 233.272 278.464 232.559 278.94C231.846 279.416 231.458 280.007 231.329 279.952C231.2 279.898 231.418 279.056 232.294 278.512C233.17 277.968 234.04 278.104 234.006 278.261Z" fill="#263238"/>
<path d="M237.111 279.565C237.145 279.708 236.513 279.946 236.017 280.557C235.521 281.169 235.378 281.814 235.229 281.808C235.079 281.801 234.998 280.979 235.63 280.238C236.261 279.498 237.104 279.464 237.111 279.565Z" fill="#263238"/>
<path d="M238.857 283.302C238.721 283.302 238.524 282.623 238.905 281.814C239.285 281.006 239.958 280.713 240.019 280.829C240.08 280.944 239.659 281.372 239.34 282.032C239.02 282.691 239.007 283.288 238.857 283.302Z" fill="#263238"/>
<path d="M233.136 27.9688C233.904 26.0664 232.973 23.7631 231.322 22.5333C229.582 21.3878 227.46 20.9752 225.418 21.385C223.403 21.8075 221.452 22.4928 219.615 23.4234C218.761 22.5621 217.685 21.9551 216.506 21.6703C215.327 21.3854 214.092 21.4338 212.939 21.8102C211.786 22.1866 210.76 22.876 209.976 23.8015C209.192 24.7271 208.681 25.8523 208.5 27.0516C207.765 26.8667 206.994 26.8853 206.269 27.1054C205.544 27.3255 204.893 27.7389 204.385 28.3011C203.878 28.8633 203.532 29.5531 203.387 30.2966C203.242 31.04 203.302 31.809 203.56 32.5211L212.746 35.7484L222.775 53.4139C224.257 54.6783 226.148 55.3604 228.096 55.3328C230.044 55.3052 231.916 54.5698 233.362 53.2638C234.807 51.9579 235.728 50.1706 235.953 48.2354C236.178 46.3001 235.691 44.3492 234.583 42.7466C235.145 42.2469 235.622 41.6596 235.997 41.0073C236.798 40.5334 237.497 39.9049 238.054 39.1584C238.61 38.4119 239.012 37.5623 239.238 36.6589C240.128 32.7249 237.084 28.4308 233.136 27.9688Z" fill="#263238"/>
<path d="M227.055 64.7601C226.484 61.8861 226.09 59.9157 226.097 59.9361C226.104 59.9565 231.532 57.8299 231.138 50.2677C230.948 46.5036 229.514 40.5721 228.183 35.7616C226.987 31.4268 222.944 26.6503 218.671 28.0296L205.714 34.3484C204.416 34.7697 204.192 35.9926 204.497 37.3176V37.997L209.532 58.8286L211.659 68.137C212.112 70.0483 213.265 71.7207 214.889 72.8248C216.514 73.9289 218.493 74.3847 220.437 74.1024C221.499 73.9531 222.519 73.5884 223.434 73.0307C224.35 72.473 225.142 71.734 225.762 70.8591C226.381 69.9843 226.816 68.992 227.038 67.9432C227.261 66.8944 227.266 65.8112 227.055 64.7601Z" fill="#FFBE9D"/>
<path d="M228.135 40.7899C228.19 41.0309 228.15 41.2838 228.023 41.4961C227.897 41.7085 227.694 41.8643 227.456 41.9313C227.336 41.9648 227.21 41.9737 227.087 41.9575C226.963 41.9412 226.844 41.9001 226.737 41.8366C226.63 41.7731 226.536 41.6886 226.463 41.5881C226.389 41.4876 226.336 41.3732 226.308 41.2519C226.253 41.0117 226.294 40.7598 226.42 40.5485C226.547 40.3372 226.75 40.1828 226.987 40.1172C227.107 40.0826 227.232 40.0727 227.356 40.0881C227.479 40.1035 227.598 40.1439 227.706 40.2069C227.813 40.2698 227.907 40.3539 227.981 40.4542C228.054 40.5544 228.107 40.6686 228.135 40.7899Z" fill="#263238"/>
<path d="M227.544 39.3425C227.449 39.4919 226.627 39.1182 225.621 39.3425C224.616 39.5667 223.977 40.2189 223.841 40.117C223.705 40.0151 223.841 39.8249 224.12 39.5259C224.494 39.1309 224.98 38.8605 225.513 38.7513C226.038 38.638 226.586 38.6976 227.075 38.9212C227.456 39.0775 227.585 39.2813 227.544 39.3425Z" fill="#263238"/>
<path d="M218.27 43.0182C218.325 43.2584 218.284 43.5103 218.158 43.7216C218.031 43.9329 217.828 44.0873 217.591 44.1529C217.474 44.187 217.351 44.1976 217.229 44.1839C217.108 44.1702 216.99 44.1326 216.884 44.0732C216.777 44.0138 216.683 43.9338 216.607 43.8379C216.531 43.7419 216.476 43.6319 216.443 43.5142C216.388 43.2731 216.428 43.0203 216.555 42.8079C216.681 42.5955 216.884 42.4398 217.122 42.3728C217.24 42.3387 217.363 42.3285 217.485 42.3426C217.607 42.3567 217.725 42.3949 217.831 42.455C217.938 42.515 218.032 42.5958 218.108 42.6925C218.183 42.7892 218.238 42.8999 218.27 43.0182Z" fill="#263238"/>
<path d="M217.774 41.741C217.685 41.8905 216.856 41.51 215.851 41.741C214.845 41.9721 214.207 42.6107 214.071 42.5156C213.935 42.4205 214.071 42.2234 214.349 41.9177C214.725 41.5262 215.211 41.2584 215.742 41.1499C216.267 41.0383 216.814 41.0954 217.305 41.313C217.665 41.4761 217.821 41.6595 217.774 41.741Z" fill="#263238"/>
<path d="M222.891 48.1278C223.389 47.853 223.918 47.6386 224.467 47.4892C224.718 47.4076 224.956 47.3057 224.963 47.1223C224.927 46.852 224.811 46.5987 224.63 46.3953L223.455 44.588C221.81 42.0129 220.56 39.8794 220.662 39.8319C220.764 39.7843 222.184 41.8023 223.828 44.3773L224.977 46.1982C225.202 46.4769 225.324 46.8249 225.323 47.1834C225.303 47.2812 225.261 47.3732 225.201 47.4531C225.141 47.5329 225.065 47.5986 224.977 47.6454C224.844 47.7158 224.702 47.7684 224.555 47.8017C224.018 47.9857 223.458 48.0954 222.891 48.1278Z" fill="#263238"/>
<path d="M226.097 59.936C222.66 60.7127 219.076 60.5199 215.742 59.3789C215.742 59.3789 219.302 64.0263 226.484 61.8045L226.097 59.936Z" fill="#EB996E"/>
<path d="M217.944 40.3005C217.876 40.5926 216.836 40.5858 215.654 40.878C214.472 41.1701 213.534 41.6118 213.344 41.3808C213.263 41.272 213.399 40.9867 213.759 40.7013C214.237 40.2982 214.806 40.0163 215.416 39.8792C216.022 39.7356 216.652 39.7356 217.258 39.8792C217.74 39.9675 217.992 40.1646 217.944 40.3005Z" fill="#263238"/>
<path d="M227.157 36.1357C226.994 36.4075 226.124 36.3395 225.119 36.5365C224.113 36.7336 223.318 37.0733 223.08 36.8763C222.972 36.7744 223.08 36.5162 223.373 36.1968C223.821 35.8195 224.363 35.5707 224.942 35.4766C225.511 35.362 226.101 35.4042 226.647 35.5989C227.062 35.7892 227.225 35.9998 227.157 36.1357Z" fill="#263238"/>
<path d="M208.915 29.4835C209.065 30.2196 209.376 30.9134 209.824 31.5159C210.273 32.1184 210.849 32.6146 211.511 32.9694C212.173 33.3241 212.906 33.5287 213.656 33.5686C214.406 33.6084 215.156 33.4826 215.852 33.2001C216.925 32.7652 218.039 31.9499 219.127 32.344C220.214 32.738 220.662 34.2872 221.702 34.8647C223.23 35.7208 225.099 34.2396 226.804 34.3891C228.163 34.5046 229.189 35.5441 230.242 36.4274C231.295 37.3107 232.749 37.9765 233.938 37.3379C233.666 36.2032 233.263 35.1042 232.736 34.063C232.204 33.0147 231.325 32.1837 230.249 31.7121C229.651 31.4743 229.006 31.3928 228.435 31.1006C227.205 30.4755 226.655 29.0623 225.765 27.9956C225.18 27.3233 224.444 26.8001 223.617 26.4693C222.79 26.1384 221.896 26.0095 221.009 26.0931C219.541 26.2426 218.148 26.9832 216.667 26.922C215.573 26.8745 214.527 26.3853 213.433 26.4057C211.306 26.4057 209.71 28.3081 208.527 30.0814" fill="#263238"/>
<path d="M216.075 31.0397C215.097 30.965 213.099 30.7612 212.44 30.0681C211.771 29.3193 210.916 28.7594 209.962 28.4446C209.008 28.1298 207.989 28.0711 207.005 28.2744C206.029 28.5654 205.172 29.1622 204.56 29.9768C203.948 30.7914 203.615 31.7809 203.608 32.7995C202.419 33.0896 201.33 33.6954 200.457 34.5529C199.584 35.4103 198.959 36.4877 198.648 37.6711C198.331 38.9099 198.321 40.2071 198.617 41.4509C198.913 42.6948 199.506 43.8482 200.346 44.812C200.754 45.3224 201.127 45.8604 201.461 46.4223C201 46.9938 200.595 47.6081 200.251 48.2568C198.695 51.6947 202.915 53.0128 202.915 53.0128C202.915 55.3229 205.055 55.3093 206.42 55.3025C207.786 55.2958 208.54 58.9443 209.607 58.8017L208.527 47.5433C208.685 47.6049 208.853 47.6371 209.023 47.6385C211.598 47.686 210.925 42.8076 210.096 41.5235C210.863 40.5684 211.511 39.5235 212.026 38.4117C212.492 36.7121 212.525 34.9226 212.121 33.2072C212.984 33.0984 216.497 31.0669 216.075 31.0397Z" fill="#263238"/>
<path d="M208.866 48.1415C208.779 47.7837 208.602 47.454 208.352 47.1831C208.103 46.9123 207.788 46.709 207.439 46.5923C207.09 46.4756 206.716 46.4493 206.354 46.5159C205.992 46.5824 205.652 46.7396 205.367 46.9728C204.688 47.5571 204.328 48.5355 204.735 50.173C205.836 54.5486 210.001 52.5442 209.974 52.4219C209.947 52.2996 209.342 49.9488 208.866 48.1415Z" fill="#FFBE9D"/>
<path d="M208.221 51.0967C208.221 51.0967 208.16 51.1714 208.044 51.2597C207.884 51.3829 207.682 51.4389 207.48 51.416C206.978 51.3616 206.4 50.7366 206.183 49.9416C206.079 49.5702 206.058 49.1805 206.122 48.8002C206.128 48.6524 206.171 48.5085 206.246 48.3807C206.32 48.2529 206.424 48.1451 206.55 48.0664C206.632 48.0219 206.728 48.0077 206.819 48.0264C206.911 48.045 206.994 48.0952 207.052 48.1683C207.141 48.2702 207.134 48.3653 207.161 48.3721C207.188 48.3789 207.236 48.2702 207.161 48.1003C207.109 47.9996 207.026 47.9185 206.923 47.8693C206.779 47.8111 206.619 47.8111 206.475 47.8693C206.304 47.9503 206.157 48.0732 206.046 48.2264C205.936 48.3796 205.866 48.5583 205.843 48.7458C205.755 49.1737 205.771 49.6165 205.891 50.0367C205.966 50.4313 206.157 50.7946 206.439 51.0811C206.72 51.3676 207.08 51.5645 207.474 51.647C207.602 51.6522 207.729 51.6286 207.847 51.5781C207.964 51.5275 208.069 51.4512 208.153 51.3548C208.241 51.2054 208.241 51.1035 208.221 51.0967Z" fill="#EB996E"/>
<path d="M232.327 42.0329C232.327 42.0329 232.728 41.7271 233.285 41.0477C234.054 40.0687 234.526 38.8896 234.644 37.6505C234.734 36.8046 234.651 35.9493 234.4 35.1366C234.11 34.2044 233.572 33.3684 232.844 32.7178C232.003 31.9837 230.986 31.4822 229.891 31.2629C228.797 31.0436 227.665 31.1142 226.607 31.4676C226.403 31.5355 226.212 31.6375 226.022 31.719C225.832 31.8005 225.662 31.9228 225.485 32.0247L225.214 32.1742V31.8753C225.208 31.3489 225.012 30.8424 224.663 30.4484C224.306 30.0661 223.867 29.7689 223.379 29.5788C222.456 29.1942 221.434 29.1179 220.464 29.3613C218.589 29.7894 216.999 30.6455 215.498 30.8221C214.32 31.0268 213.109 30.7845 212.101 30.1427C211.834 29.9596 211.604 29.7293 211.421 29.4632C211.312 29.2798 211.258 29.1779 211.272 29.1711C211.518 29.5066 211.819 29.7983 212.162 30.034C213.154 30.6066 214.319 30.802 215.443 30.5843C216.226 30.4371 216.991 30.2094 217.726 29.9049C218.59 29.5597 219.475 29.2715 220.376 29.042C220.878 28.9204 221.395 28.8679 221.912 28.8857C222.457 28.9145 222.993 29.0387 223.495 29.2526C224.014 29.4746 224.478 29.8087 224.854 30.231C225.255 30.691 225.482 31.2782 225.492 31.8888L225.22 31.7394L225.784 31.4132C225.995 31.3317 226.192 31.223 226.41 31.1483C227.525 30.7662 228.722 30.6863 229.878 30.9166C231.034 31.147 232.109 31.6793 232.993 32.4596C233.757 33.1514 234.317 34.0398 234.61 35.0279C234.915 36.0751 234.956 37.1815 234.73 38.2484C234.503 39.3154 234.017 40.3097 233.313 41.1428C233.089 41.3982 232.836 41.6262 232.558 41.8223C232.49 41.9016 232.413 41.9723 232.327 42.0329Z" fill="#455A64"/>
<path d="M231.444 26.6711C230.998 26.4447 230.522 26.2823 230.031 26.1887C229.469 26.1119 228.897 26.1654 228.359 26.345C227.663 26.5581 227.058 26.9982 226.64 27.5952L226.471 27.833L226.369 27.5612C226.014 26.726 225.443 26.0005 224.714 25.4594C223.986 24.9184 223.126 24.5815 222.224 24.4833C220.807 24.43 219.411 24.8351 218.243 25.6384C217.247 26.2872 216.189 26.8336 215.083 27.269C214.321 27.5573 213.5 27.6553 212.692 27.5544C212.476 27.5146 212.265 27.4555 212.06 27.3777C211.924 27.3166 211.849 27.2826 211.856 27.269C211.863 27.2554 212.162 27.3574 212.712 27.4117C213.494 27.4605 214.276 27.3328 215.002 27.038C216.076 26.5696 217.106 26.0056 218.08 25.353C218.681 24.9796 219.318 24.6678 219.982 24.4222C220.712 24.1561 221.492 24.0563 222.265 24.13C223.229 24.2352 224.146 24.5998 224.919 25.1848C225.691 25.7699 226.291 26.5536 226.654 27.4525H226.389C226.856 26.814 227.524 26.35 228.285 26.1344C228.863 25.9667 229.473 25.9364 230.065 26.046C230.44 26.1172 230.799 26.2553 231.125 26.4537C231.241 26.5106 231.349 26.5838 231.444 26.6711Z" fill="#455A64"/>
<path d="M222.496 50.1386C222.338 50.0059 222.153 49.9083 221.954 49.8521C221.755 49.7959 221.546 49.7824 221.341 49.8125C221.102 49.8636 220.876 49.9644 220.678 50.1083C220.481 50.2523 220.315 50.4362 220.193 50.6482C220.193 50.6482 220.159 50.6822 220.152 50.7026C220.059 50.8577 220.016 51.0383 220.03 51.2189C220.06 51.4158 220.137 51.6023 220.255 51.7622C220.374 51.9222 220.53 52.0506 220.709 52.1362C220.997 52.2818 221.322 52.3351 221.64 52.2889C221.959 52.2427 222.256 52.0992 222.49 51.878C222.712 51.6433 222.836 51.3328 222.837 51.0097C222.838 50.6865 222.717 50.3751 222.496 50.1386Z" fill="#FF9675"/>
<path d="M222.836 52.2519C222.781 52.2519 222.72 52.0481 222.537 51.7695C222.316 51.3961 221.985 51.0994 221.591 50.9196C221.196 50.7398 220.755 50.6854 220.328 50.764C219.996 50.8115 219.792 50.9067 219.771 50.8591C219.751 50.8115 219.907 50.6485 220.274 50.5194C220.754 50.3648 221.275 50.3939 221.735 50.6009C222.199 50.8076 222.566 51.1846 222.761 51.654C222.904 52.0073 222.883 52.2451 222.836 52.2519Z" fill="#263238"/>
<path d="M208.969 53.0944C208.969 53.0944 209.166 53.4341 208.908 53.9505C208.762 54.2595 208.505 54.5021 208.188 54.6299C207.99 54.7008 207.778 54.7247 207.57 54.7C207.361 54.6752 207.161 54.6024 206.985 54.4873C206.806 54.3785 206.655 54.23 206.543 54.0532C206.431 53.8765 206.361 53.6762 206.34 53.4681C206.319 53.1325 206.418 52.8004 206.618 52.5305C206.971 52.082 207.366 52.0684 207.366 52.1092C207.366 52.15 207.067 52.2655 206.829 52.6732C206.691 52.9015 206.634 53.1694 206.666 53.4341C206.691 53.5892 206.75 53.7369 206.838 53.8671C206.926 53.9973 207.041 54.1069 207.175 54.1883C207.308 54.2731 207.457 54.3291 207.613 54.3525C207.768 54.3759 207.927 54.3663 208.079 54.3242C208.33 54.2344 208.546 54.068 208.697 53.8486C208.962 53.4273 208.915 53.0944 208.969 53.0944Z" fill="#FF9675"/>
<path d="M206.679 52.8291C206.713 52.8291 206.679 53.0601 206.36 53.2096C206.203 53.2748 206.03 53.2937 205.863 53.2641C205.696 53.2345 205.54 53.1577 205.415 53.0427C205.29 52.9276 205.201 52.7792 205.157 52.615C205.114 52.4507 205.119 52.2774 205.171 52.1157C205.237 51.9319 205.364 51.7762 205.531 51.674C205.809 51.5042 206.02 51.5721 206.013 51.6129C206.006 51.6537 205.85 51.7012 205.68 51.8711C205.596 51.9755 205.546 52.1023 205.534 52.2355C205.522 52.3687 205.55 52.5025 205.613 52.62C205.677 52.7375 205.774 52.8336 205.893 52.8962C206.011 52.9588 206.145 52.9851 206.278 52.9718C206.509 52.9242 206.631 52.8019 206.679 52.8291Z" fill="#FF9675"/>
<path d="M214.146 113.17C214.146 113.17 230.969 114.149 240.916 114.237C248.614 114.312 252.052 112.267 253.588 107.314C254.879 103.162 252.107 95.1924 252.107 95.1924C246.895 95.1924 243.681 95.9398 240.332 97.5093L241.222 101.151L214.099 103.488L214.146 113.17Z" fill="#FFBE9D"/>
<path d="M246.875 105.038C246.145 104.089 245.293 103.241 244.34 102.517C243.318 101.892 242.217 101.407 241.065 101.076C241.428 101.024 241.798 101.057 242.146 101.172C243.001 101.374 243.811 101.73 244.537 102.225C245.265 102.72 245.894 103.347 246.392 104.073C246.773 104.63 246.915 105.017 246.875 105.038Z" fill="#EB996E"/>
<path d="M207.99 97.4821C207.99 97.4821 202.785 98.7323 198.96 101.287L203.037 112.335C204.395 115.963 208.547 117.77 211.869 115.868C216.986 112.939 218.793 104.406 218.793 104.406L224.412 80.0273L215.097 74.1909L208.024 97.4821" fill="#FFBE9D"/>
<path d="M215.063 74.1909L215.444 66.1735L213.358 58.0202C213.242 57.5717 213.188 57.0078 213.555 56.736C213.737 56.5965 213.962 56.5243 214.191 56.5318C214.42 56.5392 214.639 56.6258 214.812 56.7768C215.376 57.3611 218.094 64.4885 218.094 64.4885C218.094 64.4885 222.218 62.0153 222.952 61.893C223.685 61.7707 224.603 63.9925 224.664 64.1623C224.691 64.6602 224.691 65.1592 224.664 65.6571C224.664 65.6571 227.212 65.7318 227.443 66.0783C227.628 66.7862 227.726 67.5141 227.735 68.2458C227.735 68.2458 228.815 68.5923 228.985 69.4076C229.155 70.2229 229.508 71.5682 228.985 71.8672C228.462 72.1661 227.402 72.7504 227.402 72.7504C227.402 72.7504 226.974 76.9086 226.858 77.2891C226.743 77.6696 224.358 80.0069 224.358 80.0069L215.063 74.1909Z" fill="#FFBE9D"/>
<path d="M206.394 116.031C206.394 116.031 206.645 116.18 207.175 116.35C207.95 116.593 208.77 116.659 209.573 116.541C210.864 116.356 212.073 115.799 213.052 114.937C214.345 113.764 215.438 112.387 216.286 110.86C216.786 109.963 217.206 109.024 217.543 108.054C217.897 106.987 218.189 105.9 218.42 104.8C218.95 102.51 219.527 100.044 220.139 97.4211C221.362 92.1826 222.734 86.3259 224.215 80.0139V79.9663H224.249C224.718 79.5043 225.187 79.0355 225.656 78.5463C225.887 78.3017 226.118 78.0571 226.335 77.8057C226.444 77.6766 226.559 77.5475 226.648 77.4184C226.716 77.2905 226.756 77.149 226.763 77.0039C226.947 75.6451 227.089 74.2386 227.239 72.8186V72.7303L227.32 72.6895L228.618 71.9625C228.713 71.9013 228.863 71.8334 228.924 71.779C228.989 71.7203 229.032 71.6412 229.046 71.5548C229.078 71.3294 229.078 71.1008 229.046 70.8754C228.98 70.3771 228.878 69.8844 228.74 69.401C228.509 68.9783 228.121 68.6635 227.66 68.5245L227.545 68.4838V68.3683C227.545 67.9742 227.504 67.5665 227.456 67.1656C227.438 66.9649 227.408 66.7653 227.368 66.5677C227.352 66.4807 227.325 66.3961 227.286 66.3163C227.286 66.2688 227.286 66.3163 227.246 66.2756C227.209 66.2562 227.17 66.2403 227.13 66.228C226.313 66.05 225.48 65.9566 224.643 65.9494H224.467V65.7728C224.467 65.3515 224.467 64.8827 224.467 64.4139C224.439 64.254 224.383 64.1 224.304 63.9587C224.236 63.7956 224.154 63.6393 224.073 63.4763C223.914 63.1616 223.727 62.8615 223.515 62.5794C223.419 62.448 223.302 62.3332 223.169 62.2397C223.12 62.198 223.059 62.172 222.995 62.1647C222.931 62.1574 222.866 62.1694 222.809 62.1989C222.48 62.3248 222.16 62.4724 221.851 62.6406C220.587 63.32 219.35 63.9995 218.141 64.7333L217.964 64.842L217.89 64.6517C217.251 63.0414 216.612 61.4515 215.987 59.8956C215.675 59.1143 215.369 58.3329 215.056 57.5652C215.008 57.3932 214.913 57.2382 214.78 57.118C214.648 56.9979 214.485 56.9174 214.309 56.8857C214.147 56.8318 213.971 56.8347 213.81 56.894C213.65 56.9533 213.514 57.0654 213.426 57.2118C213.341 57.3576 213.305 57.5267 213.324 57.6942C213.324 57.8437 213.419 58.0747 213.46 58.2582C213.568 58.6523 213.67 59.0395 213.772 59.4268C213.976 60.2082 214.173 60.9759 214.377 61.7369C214.776 63.2679 215.167 64.7627 215.552 66.2212V66.2688C215.417 69.059 215.287 71.7315 215.165 74.2862V74.2726L208.975 94.4112L207.229 100.017C207.025 100.648 206.869 101.144 206.76 101.491C206.652 101.837 206.584 101.987 206.584 101.987C206.584 101.987 206.618 101.81 206.713 101.477L207.141 99.9894C207.535 98.6781 208.099 96.7824 208.812 94.3636C210.28 89.4988 212.366 82.555 214.887 74.1843V74.2182C215.004 71.6726 215.124 69.0001 215.247 66.2008V66.2484C214.859 64.7876 214.459 63.2928 214.058 61.7709L213.446 59.4608C213.344 59.0735 213.242 58.6794 213.134 58.2922C213.075 58.0887 213.028 57.8823 212.991 57.6739C212.966 57.438 213.016 57.2003 213.134 56.9944C213.259 56.7825 213.453 56.6196 213.684 56.5324C213.912 56.4657 214.153 56.4581 214.385 56.5104C214.617 56.5627 214.832 56.6732 215.009 56.8314C215.179 56.9913 215.306 57.1926 215.376 57.4157L216.307 59.7462C216.938 61.3089 217.57 62.8988 218.216 64.5022L217.964 64.4139C219.181 63.6937 220.404 62.9735 221.695 62.3009C222.021 62.1303 222.357 61.9783 222.7 61.8456C222.807 61.801 222.924 61.7846 223.04 61.7981C223.156 61.8149 223.267 61.8566 223.366 61.9204C223.53 62.0378 223.674 62.1799 223.794 62.3416C224.021 62.6389 224.219 62.9575 224.385 63.2928C224.473 63.4627 224.555 63.6258 224.63 63.7956C224.726 63.9755 224.791 64.171 224.82 64.3731C224.82 64.8555 224.82 65.304 224.82 65.732L224.65 65.5486C225.524 65.5544 226.394 65.6547 227.246 65.8475C227.304 65.868 227.361 65.8929 227.415 65.9223C227.49 65.9629 227.551 66.0243 227.592 66.0989C227.645 66.2092 227.684 66.3256 227.708 66.4454C227.748 66.6629 227.776 66.8667 227.803 67.0773C227.843 67.4918 227.871 67.8994 227.891 68.3071L227.769 68.144C228.047 68.2255 228.305 68.3628 228.528 68.5473C228.751 68.7319 228.934 68.9599 229.066 69.2176C229.215 69.7339 229.324 70.2609 229.393 70.7939C229.44 71.0659 229.44 71.344 229.393 71.616C229.363 71.7807 229.276 71.9299 229.148 72.0372C229.037 72.1118 228.921 72.1799 228.801 72.2411L227.511 72.9137L227.599 72.7846C227.443 74.2046 227.3 75.5975 227.11 76.9768L227.069 77.2417C227.053 77.349 227.009 77.45 226.94 77.5339C226.84 77.6826 226.728 77.8235 226.607 77.9552C226.376 78.2133 226.145 78.4647 225.927 78.7093C225.459 79.1985 224.99 79.6673 224.514 80.1294L224.562 80.0478C223.067 86.353 221.681 92.2098 220.438 97.4483C219.819 100.064 219.228 102.531 218.685 104.813C218.452 105.922 218.153 107.016 217.788 108.088C217.438 109.067 217.006 110.015 216.497 110.922C215.629 112.467 214.511 113.859 213.188 115.039C212.18 115.907 210.94 116.459 209.621 116.629C208.8 116.739 207.964 116.655 207.182 116.384C206.983 116.311 206.79 116.223 206.604 116.119L206.394 116.031Z" fill="#EB996E"/>
<path d="M224.671 65.6775C224.671 65.725 224.44 65.7522 224.08 65.7658C223.622 65.7745 223.167 65.8291 222.721 65.9289C222.29 66.0347 221.893 66.2474 221.566 66.5471C221.321 66.7782 221.213 66.9752 221.158 66.9548C221.104 66.9344 221.158 66.6898 221.382 66.3773C221.699 65.9816 222.139 65.704 222.633 65.5891C223.108 65.4719 223.602 65.4488 224.087 65.5212C224.453 65.5687 224.671 65.6299 224.671 65.6775Z" fill="#EB996E"/>
<path d="M222.7 65.7521C222.611 65.7181 222.605 65.5075 222.7 65.2833C222.795 65.0591 222.931 64.9028 223.019 64.9368C223.107 64.9707 223.121 65.1814 223.019 65.4056C222.917 65.6298 222.768 65.7861 222.7 65.7521Z" fill="#EB996E"/>
<path d="M227.85 68.2187C227.191 68.4228 226.502 68.5169 225.812 68.4973C225.595 68.4901 225.379 68.535 225.183 68.6284C224.987 68.7218 224.816 68.8609 224.684 69.0341C224.508 69.3126 224.569 69.5436 224.514 69.5572C224.46 69.5708 224.297 69.333 224.467 68.9254C224.56 68.6958 224.731 68.506 224.949 68.3886C225.201 68.2506 225.479 68.1672 225.765 68.144C226.458 68.0378 227.166 68.0631 227.85 68.2187Z" fill="#EB996E"/>
<path d="M227.402 70.6646C227.497 70.6646 227.551 71.1674 227.524 71.7857C227.497 72.404 227.395 72.8932 227.3 72.8932C227.205 72.8932 227.143 72.3836 227.171 71.7653C227.198 71.147 227.3 70.6578 227.402 70.6646Z" fill="#EB996E"/>
<path d="M230.222 88.9618L230.826 86.8828C230.854 86.7876 230.906 86.7013 230.977 86.6323C231.048 86.5633 231.136 86.5141 231.232 86.4894C231.328 86.4647 231.429 86.4654 231.525 86.4915C231.62 86.5176 231.707 86.5681 231.778 86.6382L232.573 87.4467L233.062 85.4831C233.091 85.3697 233.153 85.2678 233.242 85.1914C233.331 85.1149 233.441 85.0675 233.557 85.0557C233.673 85.0438 233.791 85.068 233.893 85.125C233.995 85.182 234.077 85.2691 234.128 85.3744L235.236 87.6981L230.222 88.9618Z" fill="white"/>
<path d="M235.249 88.5884C234.489 88.9557 233.682 89.2163 232.851 89.3629C232.047 89.6256 231.21 89.772 230.364 89.7978C231.928 89.1695 233.573 88.7624 235.249 88.5884Z" fill="white"/>
<path d="M194.843 76.9902C194.843 76.9902 194.591 77.2484 194.238 77.7988C193.764 78.5825 193.452 79.4536 193.321 80.3603C193.127 81.7102 193.086 83.0777 193.199 84.4369C193.273 85.9792 193.396 87.6642 193.586 89.4308C193.908 92.4477 194.386 95.4458 195.019 98.413C195.257 99.5544 195.475 100.451 195.624 101.131C195.692 101.416 195.753 101.654 195.801 101.858C195.848 102.062 195.855 102.116 195.855 102.116C195.855 102.116 195.821 102.034 195.774 101.871C195.726 101.708 195.651 101.423 195.577 101.144C195.407 100.512 195.176 99.602 194.897 98.4605C194.237 95.4944 193.744 92.4933 193.423 89.4715C193.233 87.705 193.117 86.0132 193.049 84.4709C192.946 83.1107 192.996 81.7432 193.199 80.3942C193.345 79.4757 193.678 78.597 194.177 77.8124C194.361 77.5096 194.585 77.2331 194.843 76.9902Z" fill="white"/>
<path d="M209.145 67.7361L208.989 67.8177L208.54 68.0351C208.153 68.2185 207.589 68.4903 206.916 68.864C205.163 69.842 203.46 70.9078 201.814 72.0574C199.871 73.4163 198.152 74.6528 196.895 75.5497L195.407 76.6028L194.992 76.8814C194.946 76.9184 194.896 76.9502 194.843 76.9765C194.881 76.9309 194.927 76.8919 194.979 76.861L195.373 76.5621L196.834 75.4682C198.077 74.5509 199.789 73.2736 201.732 71.9419C203.381 70.7873 205.096 69.7301 206.869 68.7757C207.548 68.4156 208.119 68.1574 208.52 67.9875L208.975 67.7973C209.111 67.7497 209.111 67.7293 209.145 67.7361Z" fill="white"/>
<path d="M241.548 72.1596C241.505 72.136 241.466 72.1062 241.432 72.0713L241.127 71.8063C240.748 71.4866 240.351 71.1894 239.938 70.9162C238.558 70.0368 237.095 69.2971 235.569 68.708C234.048 68.1054 232.494 67.5882 230.915 67.1589C230.303 66.9891 229.814 66.8668 229.467 66.7852L229.08 66.6833C229.033 66.6735 228.987 66.6576 228.944 66.6357H229.087L229.481 66.7105C229.828 66.7784 230.324 66.8871 230.935 67.0434C232.529 67.4458 234.095 67.9519 235.623 68.5586C237.158 69.1474 238.623 69.9039 239.992 70.8143C240.562 71.2 241.084 71.6516 241.548 72.1596Z" fill="white"/>
<path d="M209.336 124.021C209.244 124.005 209.154 123.975 209.071 123.933C208.835 123.829 208.608 123.706 208.391 123.566C208.025 123.346 207.706 123.057 207.452 122.714C207.198 122.372 207.014 121.982 206.91 121.568C206.724 120.733 206.817 119.859 207.175 119.081C207.279 118.84 207.411 118.612 207.569 118.402C207.678 118.259 207.753 118.191 207.76 118.198C207.574 118.488 207.409 118.79 207.264 119.102C206.948 119.865 206.874 120.707 207.053 121.514C207.248 122.31 207.732 123.006 208.412 123.464C208.976 123.872 209.349 123.994 209.336 124.021Z" fill="white"/>
<path d="M207.175 116.663C207.319 116.932 207.427 117.22 207.494 117.519C207.6 117.805 207.665 118.104 207.684 118.409C207.53 118.145 207.42 117.858 207.358 117.559C207.247 117.273 207.185 116.97 207.175 116.663Z" fill="white"/>
<path d="M216.361 269L237.084 268.898L236.711 197.251L236.514 124.367L208.432 124.007L203.384 133.519C201.319 137.344 200.002 141.527 199.504 145.845C199.165 149.147 201.638 159.882 202.494 162.6L210.219 187.1L216.361 269Z" fill="#263238"/>
<path d="M242.594 124.456L265.369 186.536C266.718 190.536 267.166 194.785 266.681 198.978C266.196 203.172 264.79 207.206 262.563 210.792L236.119 262.43L221.253 243.827L243.376 197.625L223.876 165.997L227.157 124.551L236.343 124.401L242.594 124.456Z" fill="#263238"/>
<path d="M234.624 145.253C234.624 145.253 234.624 145.362 234.624 145.573C234.624 145.783 234.658 146.11 234.685 146.51C234.733 147.346 234.794 148.549 234.875 150.105C235.032 153.25 235.249 157.769 235.555 163.347C235.861 168.925 236.119 175.577 236.459 182.983C236.622 186.679 236.798 190.558 236.975 194.581C237.104 196.619 237.05 198.657 237.07 200.696C237.09 202.734 237.07 204.881 237.07 207.015C237.07 224.089 237.124 239.546 237.145 250.75C237.145 256.335 237.145 260.86 237.145 264.006C237.145 265.562 237.145 266.771 237.145 267.614C237.145 268.008 237.145 268.293 237.145 268.551C237.145 268.81 237.145 268.871 237.145 268.871C237.145 268.871 237.145 268.762 237.145 268.551V267.614C237.145 266.771 237.145 265.575 237.104 264.006C237.104 260.86 237.05 256.342 237.009 250.757C236.961 239.553 236.9 224.096 236.832 207.021C236.832 204.888 236.832 202.782 236.832 200.703C236.832 198.623 236.873 196.572 236.744 194.588C236.574 190.572 236.404 186.692 236.248 182.996C235.935 175.604 235.65 168.952 235.419 163.354C235.188 157.755 235.018 153.257 234.889 150.111C234.835 148.562 234.794 147.353 234.767 146.51C234.767 146.11 234.767 145.831 234.767 145.573C234.767 145.315 234.624 145.253 234.624 145.253Z" fill="#455A64"/>
<path d="M234.102 125.679C234.181 125.897 234.229 126.126 234.244 126.358C234.319 126.793 234.401 127.425 234.496 128.213C234.672 129.783 234.863 131.964 234.971 134.376C235.08 136.788 235.087 138.975 235.053 140.558C235.053 141.347 235.005 141.992 234.971 142.434C234.978 142.663 234.951 142.892 234.89 143.113C234.804 142.264 234.775 141.411 234.801 140.558C234.801 138.975 234.727 136.801 234.618 134.389C234.509 131.977 234.36 129.81 234.244 128.274C234.148 127.412 234.1 126.546 234.102 125.679Z" fill="#455A64"/>
<path d="M229.535 127.078C229.569 127.126 229.182 127.303 229.073 127.853C229.043 128.002 229.051 128.157 229.098 128.302C229.144 128.447 229.227 128.578 229.338 128.682C229.473 128.807 229.64 128.891 229.821 128.923C230.002 128.956 230.188 128.936 230.357 128.865C230.52 128.782 230.656 128.654 230.75 128.496C230.844 128.339 230.891 128.158 230.887 127.975C230.881 127.823 230.836 127.675 230.756 127.546C230.677 127.416 230.565 127.309 230.432 127.235C230.156 127.101 229.848 127.047 229.542 127.078C229.542 127.078 229.61 126.99 229.787 126.936C230.041 126.874 230.31 126.9 230.548 127.011C230.737 127.089 230.901 127.22 231.021 127.386C231.141 127.553 231.213 127.75 231.227 127.955C231.254 128.208 231.201 128.463 231.075 128.684C230.95 128.905 230.758 129.082 230.527 129.188C230.296 129.295 230.037 129.326 229.788 129.278C229.538 129.23 229.309 129.105 229.134 128.92C228.99 128.776 228.888 128.596 228.839 128.398C228.789 128.2 228.795 127.993 228.856 127.799C228.924 127.544 229.078 127.321 229.291 127.167C229.427 127.072 229.529 127.058 229.535 127.078Z" fill="#455A64"/>
<path d="M218.664 125.849C218.764 126.063 218.826 126.293 218.848 126.528C218.957 127.138 218.978 127.76 218.909 128.376C218.811 129.293 218.546 130.184 218.127 131.006C217.621 132.027 216.872 132.909 215.946 133.574C215.02 134.238 213.944 134.665 212.814 134.817C211.91 134.952 210.988 134.918 210.096 134.715C209.493 134.584 208.912 134.367 208.371 134.07C208.166 133.973 207.978 133.845 207.813 133.689C208.565 134.027 209.348 134.289 210.151 134.471C211.117 134.672 212.115 134.67 213.08 134.466C214.046 134.262 214.959 133.86 215.762 133.285C216.564 132.711 217.239 131.976 217.743 131.128C218.247 130.279 218.57 129.335 218.691 128.356C218.771 127.521 218.762 126.681 218.664 125.849Z" fill="#455A64"/>
<path d="M245.325 131.801C244.882 131.852 244.433 131.798 244.014 131.644C242.988 131.321 242.066 130.73 241.344 129.932C240.615 129.138 240.115 128.161 239.897 127.106C239.79 126.675 239.79 126.225 239.897 125.794C239.958 125.794 239.965 126.29 240.168 127.051C240.444 128.035 240.945 128.94 241.631 129.696C242.317 130.452 243.171 131.038 244.123 131.407C244.829 131.685 245.332 131.733 245.325 131.801Z" fill="#455A64"/>
<path d="M253.418 198.725C253.077 199.114 252.67 199.438 252.215 199.683C251.738 199.986 251.218 200.215 250.673 200.363C249.986 200.545 249.263 200.526 248.587 200.308C247.4 199.861 246.383 199.053 245.679 197.998C245.355 197.602 245.088 197.163 244.884 196.694C245.251 197.044 245.583 197.428 245.876 197.842C246.597 198.799 247.571 199.535 248.689 199.969C249.259 200.121 249.854 200.156 250.438 200.07C251.022 199.985 251.583 199.782 252.086 199.473C252.515 199.198 252.96 198.949 253.418 198.725Z" fill="#455A64"/>
<path d="M248.227 202.687C247.424 201.855 246.707 200.945 246.086 199.969C245.372 199.061 244.748 198.084 244.225 197.054C245.033 197.883 245.753 198.794 246.372 199.772C247.092 200.675 247.714 201.652 248.227 202.687Z" fill="#455A64"/>
<path d="M213.412 147.652C213.317 147.686 213.079 147.299 212.869 146.776C212.658 146.252 212.57 145.811 212.658 145.77C212.746 145.729 212.991 146.123 213.195 146.646C213.399 147.17 213.501 147.652 213.412 147.652Z" fill="#FAFAFA"/>
<path d="M226.566 149.541C226.464 149.541 226.39 149.208 226.39 148.793C226.39 148.379 226.464 148.039 226.566 148.039C226.668 148.039 226.743 148.379 226.743 148.793C226.743 149.208 226.661 149.541 226.566 149.541Z" fill="#FAFAFA"/>
<path d="M221.158 156.689C221.063 156.689 220.954 156.281 220.92 155.758C220.886 155.235 220.92 154.814 221.029 154.807C221.137 154.8 221.239 155.214 221.273 155.738C221.307 156.261 221.253 156.682 221.158 156.689Z" fill="#FAFAFA"/>
<path d="M211.279 161.92C211.197 161.982 210.918 161.73 210.552 161.472C210.185 161.214 209.872 161.017 209.872 160.922C209.872 160.827 210.321 160.881 210.735 161.18C211.149 161.479 211.36 161.92 211.279 161.92Z" fill="#FAFAFA"/>
<path d="M228.693 168.586C228.611 168.531 228.693 168.239 228.924 167.906C229.155 167.573 229.366 167.383 229.447 167.437C229.529 167.492 229.447 167.791 229.216 168.117C228.985 168.443 228.774 168.64 228.693 168.586Z" fill="#FAFAFA"/>
<path d="M217.944 170.468C217.849 170.468 217.768 169.904 217.768 169.217C217.768 168.531 217.849 167.96 217.944 167.96C218.039 167.96 218.121 168.524 218.121 169.217C218.121 169.91 218.019 170.468 217.944 170.468Z" fill="#FAFAFA"/>
<path d="M214.424 178.091C214.37 178.166 214.016 178.01 213.636 177.731C213.256 177.452 212.957 177.167 213.045 177.085C213.133 177.004 213.459 177.167 213.84 177.446C214.22 177.724 214.485 178.01 214.424 178.091Z" fill="#FAFAFA"/>
<path d="M225.309 180.741C225.35 180.829 225.133 181.013 224.82 181.155C224.508 181.298 224.222 181.332 224.182 181.244C224.141 181.155 224.365 180.972 224.678 180.829C224.99 180.687 225.275 180.653 225.309 180.741Z" fill="#FAFAFA"/>
<path d="M217.944 193.174C217.863 193.215 217.509 192.692 217.163 191.999C216.816 191.306 216.606 190.708 216.694 190.64C216.782 190.572 217.136 191.122 217.475 191.815C217.815 192.508 218.005 193.1 217.944 193.174Z" fill="#FAFAFA"/>
<path d="M229.95 192.019C229.861 191.972 230.017 191.517 230.289 190.993C230.561 190.47 230.867 190.09 230.969 190.137C231.071 190.185 230.901 190.64 230.622 191.163C230.344 191.686 230.031 192.067 229.95 192.019Z" fill="#FAFAFA"/>
<path d="M224.684 202.544C224.582 202.544 224.595 201.993 224.487 201.355C224.378 200.716 224.215 200.207 224.31 200.159C224.405 200.111 224.731 200.594 224.84 201.3C224.949 202.007 224.779 202.564 224.684 202.544Z" fill="#FAFAFA"/>
<path d="M219.045 208.557C218.977 208.625 218.637 208.367 218.291 207.986C217.944 207.606 217.72 207.246 217.795 207.178C217.869 207.11 218.202 207.368 218.549 207.749C218.895 208.129 219.12 208.489 219.045 208.557Z" fill="#FAFAFA"/>
<path d="M232.729 210.84C232.661 210.772 232.912 210.405 233.293 210.018C233.673 209.631 234.027 209.379 234.101 209.447C234.176 209.515 233.918 209.889 233.544 210.269C233.17 210.65 232.804 210.908 232.729 210.84Z" fill="#FAFAFA"/>
<path d="M224.86 219.842C224.765 219.842 224.765 219.306 224.86 218.681C224.956 218.055 225.105 217.566 225.207 217.58C225.309 217.593 225.302 218.11 225.207 218.735C225.112 219.36 224.956 219.856 224.86 219.842Z" fill="#FAFAFA"/>
<path d="M219.568 224.211C219.479 224.259 219.18 223.906 218.888 223.423C218.596 222.941 218.446 222.513 218.528 222.465C218.609 222.418 218.908 222.764 219.207 223.247C219.506 223.729 219.649 224.157 219.568 224.211Z" fill="#FAFAFA"/>
<path d="M232.321 229.722C232.383 229.803 232.036 230.15 231.547 230.496C231.058 230.843 230.63 231.06 230.568 230.979C230.507 230.897 230.861 230.55 231.343 230.204C231.825 229.857 232.267 229.647 232.321 229.722Z" fill="#FAFAFA"/>
<path d="M221.695 236.876C221.6 236.842 221.695 236.298 221.783 235.619C221.872 234.94 221.817 234.382 221.919 234.369C222.021 234.355 222.198 234.926 222.13 235.653C222.062 236.38 221.783 236.917 221.695 236.876Z" fill="#FAFAFA"/>
<path d="M225.941 247.149C225.86 247.21 225.574 246.979 225.296 246.633C225.017 246.286 224.861 245.953 224.936 245.892C225.01 245.831 225.296 246.062 225.574 246.409C225.853 246.755 226.016 247.088 225.941 247.149Z" fill="#FAFAFA"/>
<path d="M221.3 254.039C221.219 254.093 220.845 253.692 220.464 253.135C220.084 252.578 219.846 252.089 219.921 252.034C219.996 251.98 220.376 252.381 220.757 252.938C221.137 253.495 221.382 253.984 221.3 254.039Z" fill="#FAFAFA"/>
<path d="M234.08 245.39C233.992 245.356 233.999 245.104 234.08 244.833C234.162 244.561 234.345 244.357 234.44 244.391C234.536 244.425 234.522 244.676 234.44 244.955C234.359 245.233 234.175 245.43 234.08 245.39Z" fill="#FAFAFA"/>
<path d="M228.441 261.798C228.353 261.75 228.523 261.268 228.659 260.663C228.795 260.058 228.842 259.549 228.944 259.542C229.046 259.535 229.148 260.086 229.005 260.738C228.863 261.39 228.523 261.852 228.441 261.798Z" fill="#FAFAFA"/>
<path d="M232.11 156.797C232.022 156.838 231.805 156.566 231.628 156.186C231.451 155.805 231.377 155.466 231.465 155.425C231.553 155.384 231.771 155.656 231.947 156.036C232.124 156.417 232.212 156.757 232.11 156.797Z" fill="#FAFAFA"/>
<path d="M222.7 135.639C222.755 135.721 222.279 136.101 221.769 136.645C221.26 137.188 220.913 137.691 220.825 137.644C220.737 137.596 220.968 136.964 221.504 136.407C222.041 135.85 222.632 135.551 222.7 135.639Z" fill="#FAFAFA"/>
<path d="M231.078 135.422C230.976 135.422 230.82 135.035 230.582 134.573C230.344 134.111 230.127 133.73 230.201 133.662C230.276 133.594 230.643 133.893 230.881 134.41C231.119 134.926 231.166 135.368 231.078 135.422Z" fill="#FAFAFA"/>
<path d="M204.919 142.291C204.83 142.25 204.919 141.802 205.129 141.286C205.34 140.769 205.571 140.368 205.666 140.409C205.761 140.45 205.666 140.892 205.456 141.415C205.245 141.938 205.034 142.325 204.919 142.291Z" fill="#FAFAFA"/>
<path d="M205.768 152.551C205.7 152.625 205.313 152.408 204.899 152.061C204.484 151.715 204.219 151.382 204.26 151.3C204.301 151.219 204.715 151.443 205.13 151.79C205.544 152.136 205.829 152.476 205.768 152.551Z" fill="#FAFAFA"/>
<path d="M222.931 127.493C222.843 127.493 222.653 127.275 222.517 126.929C222.381 126.582 222.34 126.25 222.429 126.25C222.517 126.25 222.707 126.467 222.843 126.813C222.979 127.16 223.02 127.459 222.931 127.493Z" fill="#FAFAFA"/>
<path d="M239.367 132.507C239.272 132.507 239.278 132.079 239.367 131.597C239.455 131.114 239.632 130.734 239.727 130.754C239.822 130.775 239.815 131.189 239.727 131.671C239.638 132.154 239.462 132.528 239.367 132.507Z" fill="#FAFAFA"/>
<path d="M243.226 140.273C243.138 140.232 243.26 139.729 243.504 139.138C243.749 138.547 244.014 138.106 244.102 138.14C244.191 138.174 244.102 138.683 243.831 139.274C243.559 139.865 243.321 140.307 243.226 140.273Z" fill="#FAFAFA"/>
<path d="M240.474 146.538C240.386 146.578 240.059 146.109 239.747 145.491C239.434 144.873 239.258 144.323 239.346 144.282C239.434 144.241 239.754 144.71 240.066 145.328C240.379 145.946 240.562 146.49 240.474 146.538Z" fill="#FAFAFA"/>
<path d="M246.358 152.802C246.27 152.768 246.358 152.374 246.508 151.925C246.657 151.477 246.895 151.137 246.99 151.171C247.085 151.205 246.99 151.599 246.841 152.048C246.691 152.496 246.481 152.836 246.358 152.802Z" fill="#FAFAFA"/>
<path d="M241.1 158.937C241.018 158.992 240.807 158.808 240.638 158.537C240.468 158.265 240.386 157.993 240.475 157.939C240.563 157.884 240.76 158.068 240.937 158.346C241.113 158.625 241.181 158.89 241.1 158.937Z" fill="#FAFAFA"/>
<path d="M242.22 171.602C242.152 171.664 241.724 171.331 241.276 170.841C240.827 170.352 240.521 169.911 240.596 169.843C240.671 169.775 241.092 170.114 241.541 170.604C241.989 171.093 242.295 171.534 242.22 171.602Z" fill="#FAFAFA"/>
<path d="M249.116 164.325C249.042 164.387 248.668 164.047 248.287 163.558C247.907 163.068 247.662 162.634 247.737 162.572C247.812 162.511 248.185 162.858 248.566 163.34C248.946 163.823 249.198 164.271 249.116 164.325Z" fill="#FAFAFA"/>
<path d="M252.902 174.361C252.813 174.32 252.97 173.81 253.248 173.226C253.527 172.642 253.819 172.193 253.928 172.234C254.036 172.275 253.866 172.791 253.588 173.375C253.309 173.96 252.99 174.408 252.902 174.361Z" fill="#FAFAFA"/>
<path d="M244.857 182.623C244.769 182.67 244.456 182.297 244.021 181.896C243.587 181.495 243.186 181.216 243.226 181.114C243.267 181.012 243.784 181.196 244.259 181.638C244.735 182.079 244.939 182.575 244.857 182.623Z" fill="#FAFAFA"/>
<path d="M245.36 191.136C245.36 191.231 245.02 191.313 244.606 191.313C244.191 191.313 243.858 191.231 243.858 191.136C243.858 191.041 244.191 190.959 244.606 190.959C245.02 190.959 245.36 191.041 245.36 191.136Z" fill="#FAFAFA"/>
<path d="M253.628 188.758C253.54 188.711 253.717 188.283 253.846 187.753C253.975 187.223 254.029 186.761 254.131 186.754C254.233 186.747 254.342 187.243 254.192 187.834C254.043 188.425 253.703 188.813 253.628 188.758Z" fill="#FAFAFA"/>
<path d="M261.842 191.619C261.754 191.653 261.503 191.17 261.285 190.552C261.068 189.934 260.966 189.404 261.054 189.377C261.143 189.349 261.401 189.818 261.618 190.437C261.836 191.055 261.937 191.585 261.842 191.619Z" fill="#FAFAFA"/>
<path d="M260.531 203.305C260.45 203.257 260.66 202.687 261 202.028C261.34 201.369 261.679 200.873 261.781 200.92C261.883 200.968 261.659 201.538 261.313 202.191C260.966 202.843 260.62 203.366 260.531 203.305Z" fill="#FAFAFA"/>
<path d="M253.037 210.161C252.949 210.195 252.67 209.726 252.412 209.107C252.154 208.489 252.025 207.959 252.12 207.918C252.215 207.878 252.487 208.353 252.738 208.972C252.99 209.59 253.126 210.161 253.037 210.161Z" fill="#FAFAFA"/>
<path d="M244.735 212.817C244.735 212.912 244.449 212.993 244.103 212.993C243.756 212.993 243.478 212.912 243.478 212.817C243.478 212.722 243.763 212.64 244.103 212.64C244.442 212.64 244.735 212.722 244.735 212.817Z" fill="#FAFAFA"/>
<path d="M249.49 223.75C249.402 223.75 249.212 223.376 249.069 222.859C248.926 222.343 248.899 221.895 248.994 221.874C249.089 221.854 249.273 222.248 249.416 222.764C249.558 223.281 249.585 223.695 249.49 223.75Z" fill="#FAFAFA"/>
<path d="M243.477 220.08C243.396 220.033 243.477 219.714 243.701 219.367C243.926 219.02 244.15 218.783 244.231 218.83C244.313 218.878 244.231 219.204 244.007 219.55C243.783 219.897 243.566 220.135 243.477 220.08Z" fill="#FAFAFA"/>
<path d="M243.356 232.113C243.26 232.113 243.125 231.658 243.057 231.067C242.989 230.476 243.009 229.993 243.104 229.98C243.199 229.966 243.335 230.435 243.403 231.026C243.471 231.617 243.451 232.1 243.356 232.113Z" fill="#FAFAFA"/>
</svg>
