<svg width="597" height="422" viewBox="0 0 597 422" fill="none" xmlns="http://www.w3.org/2000/svg">
<path d="M547 2H50C22.3858 2 0 24.3858 0 52V370C0 397.614 22.3858 420 50 420H547C574.614 420 597 397.614 597 370V52C597 24.3858 574.614 2 547 2Z" fill="#FCE1A6"/>
<path d="M551.454 147.181H99.3813" stroke="white" stroke-width="3"/>
<path d="M306.064 250.183L277.608 246.483L274.089 273.804L302.545 277.503L306.064 250.183Z" fill="#FFCD1D"/>
<path d="M280.766 256.906L294.045 258.633" stroke="#212121" stroke-width="3"/>
<path d="M280.295 260.56L299.898 263.109" stroke="#212121" stroke-width="1.5"/>
<path d="M279.968 263.101L299.571 265.65" stroke="#212121" stroke-width="1.5"/>
<path d="M203.951 250.327H175.258V277.875H203.951V250.327Z" fill="#4DCF7A"/>
<path d="M179.722 260.257H193.112" stroke="#212121" stroke-width="3"/>
<path d="M179.722 263.941H199.488" stroke="#212121" stroke-width="1.5"/>
<path d="M179.722 266.503H199.488" stroke="#212121" stroke-width="1.5"/>
<path d="M569 62H28V361H569V62Z" fill="#FF5925"/>
<g filter="url(#filter0_ddd_583_923)">
<path d="M563 70H34V353H563V70Z" fill="#FFF8E9"/>
<path d="M436.693 256.214H408V283.762H436.693V256.214Z" fill="#00FF58"/>
<path d="M412.463 266.144H425.853" stroke="#212121" stroke-width="2"/>
<path d="M412.463 269.828H432.23" stroke="#212121"/>
<path d="M412.463 272.391H432.23" stroke="#212121"/>
<path d="M324.627 277.7L296.526 283.525L302.066 310.505L330.167 304.68L324.627 277.7Z" fill="#00FF58"/>
<path d="M302.894 292.344L316.008 289.626" stroke="#212121" stroke-width="2"/>
<path d="M303.635 295.952L322.993 291.939" stroke="#212121"/>
<path d="M304.15 298.462L323.509 294.449" stroke="#212121"/>
<path d="M219.693 172.819H191V200.367H219.693V172.819Z" fill="#FF7676"/>
<path d="M195.463 182.749H208.853" stroke="#212121" stroke-width="2"/>
<path d="M195.463 186.433H215.23" stroke="#212121"/>
<path d="M195.463 188.995H215.23" stroke="#212121"/>
<path d="M109.737 276.772L81.5972 282.407L86.9558 309.424L115.095 303.789L109.737 276.772Z" fill="#FF7676"/>
<path d="M87.9062 291.269L101.038 288.639" stroke="#212121" stroke-width="2"/>
<path d="M88.6226 294.881L108.008 291" stroke="#212121"/>
<path d="M89.1211 297.395L108.506 293.513" stroke="#212121"/>
</g>
<path d="M446.877 304.788V131.159" stroke="white" stroke-width="3"/>
<path d="M347 316.5V112.533" stroke="#212121" stroke-width="2"/>
<path d="M226 322.529V105.5" stroke="#212121" stroke-width="2"/>
<path d="M123 320.519V108.514" stroke="#212121" stroke-width="2"/>
<path d="M446.877 304.788V131.159" stroke="white" stroke-width="3"/>
<path d="M447 326.548V101.481" stroke="#212121" stroke-width="2"/>
<path d="M527.28 162.771H75.207" stroke="#212121" stroke-width="2"/>
<path d="M527.28 126.6H75.207" stroke="#212121" stroke-width="2"/>
<path d="M76.3758 141.669C76.3337 141.272 76.1552 140.963 75.8414 140.741C75.5303 140.52 75.126 140.409 74.6274 140.409C74.2774 140.409 73.977 140.462 73.7265 140.568C73.4759 140.675 73.284 140.819 73.1513 141.001C73.0187 141.183 72.9505 141.391 72.9473 141.624C72.9473 141.818 72.9913 141.987 73.0786 142.129C73.1692 142.272 73.2916 142.393 73.4459 142.493C73.5996 142.59 73.7705 142.672 73.9573 142.739C74.1447 142.805 74.3335 142.862 74.5235 142.907L75.3932 143.126C75.7433 143.208 76.0799 143.319 76.4025 143.458C76.729 143.597 77.0204 143.773 77.2767 143.985C77.5362 144.198 77.7415 144.454 77.8927 144.754C78.0438 145.055 78.119 145.406 78.119 145.81C78.119 146.356 77.98 146.837 77.7027 147.253C77.4247 147.665 77.023 147.988 76.4982 148.221C75.9753 148.452 75.3435 148.567 74.6006 148.567C73.8789 148.567 73.2527 148.455 72.7209 148.231C72.193 148.006 71.7792 147.679 71.4801 147.248C71.1843 146.817 71.0242 146.292 71 145.674H72.6533C72.6776 145.998 72.777 146.268 72.9524 146.483C73.1271 146.699 73.3554 146.859 73.6359 146.966C73.9197 147.072 74.2366 147.125 74.5866 147.125C74.952 147.125 75.272 147.071 75.5469 146.961C75.8249 146.849 76.0423 146.694 76.1991 146.497C76.356 146.297 76.4363 146.064 76.4389 145.797C76.4363 145.554 76.3649 145.354 76.2259 145.196C76.0876 145.035 75.8925 144.902 75.6419 144.795C75.3945 144.686 75.1044 144.589 74.7728 144.504L73.7175 144.231C72.9537 144.034 72.3498 143.736 71.9061 143.335C71.4655 142.932 71.2448 142.396 71.2448 141.728C71.2448 141.179 71.3928 140.699 71.6886 140.286C71.9877 139.874 72.3938 139.554 72.9071 139.326C73.4198 139.096 74.0013 138.981 74.6504 138.981C75.3084 138.981 75.8848 139.096 76.3802 139.326C76.8782 139.554 77.2691 139.871 77.5528 140.277C77.8372 140.681 77.9832 141.145 77.9921 141.669H76.3758ZM82.6353 141.438V142.712H78.6368V141.438H82.6353ZM79.6238 139.763H81.2631V146.324C81.2631 146.545 81.2963 146.716 81.3626 146.834C81.4321 146.949 81.5226 147.028 81.6349 147.071C81.7464 147.113 81.8701 147.134 82.0059 147.134C82.1086 147.134 82.2023 147.127 82.2865 147.111C82.3745 147.096 82.4408 147.082 82.4861 147.071L82.7622 148.358C82.6748 148.389 82.5492 148.422 82.386 148.459C82.2266 148.495 82.0302 148.516 81.7974 148.522C81.3868 148.534 81.017 148.472 80.688 148.335C80.359 148.196 80.0976 147.981 79.9044 147.689C79.7143 147.398 79.6206 147.034 79.6238 146.597V139.763ZM86.5834 148.563C85.9037 148.563 85.3152 148.413 84.8172 148.113C84.3192 147.812 83.9322 147.392 83.658 146.852C83.3858 146.312 83.2499 145.681 83.2499 144.959C83.2499 144.237 83.3858 143.605 83.658 143.062C83.9322 142.519 84.3192 142.097 84.8172 141.797C85.3152 141.496 85.9037 141.347 86.5834 141.347C87.2625 141.347 87.851 141.496 88.3496 141.797C88.8476 142.097 89.2321 142.519 89.5044 143.062C89.7785 143.605 89.9163 144.237 89.9163 144.959C89.9163 145.681 89.7785 146.312 89.5044 146.852C89.2321 147.392 88.8476 147.812 88.3496 148.113C87.851 148.413 87.2625 148.563 86.5834 148.563ZM86.5923 147.243C86.9609 147.243 87.2682 147.142 87.5163 146.939C87.7636 146.733 87.9479 146.456 88.0684 146.11C88.1921 145.765 88.254 145.38 88.254 144.955C88.254 144.527 88.1921 144.14 88.0684 143.795C87.9479 143.445 87.7636 143.168 87.5163 142.962C87.2682 142.755 86.9609 142.652 86.5923 142.652C86.2149 142.652 85.9012 142.755 85.6506 142.962C85.4025 143.168 85.217 143.445 85.0933 143.795C84.9728 144.14 84.9122 144.527 84.9122 144.955C84.9122 145.38 84.9728 145.765 85.0933 146.11C85.217 146.456 85.4025 146.733 85.6506 146.939C85.9012 147.142 86.2149 147.243 86.5923 147.243ZM90.925 148.426V141.438H92.5146V142.602H92.5872C92.7135 142.199 92.9309 141.888 93.2389 141.669C93.5501 141.448 93.9046 141.338 94.3031 141.338C94.3936 141.338 94.495 141.342 94.6066 141.351C94.7214 141.357 94.8164 141.368 94.8922 141.383V142.898C94.8227 142.874 94.7124 142.853 94.5613 142.834C94.4134 142.813 94.2699 142.803 94.1316 142.803C93.8325 142.803 93.5634 142.867 93.325 142.998C93.0897 143.126 92.9041 143.303 92.7683 143.531C92.6325 143.758 92.5643 144.021 92.5643 144.318V148.426H90.925ZM95.5987 148.426V141.438H97.238V148.426H95.5987ZM96.4225 140.446C96.163 140.446 95.9398 140.359 95.7524 140.186C95.5656 140.01 95.4718 139.799 95.4718 139.554C95.4718 139.305 95.5656 139.094 95.7524 138.921C95.9398 138.746 96.163 138.657 96.4225 138.657C96.6852 138.657 96.909 138.746 97.0933 138.921C97.2801 139.094 97.3739 139.305 97.3739 139.554C97.3739 139.799 97.2801 140.01 97.0933 140.186C96.909 140.359 96.6852 140.446 96.4225 140.446ZM101.62 148.563C100.923 148.563 100.321 148.418 99.8134 148.126C99.3097 147.832 98.9214 147.416 98.6497 146.879C98.3781 146.339 98.2423 145.704 98.2423 144.973C98.2423 144.254 98.3781 143.623 98.6497 143.08C98.9245 142.534 99.3078 142.11 99.8 141.806C100.292 141.5 100.871 141.347 101.534 141.347C101.963 141.347 102.368 141.416 102.748 141.556C103.132 141.693 103.47 141.905 103.763 142.193C104.059 142.481 104.291 142.848 104.46 143.294C104.629 143.737 104.713 144.265 104.713 144.877V145.383H99.0119V144.272H103.142C103.139 143.957 103.071 143.676 102.938 143.431C102.806 143.181 102.62 142.986 102.381 142.844C102.146 142.701 101.871 142.63 101.557 142.63C101.222 142.63 100.928 142.712 100.674 142.875C100.42 143.036 100.223 143.249 100.081 143.513C99.9422 143.773 99.8708 144.06 99.8682 144.372V145.342C99.8682 145.748 99.9422 146.097 100.09 146.388C100.238 146.676 100.445 146.898 100.711 147.052C100.976 147.204 101.287 147.28 101.643 147.28C101.882 147.28 102.097 147.246 102.291 147.18C102.484 147.11 102.651 147.008 102.794 146.875C102.935 146.742 103.042 146.576 103.115 146.379L104.645 146.552C104.549 146.958 104.365 147.313 104.093 147.617C103.825 147.917 103.48 148.15 103.061 148.318C102.641 148.481 102.161 148.563 101.62 148.563ZM111.215 143.285L109.721 143.449C109.679 143.297 109.605 143.155 109.499 143.021C109.397 142.887 109.258 142.78 109.082 142.698C108.907 142.616 108.693 142.575 108.44 142.575C108.099 142.575 107.812 142.649 107.579 142.798C107.349 142.946 107.237 143.139 107.239 143.376C107.237 143.579 107.311 143.745 107.461 143.872C107.615 143.999 107.869 144.104 108.222 144.186L109.408 144.44C110.067 144.583 110.556 144.809 110.876 145.119C111.199 145.428 111.362 145.833 111.365 146.333C111.362 146.774 111.234 147.162 110.98 147.498C110.729 147.832 110.381 148.093 109.934 148.281C109.487 148.469 108.974 148.563 108.394 148.563C107.543 148.563 106.858 148.384 106.338 148.026C105.819 147.665 105.509 147.163 105.41 146.52L107.008 146.365C107.081 146.681 107.235 146.919 107.471 147.08C107.706 147.241 108.013 147.321 108.389 147.321C108.779 147.321 109.091 147.241 109.327 147.08C109.566 146.919 109.685 146.72 109.685 146.483C109.685 146.283 109.608 146.118 109.454 145.987C109.303 145.857 109.067 145.757 108.748 145.687L107.561 145.437C106.894 145.298 106.4 145.062 106.08 144.732C105.76 144.398 105.602 143.976 105.605 143.467C105.602 143.036 105.718 142.663 105.953 142.347C106.191 142.029 106.522 141.783 106.945 141.611C107.37 141.434 107.861 141.347 108.417 141.347C109.232 141.347 109.874 141.521 110.342 141.87C110.812 142.219 111.104 142.69 111.215 143.285Z" fill="#212121"/>
<path d="M155.094 141.076V139.662H162.494V141.076H159.628V148.98H157.961V141.076H155.094ZM165.491 149.117C164.812 149.117 164.223 148.967 163.725 148.666C163.226 148.366 162.84 147.946 162.565 147.406C162.294 146.866 162.158 146.235 162.158 145.513C162.158 144.791 162.294 144.159 162.565 143.615C162.84 143.073 163.226 142.651 163.725 142.351C164.223 142.05 164.812 141.9 165.491 141.9C166.17 141.9 166.759 142.05 167.257 142.351C167.755 142.651 168.14 143.073 168.412 143.615C168.686 144.159 168.824 144.791 168.824 145.513C168.824 146.235 168.686 146.866 168.412 147.406C168.14 147.946 167.755 148.366 167.257 148.666C166.759 148.967 166.17 149.117 165.491 149.117ZM165.5 147.797C165.868 147.797 166.176 147.696 166.424 147.493C166.671 147.286 166.856 147.01 166.976 146.664C167.1 146.318 167.162 145.933 167.162 145.508C167.162 145.081 167.1 144.694 166.976 144.348C166.856 143.999 166.671 143.722 166.424 143.515C166.176 143.309 165.868 143.206 165.5 143.206C165.123 143.206 164.808 143.309 164.558 143.515C164.31 143.722 164.125 143.999 164.001 144.348C163.881 144.694 163.82 145.081 163.82 145.508C163.82 145.933 163.881 146.318 164.001 146.664C164.125 147.01 164.31 147.286 164.558 147.493C164.808 147.696 165.123 147.797 165.5 147.797ZM175.829 148.98H172.686V139.662H175.892C176.813 139.662 177.604 139.848 178.265 140.221C178.929 140.591 179.439 141.124 179.796 141.818C180.152 142.513 180.33 143.344 180.33 144.312C180.33 145.282 180.15 146.116 179.791 146.814C179.435 147.512 178.92 148.047 178.247 148.42C177.577 148.794 176.771 148.98 175.829 148.98ZM174.366 147.52H175.747C176.393 147.52 176.932 147.402 177.364 147.165C177.795 146.925 178.12 146.569 178.337 146.095C178.555 145.619 178.664 145.025 178.664 144.312C178.664 143.599 178.555 143.007 178.337 142.537C178.12 142.064 177.799 141.711 177.373 141.477C176.951 141.24 176.425 141.122 175.797 141.122H174.366V147.52ZM184.506 149.117C183.826 149.117 183.238 148.967 182.74 148.666C182.242 148.366 181.855 147.946 181.58 147.406C181.308 146.866 181.172 146.235 181.172 145.513C181.172 144.791 181.308 144.159 181.58 143.615C181.855 143.073 182.242 142.651 182.74 142.351C183.238 142.05 183.826 141.9 184.506 141.9C185.185 141.9 185.773 142.05 186.272 142.351C186.77 142.651 187.154 143.073 187.427 143.615C187.701 144.159 187.839 144.791 187.839 145.513C187.839 146.235 187.701 146.866 187.427 147.406C187.154 147.946 186.77 148.366 186.272 148.666C185.773 148.967 185.185 149.117 184.506 149.117ZM184.515 147.797C184.883 147.797 185.191 147.696 185.439 147.493C185.686 147.286 185.87 147.01 185.991 146.664C186.114 146.318 186.176 145.933 186.176 145.508C186.176 145.081 186.114 144.694 185.991 144.348C185.87 143.999 185.686 143.722 185.439 143.515C185.191 143.309 184.883 143.206 184.515 143.206C184.137 143.206 183.823 143.309 183.573 143.515C183.325 143.722 183.139 143.999 183.016 144.348C182.895 144.694 182.835 145.081 182.835 145.508C182.835 145.933 182.895 146.318 183.016 146.664C183.139 147.01 183.325 147.286 183.573 147.493C183.823 147.696 184.137 147.797 184.515 147.797Z" fill="#212121"/>
<path d="M254.44 139.662V148.98H252.76V139.662H254.44ZM257.444 144.885V148.98H255.804V141.991H257.371V143.179H257.453C257.613 142.788 257.868 142.476 258.218 142.246C258.571 142.016 259.007 141.9 259.527 141.9C260.007 141.9 260.425 142.003 260.781 142.21C261.14 142.416 261.418 142.715 261.614 143.106C261.813 143.497 261.912 143.972 261.909 144.53V148.98H260.269V144.785C260.269 144.318 260.148 143.952 259.907 143.688C259.668 143.424 259.338 143.292 258.915 143.292C258.628 143.292 258.373 143.357 258.15 143.483C257.93 143.608 257.756 143.788 257.629 144.025C257.506 144.262 257.444 144.548 257.444 144.885ZM266.046 148.98V139.662H269.523C270.236 139.662 270.834 139.795 271.317 140.062C271.803 140.329 272.17 140.696 272.418 141.163C272.668 141.627 272.793 142.155 272.793 142.747C272.793 143.344 272.668 143.875 272.418 144.339C272.167 144.803 271.797 145.169 271.308 145.435C270.819 145.699 270.217 145.831 269.501 145.831H267.196V144.444H269.275C269.691 144.444 270.032 144.371 270.298 144.225C270.563 144.08 270.76 143.879 270.887 143.625C271.017 143.37 271.081 143.077 271.081 142.747C271.081 142.416 271.017 142.125 270.887 141.873C270.76 141.621 270.562 141.426 270.294 141.286C270.028 141.144 269.685 141.072 269.265 141.072H267.726V148.98H266.046ZM273.797 148.98V141.991H275.387V143.156H275.46C275.587 142.752 275.803 142.442 276.111 142.223C276.422 142.002 276.777 141.891 277.175 141.891C277.267 141.891 277.367 141.896 277.479 141.905C277.594 141.911 277.689 141.921 277.765 141.937V143.452C277.695 143.428 277.585 143.406 277.434 143.388C277.286 143.367 277.142 143.357 277.004 143.357C276.705 143.357 276.436 143.421 276.197 143.552C275.962 143.679 275.777 143.857 275.641 144.084C275.505 144.312 275.437 144.574 275.437 144.872V148.98H273.797ZM281.219 149.117C280.54 149.117 279.951 148.967 279.452 148.666C278.954 148.366 278.568 147.946 278.293 147.406C278.022 146.866 277.886 146.235 277.886 145.513C277.886 144.791 278.022 144.159 278.293 143.615C278.568 143.073 278.954 142.651 279.452 142.351C279.951 142.05 280.54 141.9 281.219 141.9C281.898 141.9 282.487 142.05 282.985 142.351C283.483 142.651 283.868 143.073 284.14 143.615C284.414 144.159 284.551 144.791 284.551 145.513C284.551 146.235 284.414 146.866 284.14 147.406C283.868 147.946 283.483 148.366 282.985 148.666C282.487 148.967 281.898 149.117 281.219 149.117ZM281.228 147.797C281.596 147.797 281.904 147.696 282.151 147.493C282.399 147.286 282.583 147.01 282.704 146.664C282.828 146.318 282.89 145.933 282.89 145.508C282.89 145.081 282.828 144.694 282.704 144.348C282.583 143.999 282.399 143.722 282.151 143.515C281.904 143.309 281.596 143.206 281.228 143.206C280.851 143.206 280.536 143.309 280.286 143.515C280.038 143.722 279.853 143.999 279.729 144.348C279.608 144.694 279.547 145.081 279.547 145.508C279.547 145.933 279.608 146.318 279.729 146.664C279.853 147.01 280.038 147.286 280.286 147.493C280.536 147.696 280.851 147.797 281.228 147.797ZM288.586 151.747C287.997 151.747 287.492 151.666 287.069 151.506C286.646 151.348 286.306 151.135 286.05 150.868C285.793 150.602 285.615 150.306 285.516 149.981L286.992 149.622C287.058 149.758 287.155 149.893 287.281 150.027C287.408 150.164 287.579 150.276 287.793 150.363C288.011 150.454 288.283 150.5 288.613 150.5C289.078 150.5 289.462 150.386 289.768 150.158C290.073 149.934 290.225 149.564 290.225 149.049V147.725H290.143C290.059 147.894 289.935 148.069 289.772 148.248C289.612 148.427 289.399 148.577 289.133 148.698C288.871 148.819 288.54 148.88 288.142 148.88C287.608 148.88 287.123 148.754 286.688 148.502C286.256 148.248 285.912 147.869 285.656 147.365C285.402 146.858 285.275 146.224 285.275 145.463C285.275 144.695 285.402 144.048 285.656 143.52C285.912 142.989 286.258 142.587 286.693 142.314C287.127 142.038 287.612 141.9 288.146 141.9C288.554 141.9 288.889 141.97 289.152 142.11C289.417 142.246 289.629 142.412 289.786 142.606C289.943 142.797 290.062 142.977 290.143 143.147H290.234V141.991H291.851V149.094C291.851 149.691 291.709 150.186 291.425 150.577C291.141 150.969 290.754 151.262 290.261 151.456C289.769 151.65 289.211 151.747 288.586 151.747ZM288.599 147.588C288.947 147.588 289.242 147.503 289.487 147.333C289.732 147.163 289.917 146.919 290.044 146.601C290.171 146.282 290.234 145.9 290.234 145.454C290.234 145.014 290.171 144.629 290.044 144.298C289.92 143.968 289.736 143.711 289.491 143.529C289.25 143.344 288.952 143.251 288.599 143.251C288.234 143.251 287.929 143.347 287.685 143.538C287.44 143.729 287.256 143.992 287.132 144.325C287.008 144.656 286.946 145.032 286.946 145.454C286.946 145.881 287.008 146.256 287.132 146.578C287.259 146.896 287.444 147.145 287.689 147.324C287.937 147.5 288.24 147.588 288.599 147.588ZM293.148 148.98V141.991H294.738V143.156H294.81C294.937 142.752 295.154 142.442 295.462 142.223C295.774 142.002 296.128 141.891 296.527 141.891C296.617 141.891 296.719 141.896 296.83 141.905C296.945 141.911 297.04 141.921 297.115 141.937V143.452C297.046 143.428 296.935 143.406 296.785 143.388C296.637 143.367 296.493 143.357 296.354 143.357C296.055 143.357 295.787 143.421 295.549 143.552C295.313 143.679 295.127 143.857 294.991 144.084C294.855 144.312 294.788 144.574 294.788 144.872V148.98H293.148ZM300.615 149.117C299.917 149.117 299.315 148.971 298.808 148.68C298.304 148.386 297.916 147.97 297.644 147.433C297.372 146.893 297.236 146.257 297.236 145.526C297.236 144.808 297.372 144.177 297.644 143.634C297.919 143.088 298.302 142.663 298.795 142.36C299.286 142.053 299.865 141.9 300.529 141.9C300.957 141.9 301.362 141.97 301.742 142.11C302.126 142.246 302.464 142.458 302.757 142.747C303.053 143.035 303.285 143.402 303.454 143.848C303.623 144.291 303.707 144.819 303.707 145.431V145.936H298.007V144.826H302.136C302.133 144.51 302.066 144.23 301.932 143.984C301.8 143.735 301.614 143.54 301.376 143.398C301.14 143.255 300.866 143.184 300.551 143.184C300.217 143.184 299.922 143.266 299.668 143.429C299.415 143.59 299.217 143.802 299.075 144.066C298.936 144.327 298.865 144.613 298.862 144.926V145.895C298.862 146.302 298.936 146.651 299.084 146.942C299.232 147.23 299.439 147.452 299.705 147.606C299.97 147.758 300.281 147.833 300.637 147.833C300.876 147.833 301.092 147.8 301.285 147.733C301.478 147.664 301.646 147.562 301.788 147.429C301.93 147.295 302.037 147.13 302.109 146.933L303.64 147.106C303.543 147.512 303.359 147.867 303.087 148.17C302.819 148.471 302.474 148.704 302.055 148.871C301.635 149.035 301.155 149.117 300.615 149.117ZM310.21 143.838L308.715 144.002C308.673 143.85 308.599 143.708 308.493 143.574C308.391 143.441 308.252 143.333 308.077 143.251C307.902 143.169 307.688 143.128 307.434 143.128C307.093 143.128 306.806 143.203 306.574 143.351C306.344 143.5 306.231 143.693 306.234 143.929C306.231 144.133 306.305 144.298 306.456 144.426C306.609 144.553 306.863 144.658 307.216 144.74L308.403 144.994C309.061 145.137 309.55 145.363 309.87 145.673C310.193 145.982 310.356 146.387 310.359 146.887C310.356 147.327 310.228 147.716 309.974 148.052C309.723 148.386 309.375 148.646 308.928 148.835C308.481 149.022 307.968 149.117 307.388 149.117C306.537 149.117 305.852 148.938 305.333 148.58C304.813 148.219 304.504 147.717 304.404 147.074L306.003 146.919C306.075 147.234 306.229 147.473 306.465 147.634C306.7 147.794 307.007 147.874 307.384 147.874C307.774 147.874 308.086 147.794 308.321 147.634C308.56 147.473 308.679 147.274 308.679 147.037C308.679 146.837 308.602 146.672 308.448 146.541C308.297 146.411 308.062 146.311 307.742 146.241L306.555 145.991C305.888 145.851 305.395 145.616 305.075 145.286C304.754 144.952 304.596 144.53 304.599 144.021C304.596 143.59 304.712 143.217 304.948 142.901C305.186 142.583 305.516 142.337 305.939 142.164C306.365 141.988 306.855 141.9 307.411 141.9C308.226 141.9 308.868 142.075 309.336 142.424C309.807 142.772 310.098 143.244 310.21 143.838ZM316.826 143.838L315.332 144.002C315.289 143.85 315.215 143.708 315.11 143.574C315.007 143.441 314.868 143.333 314.693 143.251C314.518 143.169 314.303 143.128 314.05 143.128C313.709 143.128 313.422 143.203 313.19 143.351C312.96 143.5 312.847 143.693 312.85 143.929C312.847 144.133 312.921 144.298 313.072 144.426C313.226 144.553 313.48 144.658 313.833 144.74L315.019 144.994C315.678 145.137 316.167 145.363 316.487 145.673C316.809 145.982 316.973 146.387 316.976 146.887C316.973 147.327 316.844 147.716 316.591 148.052C316.34 148.386 315.991 148.646 315.544 148.835C315.098 149.022 314.585 149.117 314.005 149.117C313.153 149.117 312.468 148.938 311.949 148.58C311.43 148.219 311.12 147.717 311.02 147.074L312.619 146.919C312.692 147.234 312.845 147.473 313.081 147.634C313.316 147.794 313.623 147.874 314 147.874C314.39 147.874 314.702 147.794 314.938 147.634C315.176 147.473 315.296 147.274 315.296 147.037C315.296 146.837 315.218 146.672 315.064 146.541C314.914 146.411 314.678 146.311 314.358 146.241L313.172 145.991C312.504 145.851 312.011 145.616 311.69 145.286C311.37 144.952 311.212 144.53 311.215 144.021C311.212 143.59 311.328 143.217 311.564 142.901C311.802 142.583 312.133 142.337 312.556 142.164C312.981 141.988 313.472 141.9 314.027 141.9C314.842 141.9 315.484 142.075 315.952 142.424C316.423 142.772 316.714 143.244 316.826 143.838Z" fill="#212121"/>
<path d="M374.964 140.523V139.108H382.364V140.523H379.497V148.426H377.831V140.523H374.964ZM385.406 148.563C384.708 148.563 384.107 148.417 383.599 148.126C383.095 147.832 382.707 147.416 382.435 146.879C382.164 146.339 382.028 145.704 382.028 144.973C382.028 144.254 382.164 143.623 382.435 143.08C382.71 142.534 383.093 142.11 383.586 141.806C384.078 141.5 384.656 141.347 385.32 141.347C385.749 141.347 386.153 141.416 386.534 141.556C386.917 141.693 387.255 141.905 387.548 142.193C387.844 142.481 388.076 142.848 388.245 143.294C388.414 143.737 388.499 144.265 388.499 144.877V145.383H382.797V144.272H386.927C386.925 143.957 386.857 143.676 386.724 143.431C386.591 143.181 386.405 142.986 386.167 142.844C385.931 142.701 385.657 142.63 385.343 142.63C385.007 142.63 384.713 142.712 384.46 142.875C384.206 143.036 384.008 143.249 383.866 143.513C383.728 143.773 383.656 144.06 383.654 144.372V145.342C383.654 145.748 383.728 146.097 383.876 146.388C384.024 146.676 384.23 146.898 384.496 147.052C384.761 147.204 385.073 147.28 385.429 147.28C385.667 147.28 385.883 147.246 386.076 147.18C386.269 147.11 386.437 147.008 386.579 146.875C386.721 146.742 386.828 146.576 386.901 146.379L388.431 146.552C388.335 146.958 388.15 147.313 387.879 147.617C387.61 147.917 387.266 148.15 386.846 148.318C386.426 148.481 385.947 148.563 385.406 148.563ZM395.001 143.285L393.506 143.449C393.464 143.297 393.39 143.155 393.284 143.021C393.182 142.887 393.043 142.78 392.868 142.698C392.693 142.616 392.478 142.575 392.225 142.575C391.884 142.575 391.597 142.649 391.365 142.798C391.135 142.946 391.022 143.139 391.025 143.376C391.022 143.579 391.096 143.745 391.247 143.872C391.401 143.999 391.655 144.104 392.008 144.186L393.194 144.44C393.853 144.583 394.342 144.809 394.662 145.119C394.984 145.428 395.148 145.833 395.151 146.333C395.148 146.774 395.019 147.162 394.766 147.498C394.515 147.832 394.166 148.093 393.719 148.281C393.272 148.469 392.76 148.563 392.179 148.563C391.328 148.563 390.643 148.384 390.124 148.026C389.605 147.665 389.295 147.163 389.195 146.52L390.794 146.365C390.867 146.681 391.02 146.919 391.256 147.08C391.491 147.241 391.798 147.321 392.175 147.321C392.565 147.321 392.877 147.241 393.113 147.08C393.351 146.919 393.471 146.72 393.471 146.483C393.471 146.283 393.393 146.118 393.239 145.987C393.089 145.857 392.853 145.757 392.533 145.687L391.347 145.437C390.679 145.297 390.186 145.062 389.866 144.732C389.545 144.398 389.387 143.976 389.39 143.467C389.387 143.036 389.503 142.663 389.739 142.347C389.977 142.029 390.308 141.783 390.731 141.611C391.156 141.434 391.647 141.347 392.202 141.347C393.017 141.347 393.659 141.521 394.127 141.87C394.598 142.219 394.889 142.69 395.001 143.285ZM399.593 141.438V142.712H395.595V141.438H399.593ZM396.582 139.763H398.221V146.324C398.221 146.545 398.254 146.716 398.32 146.834C398.39 146.949 398.48 147.028 398.592 147.071C398.704 147.113 398.828 147.134 398.964 147.134C399.066 147.134 399.16 147.127 399.244 147.111C399.332 147.096 399.399 147.082 399.444 147.071L399.72 148.358C399.633 148.389 399.507 148.422 399.344 148.458C399.184 148.495 398.988 148.516 398.755 148.522C398.345 148.534 397.975 148.472 397.646 148.335C397.317 148.196 397.055 147.981 396.862 147.689C396.672 147.398 396.578 147.034 396.582 146.597V139.763ZM400.581 148.426V141.438H402.221V148.426H400.581ZM401.406 140.446C401.146 140.446 400.922 140.359 400.736 140.186C400.548 140.01 400.454 139.799 400.454 139.554C400.454 139.305 400.548 139.094 400.736 138.921C400.922 138.746 401.146 138.657 401.406 138.657C401.668 138.657 401.892 138.746 402.076 138.921C402.263 139.094 402.356 139.305 402.356 139.554C402.356 139.799 402.263 140.01 402.076 140.186C401.892 140.359 401.668 140.446 401.406 140.446ZM405.163 144.331V148.426H403.524V141.438H405.091V142.625H405.172C405.332 142.234 405.587 141.923 405.938 141.693C406.291 141.462 406.727 141.347 407.246 141.347C407.727 141.347 408.145 141.45 408.501 141.656C408.86 141.862 409.138 142.161 409.334 142.552C409.534 142.944 409.632 143.418 409.629 143.976V148.426H407.989V144.231C407.989 143.764 407.869 143.399 407.627 143.135C407.389 142.871 407.058 142.739 406.635 142.739C406.349 142.739 406.093 142.803 405.87 142.93C405.649 143.055 405.476 143.235 405.349 143.472C405.225 143.708 405.163 143.994 405.163 144.331ZM413.938 151.193C413.349 151.193 412.843 151.113 412.421 150.952C411.998 150.794 411.658 150.582 411.402 150.314C411.145 150.048 410.967 149.752 410.867 149.427L412.344 149.068C412.41 149.204 412.507 149.339 412.633 149.473C412.76 149.61 412.931 149.722 413.145 149.81C413.362 149.901 413.635 149.946 413.965 149.946C414.43 149.946 414.814 149.833 415.12 149.605C415.425 149.38 415.577 149.01 415.577 148.495V147.171H415.495C415.411 147.341 415.287 147.515 415.124 147.694C414.964 147.873 414.751 148.023 414.485 148.145C414.223 148.266 413.892 148.327 413.494 148.327C412.959 148.327 412.475 148.2 412.04 147.949C411.608 147.694 411.264 147.315 411.008 146.811C410.754 146.305 410.627 145.67 410.627 144.909C410.627 144.142 410.754 143.494 411.008 142.966C411.264 142.436 411.61 142.033 412.044 141.76C412.479 141.484 412.964 141.347 413.498 141.347C413.906 141.347 414.241 141.416 414.504 141.556C414.769 141.693 414.981 141.858 415.138 142.052C415.294 142.243 415.414 142.424 415.495 142.593H415.586V141.438H417.203V148.54C417.203 149.138 417.061 149.632 416.777 150.024C416.493 150.415 416.105 150.708 415.613 150.902C415.121 151.096 414.562 151.193 413.938 151.193ZM413.951 147.034C414.298 147.034 414.594 146.949 414.839 146.779C415.083 146.61 415.269 146.365 415.396 146.047C415.523 145.728 415.586 145.346 415.586 144.9C415.586 144.46 415.523 144.075 415.396 143.745C415.272 143.414 415.088 143.158 414.843 142.975C414.602 142.791 414.304 142.698 413.951 142.698C413.586 142.698 413.281 142.793 413.037 142.985C412.792 143.176 412.607 143.438 412.484 143.771C412.36 144.102 412.298 144.479 412.298 144.9C412.298 145.328 412.36 145.702 412.484 146.024C412.611 146.342 412.796 146.591 413.041 146.77C413.288 146.946 413.592 147.034 413.951 147.034Z" fill="#212121"/>
<path d="M477.17 148.98H474.027V139.662H477.234C478.155 139.662 478.945 139.848 479.607 140.221C480.271 140.591 480.781 141.124 481.137 141.818C481.493 142.513 481.672 143.344 481.672 144.312C481.672 145.282 481.492 146.116 481.133 146.814C480.777 147.512 480.262 148.047 479.589 148.42C478.919 148.794 478.112 148.98 477.17 148.98ZM475.707 147.52H477.089C477.734 147.52 478.274 147.402 478.706 147.165C479.137 146.925 479.462 146.569 479.679 146.095C479.897 145.619 480.005 145.025 480.005 144.312C480.005 143.599 479.897 143.007 479.679 142.537C479.462 142.064 479.14 141.711 478.714 141.477C478.292 141.24 477.766 141.122 477.138 141.122H475.707V147.52ZM485.847 149.117C485.168 149.117 484.579 148.967 484.081 148.666C483.583 148.366 483.196 147.946 482.922 147.406C482.65 146.866 482.514 146.235 482.514 145.513C482.514 144.791 482.65 144.159 482.922 143.615C483.196 143.073 483.583 142.651 484.081 142.351C484.579 142.05 485.168 141.9 485.847 141.9C486.527 141.9 487.115 142.05 487.613 142.351C488.111 142.651 488.496 143.073 488.768 143.615C489.043 144.159 489.18 144.791 489.18 145.513C489.18 146.235 489.043 146.866 488.768 147.406C488.496 147.946 488.111 148.366 487.613 148.666C487.115 148.967 486.527 149.117 485.847 149.117ZM485.856 147.797C486.224 147.797 486.532 147.696 486.78 147.493C487.027 147.286 487.211 147.01 487.333 146.664C487.456 146.318 487.518 145.933 487.518 145.508C487.518 145.081 487.456 144.694 487.333 144.348C487.211 143.999 487.027 143.722 486.78 143.515C486.532 143.309 486.224 143.206 485.856 143.206C485.479 143.206 485.165 143.309 484.914 143.515C484.667 143.722 484.481 143.999 484.357 144.348C484.236 144.694 484.176 145.081 484.176 145.508C484.176 145.933 484.236 146.318 484.357 146.664C484.481 147.01 484.667 147.286 484.914 147.493C485.165 147.696 485.479 147.797 485.856 147.797ZM491.828 144.885V148.98H490.189V141.991H491.756V143.179H491.837C491.997 142.788 492.252 142.476 492.603 142.246C492.956 142.016 493.392 141.9 493.912 141.9C494.392 141.9 494.809 142.003 495.166 142.21C495.525 142.416 495.803 142.715 495.999 143.106C496.198 143.497 496.296 143.972 496.293 144.53V148.98H494.654V144.785C494.654 144.318 494.533 143.952 494.292 143.688C494.053 143.424 493.723 143.292 493.3 143.292C493.013 143.292 492.758 143.357 492.535 143.483C492.314 143.608 492.141 143.788 492.014 144.025C491.89 144.262 491.828 144.548 491.828 144.885ZM500.657 149.117C499.959 149.117 499.357 148.971 498.85 148.68C498.346 148.386 497.958 147.97 497.686 147.433C497.414 146.893 497.278 146.257 497.278 145.526C497.278 144.808 497.414 144.177 497.686 143.634C497.96 143.088 498.344 142.663 498.837 142.36C499.328 142.053 499.906 141.9 500.571 141.9C500.999 141.9 501.404 141.97 501.784 142.11C502.167 142.246 502.506 142.458 502.799 142.747C503.095 143.035 503.327 143.402 503.496 143.848C503.665 144.291 503.75 144.819 503.75 145.431V145.936H498.048V144.826H502.178C502.175 144.51 502.108 144.23 501.974 143.984C501.842 143.735 501.656 143.54 501.418 143.398C501.182 143.255 500.907 143.184 500.593 143.184C500.258 143.184 499.964 143.266 499.71 143.429C499.457 143.59 499.259 143.802 499.117 144.066C498.978 144.327 498.907 144.613 498.904 144.926V145.895C498.904 146.302 498.978 146.651 499.126 146.942C499.274 147.23 499.48 147.452 499.746 147.606C500.012 147.758 500.323 147.833 500.679 147.833C500.918 147.833 501.134 147.8 501.327 147.733C501.52 147.664 501.688 147.562 501.83 147.429C501.972 147.295 502.079 147.13 502.151 146.933L503.682 147.106C503.585 147.512 503.401 147.867 503.13 148.17C502.861 148.471 502.516 148.704 502.097 148.871C501.677 149.035 501.197 149.117 500.657 149.117Z" fill="#212121"/>
<path d="M112.134 197.793H83.4409V225.341H112.134V197.793Z" fill="#FFCD1D"/>
<path d="M87.9043 207.723H101.294" stroke="#212121" stroke-width="2"/>
<path d="M87.9043 211.407H107.67" stroke="#212121"/>
<path d="M87.9043 213.97H107.67" stroke="#212121"/>
<path d="M166.693 182.867H138V210.415H166.693V182.867Z" fill="#FFCD1D"/>
<path d="M142.463 192.797H155.853" stroke="#212121" stroke-width="2"/>
<path d="M142.463 196.481H162.23" stroke="#212121"/>
<path d="M142.463 199.043H162.23" stroke="#212121"/>
<path d="M212.24 211.887H183.547V239.436H212.24V211.887Z" fill="#FFCD1D"/>
<path d="M188.011 221.818H201.401" stroke="#212121" stroke-width="2"/>
<path d="M188.011 225.501H207.777" stroke="#212121"/>
<path d="M188.011 228.064H207.777" stroke="#212121"/>
<path d="M523.398 194.59H494.706V222.138H523.398V194.59Z" fill="#FFCD1D"/>
<path d="M499.169 204.52H512.559" stroke="#212121" stroke-width="2"/>
<path d="M499.169 208.203H518.935" stroke="#212121"/>
<path d="M499.169 210.766H518.935" stroke="#212121"/>
<path d="M483.229 222.138H454.536V249.686H483.229V222.138Z" fill="#FFCD1D"/>
<path d="M458.999 232.068H472.389" stroke="#212121" stroke-width="2"/>
<path d="M458.999 235.752H478.765" stroke="#212121"/>
<path d="M458.999 238.314H478.765" stroke="#212121"/>
<path d="M397.693 174.829H369V202.377H397.693V174.829Z" fill="#FFCD1D"/>
<path d="M373.464 184.758H386.854" stroke="#212121" stroke-width="2"/>
<path d="M373.464 188.442H393.23" stroke="#212121"/>
<path d="M373.464 191.005H393.23" stroke="#212121"/>
<path d="M261.96 245L236 257.279L247.678 282.204L273.638 269.924L261.96 245Z" fill="#FFCD1D"/>
<path d="M244.248 264.354L256.362 258.624" stroke="#212121" stroke-width="2"/>
<path d="M245.809 267.686L263.693 259.228" stroke="#212121"/>
<path d="M246.896 270.005L264.779 261.546" stroke="#212121"/>
<path d="M201.856 241.999L175.896 254.278L187.574 279.202L213.534 266.923L201.856 241.999Z" fill="#FFCD1D"/>
<path d="M184.144 261.352L196.258 255.622" stroke="#212121" stroke-width="2"/>
<path d="M185.705 264.685L203.589 256.226" stroke="#212121"/>
<path d="M186.792 267.003L204.675 258.544" stroke="#212121"/>
<path d="M279.19 192.027H250.497V219.575H279.19V192.027Z" fill="#00D1FF"/>
<path d="M254.961 201.957H268.351" stroke="#212121" stroke-width="2"/>
<path d="M254.961 205.641H274.727" stroke="#212121"/>
<path d="M254.961 208.203H274.727" stroke="#212121"/>
<path d="M485.693 176.838H457V204.386H485.693V176.838Z" fill="#00D1FF"/>
<path d="M461.464 186.768H474.854" stroke="#212121" stroke-width="2"/>
<path d="M461.464 190.452H481.23" stroke="#212121"/>
<path d="M461.464 193.014H481.23" stroke="#212121"/>
<path d="M425.843 212.528H397.15V240.076H425.843V212.528Z" fill="#00FF58"/>
<path d="M401.613 222.458H415.003" stroke="#212121" stroke-width="2"/>
<path d="M401.613 226.142H421.379" stroke="#212121"/>
<path d="M401.613 228.704H421.379" stroke="#212121"/>
<path d="M334.546 183.672L307.621 173.71L298.147 199.562L325.073 209.523L334.546 183.672Z" fill="#00FF58"/>
<path d="M308.394 184.578L320.959 189.227" stroke="#212121" stroke-width="2"/>
<path d="M307.127 188.035L325.676 194.898" stroke="#212121"/>
<path d="M306.246 190.44L324.795 197.302" stroke="#212121"/>
<path d="M100.216 247.189L76.8779 230.417L60.9276 252.824L84.2653 269.596L100.216 247.189Z" fill="#EB00FF"/>
<path d="M74.7588 241.103L85.65 248.93" stroke="#212121" stroke-width="2"/>
<path d="M72.626 244.1L88.7036 255.653" stroke="#212121"/>
<path d="M71.1421 246.184L87.219 257.737" stroke="#212121"/>
<path d="M523.595 238.844H494.902V266.393H523.595V238.844Z" fill="#EB00FF"/>
<path d="M499.366 248.775H512.756" stroke="#212121" stroke-width="2"/>
<path d="M499.366 252.458H519.132" stroke="#212121"/>
<path d="M499.366 255.021H519.132" stroke="#212121"/>
<path d="M544 145.555C544 145.555 566.875 128.859 577.437 114.394C586.38 102.145 597 79.3762 597 79.3762V133.67L559.881 168.8L558.379 166.601L545.134 147.215L544 145.555Z" fill="#AC0523"/>
<path d="M536.443 155.745L536.576 155.841L536.74 155.841L540.565 155.824L549.4 167.696C549.269 172.731 546.714 184.673 537.417 193.295L537.756 193.661L537.416 193.295C535.05 195.489 533.257 196.715 531.923 197.28C530.59 197.845 529.815 197.714 529.355 197.379C528.862 197.02 528.548 196.305 528.425 195.321C528.311 194.41 528.373 193.363 528.531 192.394C534.125 187.548 537.235 183.858 538.583 181.066C539.264 179.654 539.515 178.431 539.367 177.383C539.218 176.32 538.667 175.497 537.865 174.887C536.304 173.7 533.775 173.309 531.226 173.33C528.648 173.351 525.925 173.796 523.868 174.393L523.714 174.437L523.615 174.563C521.264 177.546 517.657 181.523 514.459 183.813C512.841 184.971 511.426 185.625 510.374 185.609C509.875 185.601 509.468 185.443 509.136 185.112C508.793 184.77 508.493 184.205 508.302 183.319C507.549 179.835 509.648 176.594 512.802 173.888C515.935 171.2 519.971 169.167 522.73 168.122L524.458 167.467L522.635 167.161C513.34 165.6 507.627 168.822 503.901 171.257C503.598 171.455 503.312 171.646 503.04 171.827C502.471 172.205 501.962 172.543 501.492 172.825C500.792 173.243 500.253 173.487 499.815 173.547C499.423 173.601 499.105 173.511 498.783 173.184C498.43 172.824 498.067 172.169 497.699 171.062C497.367 170.062 497.336 169.186 497.53 168.413C497.724 167.638 498.152 166.931 498.792 166.285C500.085 164.98 502.204 163.959 504.803 163.188C509.987 161.651 516.823 161.179 521.932 161.214L521.953 160.215C519.366 160.121 516.015 159.741 513.247 158.858C511.862 158.416 510.652 157.857 509.758 157.167C508.868 156.479 508.321 155.686 508.185 154.765L508.185 154.765C508.117 154.305 508.2 153.977 508.362 153.731C508.529 153.476 508.819 153.253 509.262 153.077C510.164 152.719 511.545 152.618 513.223 152.722C516.557 152.928 520.791 153.923 523.99 154.869L524.311 153.923C522.262 153.138 519.25 151.238 517.805 147.696L517.805 147.696C517.361 146.608 517.242 145.828 517.295 145.282C517.347 144.756 517.559 144.437 517.832 144.232C518.122 144.013 518.524 143.89 518.988 143.853C519.413 143.819 519.857 143.86 520.247 143.94L536.443 155.745Z" fill="#FFBE7C" stroke="#B9703B"/>
<path d="M538.898 152.975L545.063 147.193L558.501 166.398L552.89 171.226L538.898 152.975Z" fill="#FF93BA"/>
<path d="M331.531 262.051L331.319 261.96L331.112 262.062C327.599 263.794 317.003 263.927 304.136 248.85C304.317 247.949 305.174 246.338 307.6 246.061L316.685 253.165L317.312 252.386L288.682 228.551C288.044 227.64 287.423 226.59 287.006 225.601C286.569 224.566 286.404 223.705 286.554 223.148C286.623 222.894 286.755 222.708 286.973 222.576C287.204 222.436 287.572 222.333 288.145 222.341C289.294 222.357 291.099 222.816 293.798 223.988L314.15 238.723L314.75 237.923C311.992 235.779 308.572 232.641 307.132 230.143C306.775 229.524 306.559 228.976 306.491 228.515C306.425 228.065 306.502 227.726 306.698 227.464C306.902 227.192 307.289 226.931 307.983 226.756C308.648 226.587 309.557 226.509 310.761 226.557L319.88 233.377L320.492 232.587L315.513 228.599C315.307 227.906 315.155 227.1 315.133 226.311C315.11 225.462 315.239 224.674 315.574 224.068C315.897 223.483 316.429 223.034 317.303 222.858C318.201 222.678 319.488 222.782 321.293 223.396L321.903 223.603L321.953 222.962C322.055 221.648 322.502 219.864 323.451 218.699C323.917 218.127 324.49 217.72 325.193 217.567C325.898 217.414 326.796 217.503 327.935 218.035C330.291 219.135 334.201 222.051 338.172 225.297C342.092 228.502 346.02 231.983 348.462 234.232C348.905 235.04 349.666 236.265 350.571 237.425C351.492 238.604 352.612 239.782 353.739 240.338C354.965 240.942 380.586 254.881 402.277 284.149C423.907 313.336 441.638 357.777 427.345 419.5H388.883C389.257 417.871 389.729 415.969 390.261 413.825C393.851 399.369 400.17 373.921 397.383 347.045C395.756 331.348 391.022 315.144 380.82 300.335C370.616 285.525 354.96 272.138 331.531 262.051Z" fill="#FFB47D" stroke="#C57F39"/>
<path d="M347.561 270.609L339.169 266.249L342.527 260.092C344.001 262.34 348.518 264.188 350.592 264.831L347.561 270.609Z" fill="#812F01"/>
<path d="M354.615 240.198L362.7 245.662L358.975 252.148C357.647 249.561 353.265 247.168 351.24 246.295L354.615 240.198Z" fill="#812F01"/>
<path d="M350.604 263.78C355.005 263.78 358.574 260.195 358.574 255.772C358.574 251.349 355.005 247.764 350.604 247.764C346.202 247.764 342.633 251.349 342.633 255.772C342.633 260.195 346.202 263.78 350.604 263.78Z" fill="#B6B6B6"/>
<path d="M350.604 263.14C354.653 263.14 357.936 259.841 357.936 255.772C357.936 251.703 354.653 248.405 350.604 248.405C346.554 248.405 343.271 251.703 343.271 255.772C343.271 259.841 346.554 263.14 350.604 263.14Z" fill="#212121"/>
<path d="M350.922 250.327V255.773L352.835 254.171" stroke="#FFD984"/>
<path d="M498 342V420H528V342H498Z" fill="#114172"/>
<path d="M490.309 307.731C488.28 334.333 496.685 332.519 502.673 332.519H525.499C529.338 332.519 528.288 310.633 525.499 306.522C522.709 302.411 519.687 304.809 518.524 306.522V303.499C515.481 297.454 512.395 300.98 511.232 303.499V300.174C507.682 294.128 505.104 297.655 504.258 300.174V282.339C503.976 282.339 504.258 282.023 504.258 281.734C504.258 274.805 496.051 276.885 496.649 281.734V310.452C493.099 307.308 490.943 307.328 490.309 307.731Z" fill="#E39053"/>
<path d="M504.258 311.057V300.174M504.258 300.174V282.339C503.976 282.339 504.258 282.023 504.258 281.734C504.258 274.805 496.051 276.885 496.649 281.734V310.452C493.099 307.308 490.943 307.328 490.309 307.731C488.28 334.333 496.685 332.519 502.673 332.519H525.499C529.338 332.519 528.288 310.633 525.499 306.522C522.709 302.411 519.687 304.809 518.524 306.522M504.258 300.174C505.104 297.655 507.682 294.128 511.232 300.174V303.499M518.524 306.522V303.499C515.481 297.454 512.395 300.98 511.232 303.499M518.524 306.522V311.057M511.232 303.499V311.057" stroke="#794C30"/>
<path d="M500 332.545V341.588H526V332.545H500Z" fill="#787878"/>
<path d="M206.592 109.402C210.349 82.9904 201.844 84.2478 195.869 83.8543L173.092 82.3541C169.26 82.1017 168.883 104.01 171.4 108.295C173.916 112.581 177.087 110.386 178.359 108.754L178.162 111.77C180.806 118.003 184.114 114.687 185.438 112.249L185.222 115.567C188.371 121.834 191.173 118.484 192.181 116.026L191.02 133.823C191.301 133.841 191 134.138 190.981 134.426C190.53 141.34 198.855 139.805 198.573 134.926L200.443 106.27C203.781 109.641 205.934 109.762 206.592 109.402Z" fill="#FFE9DC"/>
<path d="M192.89 105.167L192.181 116.026M192.181 116.026L191.02 133.823C191.301 133.841 191 134.138 190.981 134.426C190.53 141.34 198.855 139.805 198.573 134.926L200.443 106.27C203.781 109.641 205.934 109.762 206.592 109.402C210.349 82.9904 201.844 84.2478 195.869 83.8543L173.092 82.3541C169.26 82.1017 168.883 104.01 171.4 108.295C173.916 112.581 177.087 110.386 178.359 108.754M192.181 116.026C191.173 118.484 188.371 121.834 185.222 115.567L185.438 112.249M178.359 108.754L178.162 111.77C180.806 118.003 184.114 114.687 185.438 112.249M178.359 108.754L178.654 104.229M185.438 112.249L185.93 104.708" stroke="#CB9E82"/>
<path d="M61.0229 175.509C41.3284 155.329 37.1735 162.97 33.191 167.509L16.5347 186.49C21.7536 191.683 33.4686 202.261 38.5762 203.027C43.6839 203.794 43.7967 199.822 43.2147 197.741L45.606 199.859C52.4128 201.79 51.6751 196.98 50.4554 194.333L53.0859 196.663C60.23 198.209 59.1549 193.783 57.7244 191.377L71.8332 203.876C72.0207 203.662 72.0832 204.097 72.3114 204.3C77.7931 209.156 81.6067 201.478 77.3716 198.533L54.6539 178.408C59.5023 177.92 60.9201 176.272 61.0229 175.509Z" fill="#573A32"/>
<path d="M49.1155 183.751L57.7244 191.377M57.7244 191.377L71.8332 203.876C72.0207 203.662 72.0832 204.097 72.3114 204.3C77.7931 209.156 81.6067 201.478 77.3716 198.533L54.6539 178.408C59.5023 177.92 60.9201 176.272 61.0229 175.509C41.3284 155.329 37.1735 162.97 33.191 167.509L16.5347 186.49C21.7536 191.683 33.4686 202.261 38.5762 203.027C43.6839 203.794 43.7967 199.822 43.2147 197.741M57.7244 191.377C59.1549 193.783 60.23 198.209 53.0859 196.663L50.4554 194.333M43.2147 197.741L45.606 199.859C52.4128 201.79 51.6751 196.98 50.4554 194.333M43.2147 197.741L39.6276 194.563M50.4554 194.333L44.477 189.037" stroke="#321710"/>
<path d="M1 170.949L16.4775 184.876L35 163.374L1 134.638V170.949Z" fill="#573A32" stroke="#321710"/>
<path d="M17.7664 188.183L9.80859 180.649L16.0485 173.68C17.5193 176.964 21.8411 179.835 24.4614 181.136L17.7664 188.183Z" fill="white"/>
<path d="M30.5323 158.584L37.8514 164.479L31.794 172.167C30.9034 169.397 26.318 166.633 24.4614 165.44L30.5323 158.584Z" fill="white"/>
<path d="M22.7518 181.195C27.0948 181.916 31.1968 178.962 31.9138 174.598C32.6308 170.235 29.6912 166.113 25.3482 165.393C21.0051 164.672 16.9031 167.626 16.1862 171.99C15.4692 176.353 18.4087 180.475 22.7518 181.195Z" fill="white"/>
<path d="M22.8553 180.563C26.8509 181.226 30.6247 178.508 31.2843 174.494C31.944 170.479 29.2396 166.687 25.244 166.025C21.2484 165.362 17.4746 168.079 16.8149 172.094C16.1553 176.108 18.8597 179.9 22.8553 180.563Z" fill="#212121"/>
<path d="M25.247 167.973L24.3643 173.347L26.5112 172.079" stroke="#FFD984"/>
<path d="M175 2H205L201.5 75L170 73L175 2Z" fill="#FFF970"/>
<path d="M173.648 73.8035L198.594 75.4466L198.071 83.4722L173.124 81.8291L173.648 73.8035Z" fill="white" stroke="#919191"/>
<path d="M185.465 294.017L100 420.017H140.394L209 311.48L206.774 309.828L187.146 295.264L185.465 294.017Z" fill="#2EAEB7"/>
<path d="M193.489 289L187.648 295.962L207.198 310.986L212.073 304.651L193.489 289Z" fill="#212121"/>
<path d="M198.11 288.024L197.11 292.524L209.609 302.524C216.009 302.124 220.943 300.358 222.609 299.524C225.609 298.191 232.909 293.524 238.109 285.524C243.309 277.524 238.5 276.524 235 277.524C231.5 278.524 232.809 284.024 223.609 290.024C214.409 296.024 215.443 284.191 217.109 277.524C223.609 266 237.609 264.624 231.609 259.024C225.609 253.424 216.776 266.691 213.109 274.024C210.309 267.624 213.609 254.024 215.609 248.024C215.776 247.024 217.909 243.3 213.109 242.5C208.309 241.7 204.443 262.358 204.609 272.024C202.443 266.691 200.5 251 195.109 256.024C193.354 257.661 194.776 268.024 196.109 274.024H195.109C194.443 272.358 192.21 268.624 188.61 267.024C185.01 265.424 184.776 268.358 185.11 270.024L198.11 288.024Z" fill="#FDC48B" stroke="#996845"/>
<defs>
<filter id="filter0_ddd_583_923" x="30" y="70" width="537" height="291" filterUnits="userSpaceOnUse" color-interpolation-filters="sRGB">
<feFlood flood-opacity="0" result="BackgroundImageFix"/>
<feColorMatrix in="SourceAlpha" type="matrix" values="0 0 0 0 0 0 0 0 0 0 0 0 0 0 0 0 0 0 127 0" result="hardAlpha"/>
<feOffset dy="4"/>
<feGaussianBlur stdDeviation="2"/>
<feComposite in2="hardAlpha" operator="out"/>
<feColorMatrix type="matrix" values="0 0 0 0 0 0 0 0 0 0 0 0 0 0 0 0 0 0 0.25 0"/>
<feBlend mode="normal" in2="BackgroundImageFix" result="effect1_dropShadow_583_923"/>
<feColorMatrix in="SourceAlpha" type="matrix" values="0 0 0 0 0 0 0 0 0 0 0 0 0 0 0 0 0 0 127 0" result="hardAlpha"/>
<feOffset dy="4"/>
<feGaussianBlur stdDeviation="2"/>
<feComposite in2="hardAlpha" operator="out"/>
<feColorMatrix type="matrix" values="0 0 0 0 0 0 0 0 0 0 0 0 0 0 0 0 0 0 0.25 0"/>
<feBlend mode="normal" in2="effect1_dropShadow_583_923" result="effect2_dropShadow_583_923"/>
<feColorMatrix in="SourceAlpha" type="matrix" values="0 0 0 0 0 0 0 0 0 0 0 0 0 0 0 0 0 0 127 0" result="hardAlpha"/>
<feOffset dy="4"/>
<feGaussianBlur stdDeviation="2"/>
<feComposite in2="hardAlpha" operator="out"/>
<feColorMatrix type="matrix" values="0 0 0 0 0 0 0 0 0 0 0 0 0 0 0 0 0 0 0.25 0"/>
<feBlend mode="normal" in2="effect2_dropShadow_583_923" result="effect3_dropShadow_583_923"/>
<feBlend mode="normal" in="SourceGraphic" in2="effect3_dropShadow_583_923" result="shape"/>
</filter>
</defs>
</svg>
