<svg width="17" height="17" viewBox="0 0 17 17" fill="none" xmlns="http://www.w3.org/2000/svg">
<path d="M2.60215 3.71299L4.34988 14.2696C4.42982 14.7529 4.67873 15.1921 5.05228 15.509C5.42582 15.8259 5.89973 15.9999 6.38958 16H9.15881M14.6989 3.71299L12.952 14.2696C12.8721 14.7529 12.6232 15.1921 12.2496 15.509C11.8761 15.8259 11.4022 15.9999 10.9123 16H8.14309M7.01489 7.7684V11.9446M10.287 7.7684V11.9446M1 3.71299H16.3019M10.9479 3.71299V2.24069C10.9479 1.91164 10.8172 1.59607 10.5845 1.36339C10.3518 1.13072 10.0362 1 9.7072 1H7.59471C7.26565 1 6.95008 1.13072 6.7174 1.36339C6.48473 1.59607 6.35401 1.91164 6.35401 2.24069V3.71299H10.9479Z" stroke="#939393" stroke-linecap="round" stroke-linejoin="round"/>
</svg>
