<svg width="10" height="10" viewBox="0 0 10 10" fill="none" xmlns="http://www.w3.org/2000/svg">
<path d="M4.29363 5.00063L0.146631 0.854632C0.100144 0.808144 0.0632674 0.752954 0.0381083 0.692215C0.0129493 0.631476 4.8983e-10 0.566375 0 0.500632C-4.8983e-10 0.434888 0.0129493 0.369788 0.0381083 0.309048C0.0632674 0.248309 0.100144 0.193119 0.146631 0.146631C0.193119 0.100144 0.248309 0.0632674 0.309048 0.0381083C0.369788 0.0129493 0.434888 -4.8983e-10 0.500632 0C0.566375 4.8983e-10 0.631476 0.0129493 0.692215 0.0381083C0.752954 0.0632674 0.808144 0.100144 0.854632 0.146631L5.00063 4.29363L9.14663 0.146631C9.24052 0.0527448 9.36786 0 9.50063 0C9.63341 0 9.76074 0.0527448 9.85463 0.146631C9.94852 0.240518 10.0013 0.367856 10.0013 0.500632C10.0013 0.633407 9.94852 0.760745 9.85463 0.854632L5.70763 5.00063L9.85463 9.14663C9.94852 9.24052 10.0013 9.36786 10.0013 9.50063C10.0013 9.63341 9.94852 9.76074 9.85463 9.85463C9.76074 9.94852 9.63341 10.0013 9.50063 10.0013C9.36786 10.0013 9.24052 9.94852 9.14663 9.85463L5.00063 5.70763L0.854632 9.85463C0.760745 9.94852 0.633407 10.0013 0.500632 10.0013C0.367856 10.0013 0.240518 9.94852 0.146631 9.85463C0.0527448 9.76074 0 9.63341 0 9.50063C0 9.36786 0.0527448 9.24052 0.146631 9.14663L4.29363 5.00063Z" fill="white"/>
</svg>
