<svg width="40" height="40" viewBox="0 0 40 40" fill="none" xmlns="http://www.w3.org/2000/svg">
<circle cx="20" cy="20" r="20" fill="#FFE925"/>
<path d="M26.108 18.2898H23.983C23.9223 17.9413 23.8106 17.6326 23.6477 17.3636C23.4848 17.0909 23.2822 16.8598 23.0398 16.6705C22.7973 16.4811 22.5208 16.339 22.2102 16.2443C21.9034 16.1458 21.572 16.0966 21.2159 16.0966C20.5833 16.0966 20.0227 16.2557 19.5341 16.5739C19.0455 16.8883 18.6629 17.3504 18.3864 17.9602C18.1098 18.5663 17.9716 19.3068 17.9716 20.1818C17.9716 21.072 18.1098 21.822 18.3864 22.4318C18.6667 23.0379 19.0492 23.4962 19.5341 23.8068C20.0227 24.1136 20.5814 24.267 21.2102 24.267C21.5587 24.267 21.8845 24.2216 22.1875 24.1307C22.4943 24.036 22.7689 23.8977 23.0114 23.7159C23.2576 23.5341 23.464 23.3106 23.6307 23.0455C23.8011 22.7803 23.9186 22.4773 23.983 22.1364L26.108 22.1477C26.0284 22.7008 25.8561 23.2197 25.5909 23.7045C25.3295 24.1894 24.9867 24.6174 24.5625 24.9886C24.1383 25.3561 23.642 25.6439 23.0739 25.8523C22.5057 26.0568 21.875 26.1591 21.1818 26.1591C20.1591 26.1591 19.2462 25.9223 18.4432 25.4489C17.6402 24.9754 17.0076 24.2917 16.5455 23.3977C16.0833 22.5038 15.8523 21.4318 15.8523 20.1818C15.8523 18.928 16.0852 17.8561 16.5511 16.9659C17.017 16.072 17.6515 15.3883 18.4545 14.9148C19.2576 14.4413 20.1667 14.2045 21.1818 14.2045C21.8295 14.2045 22.4318 14.2955 22.9886 14.4773C23.5455 14.6591 24.0417 14.9261 24.4773 15.2784C24.9129 15.6269 25.2708 16.0549 25.5511 16.5625C25.8352 17.0663 26.0208 17.642 26.108 18.2898Z" fill="white"/>
</svg>
