<svg width="87" height="34" viewBox="0 0 87 34" fill="none" xmlns="http://www.w3.org/2000/svg">
<path d="M4.49574 26L0.390625 11.4545H3.22443L5.84517 22.1435H5.98011L8.77841 11.4545H11.3565L14.1619 22.1506H14.2898L16.9105 11.4545H19.7443L15.6392 26H13.0398L10.1278 15.794H10.0142L7.09517 26H4.49574ZM33.1873 18.7273C33.1873 20.2945 32.8937 21.6368 32.3066 22.7543C31.7242 23.867 30.9288 24.7192 29.9202 25.3111C28.9165 25.9029 27.7777 26.1989 26.504 26.1989C25.2304 26.1989 24.0893 25.9029 23.0808 25.3111C22.077 24.7145 21.2815 23.8598 20.6944 22.7472C20.112 21.6297 19.8208 20.2898 19.8208 18.7273C19.8208 17.16 20.112 15.8201 20.6944 14.7074C21.2815 13.59 22.077 12.7353 23.0808 12.1435C24.0893 11.5516 25.2304 11.2557 26.504 11.2557C27.7777 11.2557 28.9165 11.5516 29.9202 12.1435C30.9288 12.7353 31.7242 13.59 32.3066 14.7074C32.8937 15.8201 33.1873 17.16 33.1873 18.7273ZM30.5381 18.7273C30.5381 17.6241 30.3653 16.6937 30.0197 15.9361C29.6788 15.1738 29.2053 14.5985 28.5992 14.2102C27.9932 13.8172 27.2948 13.6207 26.504 13.6207C25.7133 13.6207 25.0149 13.8172 24.4089 14.2102C23.8028 14.5985 23.327 15.1738 22.9813 15.9361C22.6404 16.6937 22.47 17.6241 22.47 18.7273C22.47 19.8305 22.6404 20.7633 22.9813 21.5256C23.327 22.2831 23.8028 22.8584 24.4089 23.2514C25.0149 23.6397 25.7133 23.8338 26.504 23.8338C27.2948 23.8338 27.9932 23.6397 28.5992 23.2514C29.2053 22.8584 29.6788 22.2831 30.0197 21.5256C30.3653 20.7633 30.5381 19.8305 30.5381 18.7273ZM35.0784 26V11.4545H40.533C41.6504 11.4545 42.5879 11.6487 43.3455 12.0369C44.1078 12.4252 44.683 12.9697 45.0713 13.6705C45.4643 14.3665 45.6608 15.1785 45.6608 16.1065C45.6608 17.0393 45.4619 17.849 45.0642 18.5355C44.6712 19.2173 44.0912 19.7453 43.3241 20.1193C42.5571 20.4886 41.6149 20.6733 40.4974 20.6733H36.6125V18.4858H40.1423C40.7957 18.4858 41.3308 18.3958 41.7474 18.2159C42.1641 18.0312 42.4719 17.7637 42.6707 17.4134C42.8743 17.0582 42.9761 16.6226 42.9761 16.1065C42.9761 15.5904 42.8743 15.1501 42.6707 14.7855C42.4671 14.4162 42.157 14.1368 41.7403 13.9474C41.3237 13.7533 40.7863 13.6562 40.1281 13.6562H37.7134V26H35.0784ZM42.5926 19.4091L46.1935 26H43.2531L39.7162 19.4091H42.5926ZM47.4862 26V11.4545H50.1212V18.1378H50.2987L55.9734 11.4545H59.1908L53.5658 17.9815L59.2405 26H56.0729L51.7334 19.7642L50.1212 21.6676V26H47.4862ZM72.5099 11.4545H75.4857L79.044 17.8892H79.186L82.7443 11.4545H85.7201L80.4289 20.5739V26H77.8011V20.5739L72.5099 11.4545Z" fill="black"/>
<path d="M65.7509 26.7405L59.8374 10.3182L62.8123 9.24699L67.8279 23.1754L75.0607 20.5709L75.9587 23.0647L65.7509 26.7405Z" fill="#FF5925"/>
</svg>
